<mxfile host="app.diagrams.net" modified="2022-06-11T07:56:32.644Z" agent="5.0 (Windows)" etag="hSiPpficvkYHBEffVfsM" version="17.4.4" type="github">
  <diagram name="Page-1" id="7e0a89b8-554c-2b80-1dc8-d5c74ca68de4">
    <mxGraphModel dx="1987" dy="1913" grid="1" gridSize="10" guides="1" tooltips="1" connect="1" arrows="1" fold="1" page="1" pageScale="1" pageWidth="2000" pageHeight="1000" background="none" math="0" shadow="0">
      <root>
        <mxCell id="0" />
        <mxCell id="1" parent="0" />
        <mxCell id="oC9rU_n9ysh1uVX6l2-E-1" value="&lt;b&gt;SG_3030CM&lt;/b&gt;" style="pointerEvents=1;verticalLabelPosition=bottom;shadow=0;dashed=0;align=center;html=1;verticalAlign=top;shape=mxgraph.electrical.signal_sources.source;aspect=fixed;points=[[0.5,0,0],[1,0.5,0],[0.5,1,0],[0,0.5,0]];elSignalType=square;" parent="1" vertex="1">
          <mxGeometry x="40" y="315" width="50" height="50" as="geometry" />
        </mxCell>
        <mxCell id="oC9rU_n9ysh1uVX6l2-E-2" value="&lt;b&gt;51kΩ&lt;/b&gt;" style="pointerEvents=1;verticalLabelPosition=bottom;shadow=0;dashed=0;align=center;html=1;verticalAlign=top;shape=mxgraph.electrical.resistors.resistor_2;" parent="1" vertex="1">
          <mxGeometry x="100" y="330" width="40" height="20" as="geometry" />
        </mxCell>
        <mxCell id="oC9rU_n9ysh1uVX6l2-E-3" value="&lt;b&gt;51kΩ&lt;/b&gt;" style="pointerEvents=1;verticalLabelPosition=bottom;shadow=0;dashed=0;align=center;html=1;verticalAlign=top;shape=mxgraph.electrical.resistors.resistor_2;" parent="1" vertex="1">
          <mxGeometry x="157.5" y="330" width="40" height="20" as="geometry" />
        </mxCell>
        <mxCell id="oC9rU_n9ysh1uVX6l2-E-12" value="" style="endArrow=none;html=1;rounded=0;" parent="1" edge="1">
          <mxGeometry width="50" height="50" relative="1" as="geometry">
            <mxPoint x="610" y="300" as="sourcePoint" />
            <mxPoint x="610" y="430" as="targetPoint" />
          </mxGeometry>
        </mxCell>
        <mxCell id="oC9rU_n9ysh1uVX6l2-E-16" value="" style="endArrow=none;html=1;rounded=0;startArrow=none;" parent="1" source="oC9rU_n9ysh1uVX6l2-E-61" edge="1">
          <mxGeometry width="50" height="50" relative="1" as="geometry">
            <mxPoint x="200" y="270" as="sourcePoint" />
            <mxPoint x="200" y="300" as="targetPoint" />
          </mxGeometry>
        </mxCell>
        <mxCell id="oC9rU_n9ysh1uVX6l2-E-17" value="" style="endArrow=none;html=1;rounded=0;startArrow=none;entryX=1;entryY=0.486;entryDx=0;entryDy=0;entryPerimeter=0;" parent="1" source="oC9rU_n9ysh1uVX6l2-E-75" edge="1">
          <mxGeometry width="50" height="50" relative="1" as="geometry">
            <mxPoint x="150" y="340" as="sourcePoint" />
            <mxPoint x="150" y="340" as="targetPoint" />
            <Array as="points">
              <mxPoint x="160" y="340" />
            </Array>
          </mxGeometry>
        </mxCell>
        <mxCell id="oC9rU_n9ysh1uVX6l2-E-22" value="&lt;div&gt;&lt;b&gt;100pF&lt;/b&gt;&lt;/div&gt;" style="pointerEvents=1;verticalLabelPosition=bottom;shadow=0;dashed=0;align=center;html=1;verticalAlign=middle;shape=mxgraph.electrical.capacitors.capacitor_1;rotation=90;spacingRight=0;spacingTop=-5;labelPosition=center;direction=east;spacingLeft=0;spacing=2;" parent="1" vertex="1">
          <mxGeometry x="133.75" y="280" width="32.5" height="20" as="geometry" />
        </mxCell>
        <mxCell id="oC9rU_n9ysh1uVX6l2-E-23" value="" style="endArrow=none;html=1;rounded=0;exitX=1;exitY=0.5;exitDx=0;exitDy=0;exitPerimeter=0;" parent="1" source="oC9rU_n9ysh1uVX6l2-E-1" edge="1">
          <mxGeometry width="50" height="50" relative="1" as="geometry">
            <mxPoint x="100" y="340" as="sourcePoint" />
            <mxPoint x="100" y="340" as="targetPoint" />
          </mxGeometry>
        </mxCell>
        <mxCell id="oC9rU_n9ysh1uVX6l2-E-24" value="" style="pointerEvents=1;fillColor=strokeColor;verticalLabelPosition=bottom;shadow=0;dashed=0;align=center;html=1;verticalAlign=top;shape=mxgraph.electrical.diodes.diode;" parent="1" vertex="1">
          <mxGeometry x="391" y="540" width="40" height="20" as="geometry" />
        </mxCell>
        <mxCell id="oC9rU_n9ysh1uVX6l2-E-25" value="&lt;b style=&quot;font-size: 11px&quot;&gt;OPA333&lt;/b&gt;" style="verticalLabelPosition=middle;shadow=0;dashed=0;align=center;html=1;verticalAlign=middle;shape=mxgraph.electrical.abstract.operational_amp_1;rotation=0;spacingTop=0;labelPosition=center;fontSize=11;spacingLeft=0;spacingRight=5;" parent="1" vertex="1">
          <mxGeometry x="220" y="290" width="60" height="60" as="geometry" />
        </mxCell>
        <mxCell id="oC9rU_n9ysh1uVX6l2-E-26" value="" style="endArrow=none;html=1;rounded=0;exitX=1;exitY=0.5;exitDx=0;exitDy=0;exitPerimeter=0;" parent="1" source="oC9rU_n9ysh1uVX6l2-E-22" edge="1">
          <mxGeometry width="50" height="50" relative="1" as="geometry">
            <mxPoint x="150" y="330" as="sourcePoint" />
            <mxPoint x="150" y="340" as="targetPoint" />
          </mxGeometry>
        </mxCell>
        <mxCell id="oC9rU_n9ysh1uVX6l2-E-27" value="" style="endArrow=none;html=1;rounded=0;" parent="1" edge="1">
          <mxGeometry width="50" height="50" relative="1" as="geometry">
            <mxPoint x="150" y="260" as="sourcePoint" />
            <mxPoint x="150" y="280" as="targetPoint" />
          </mxGeometry>
        </mxCell>
        <mxCell id="oC9rU_n9ysh1uVX6l2-E-31" value="" style="endArrow=none;html=1;rounded=0;exitDx=0;exitDy=0;exitPerimeter=0;startArrow=none;" parent="1" edge="1">
          <mxGeometry width="50" height="50" relative="1" as="geometry">
            <mxPoint x="210" y="340" as="sourcePoint" />
            <mxPoint x="220" y="340" as="targetPoint" />
          </mxGeometry>
        </mxCell>
        <mxCell id="oC9rU_n9ysh1uVX6l2-E-33" value="" style="endArrow=none;html=1;rounded=0;" parent="1" edge="1">
          <mxGeometry width="50" height="50" relative="1" as="geometry">
            <mxPoint x="200" y="300" as="sourcePoint" />
            <mxPoint x="220" y="300" as="targetPoint" />
          </mxGeometry>
        </mxCell>
        <mxCell id="oC9rU_n9ysh1uVX6l2-E-35" value="" style="endArrow=none;html=1;rounded=0;entryX=0;entryY=0.5;entryDx=0;entryDy=0;entryPerimeter=0;" parent="1" target="oC9rU_n9ysh1uVX6l2-E-56" edge="1">
          <mxGeometry width="50" height="50" relative="1" as="geometry">
            <mxPoint x="210" y="340" as="sourcePoint" />
            <mxPoint x="210" y="350" as="targetPoint" />
          </mxGeometry>
        </mxCell>
        <mxCell id="oC9rU_n9ysh1uVX6l2-E-37" value="" style="endArrow=none;html=1;rounded=0;exitX=1;exitY=0.5;exitDx=0;exitDy=0;exitPerimeter=0;" parent="1" source="oC9rU_n9ysh1uVX6l2-E-3" edge="1">
          <mxGeometry width="50" height="50" relative="1" as="geometry">
            <mxPoint x="240" y="340" as="sourcePoint" />
            <mxPoint x="210" y="340" as="targetPoint" />
          </mxGeometry>
        </mxCell>
        <mxCell id="oC9rU_n9ysh1uVX6l2-E-40" value="" style="pointerEvents=1;verticalLabelPosition=bottom;shadow=0;dashed=0;align=center;html=1;verticalAlign=top;shape=mxgraph.electrical.signal_sources.signal_ground;" parent="1" vertex="1">
          <mxGeometry x="200" y="400" width="20" height="20" as="geometry" />
        </mxCell>
        <mxCell id="oC9rU_n9ysh1uVX6l2-E-42" value="" style="endArrow=none;html=1;rounded=0;startArrow=none;" parent="1" edge="1">
          <mxGeometry width="50" height="50" relative="1" as="geometry">
            <mxPoint x="290" y="320" as="sourcePoint" />
            <mxPoint x="290" y="260" as="targetPoint" />
          </mxGeometry>
        </mxCell>
        <mxCell id="oC9rU_n9ysh1uVX6l2-E-44" value="" style="endArrow=none;html=1;rounded=0;" parent="1" target="oC9rU_n9ysh1uVX6l2-E-61" edge="1">
          <mxGeometry width="50" height="50" relative="1" as="geometry">
            <mxPoint x="150" y="260" as="sourcePoint" />
            <mxPoint x="290" y="270" as="targetPoint" />
          </mxGeometry>
        </mxCell>
        <mxCell id="oC9rU_n9ysh1uVX6l2-E-46" value="" style="endArrow=none;html=1;rounded=0;exitDx=0;exitDy=0;exitPerimeter=0;startArrow=none;" parent="1" source="oC9rU_n9ysh1uVX6l2-E-66" edge="1">
          <mxGeometry width="50" height="50" relative="1" as="geometry">
            <mxPoint x="290" y="320" as="sourcePoint" />
            <mxPoint x="300" y="320" as="targetPoint" />
          </mxGeometry>
        </mxCell>
        <mxCell id="oC9rU_n9ysh1uVX6l2-E-49" value="" style="endArrow=none;html=1;rounded=0;exitX=1;exitY=0.5;exitDx=0;exitDy=0;exitPerimeter=0;" parent="1" edge="1">
          <mxGeometry width="50" height="50" relative="1" as="geometry">
            <mxPoint x="340.0000000000001" y="320" as="sourcePoint" />
            <mxPoint x="380" y="320" as="targetPoint" />
          </mxGeometry>
        </mxCell>
        <mxCell id="oC9rU_n9ysh1uVX6l2-E-55" value="" style="endArrow=none;html=1;rounded=0;startArrow=none;entryX=1;entryY=0.486;entryDx=0;entryDy=0;entryPerimeter=0;" parent="1" edge="1">
          <mxGeometry width="50" height="50" relative="1" as="geometry">
            <mxPoint x="150" y="340" as="sourcePoint" />
            <mxPoint x="140" y="340" as="targetPoint" />
            <Array as="points">
              <mxPoint x="150" y="340" />
            </Array>
          </mxGeometry>
        </mxCell>
        <mxCell id="oC9rU_n9ysh1uVX6l2-E-56" value="&lt;b&gt;100pF&lt;/b&gt;" style="pointerEvents=1;verticalLabelPosition=top;shadow=0;dashed=0;align=left;html=1;verticalAlign=bottom;shape=mxgraph.electrical.capacitors.capacitor_1;rotation=90;spacingRight=0;spacingTop=0;labelPosition=right;direction=east;spacingLeft=-31;spacing=1;" parent="1" vertex="1">
          <mxGeometry x="193.75" y="365" width="32.5" height="20" as="geometry" />
        </mxCell>
        <mxCell id="oC9rU_n9ysh1uVX6l2-E-58" value="" style="endArrow=none;html=1;rounded=0;startArrow=none;entryDx=0;entryDy=0;entryPerimeter=0;" parent="1" edge="1">
          <mxGeometry width="50" height="50" relative="1" as="geometry">
            <mxPoint x="140" y="340" as="sourcePoint" />
            <mxPoint x="150" y="340" as="targetPoint" />
            <Array as="points" />
          </mxGeometry>
        </mxCell>
        <mxCell id="oC9rU_n9ysh1uVX6l2-E-60" value="" style="endArrow=none;html=1;rounded=0;exitX=1;exitY=0.5;exitDx=0;exitDy=0;exitPerimeter=0;entryX=0.5;entryY=0;entryDx=0;entryDy=0;entryPerimeter=0;" parent="1" source="oC9rU_n9ysh1uVX6l2-E-56" target="oC9rU_n9ysh1uVX6l2-E-40" edge="1">
          <mxGeometry width="50" height="50" relative="1" as="geometry">
            <mxPoint x="160" y="280" as="sourcePoint" />
            <mxPoint x="160" y="313.75" as="targetPoint" />
          </mxGeometry>
        </mxCell>
        <mxCell id="oC9rU_n9ysh1uVX6l2-E-61" value="" style="shape=waypoint;sketch=0;fillStyle=solid;size=6;pointerEvents=1;points=[];fillColor=none;resizable=0;rotatable=0;perimeter=centerPerimeter;snapToPoint=1;" parent="1" vertex="1">
          <mxGeometry x="180" y="240" width="40" height="40" as="geometry" />
        </mxCell>
        <mxCell id="oC9rU_n9ysh1uVX6l2-E-62" value="" style="endArrow=none;html=1;rounded=0;" parent="1" target="oC9rU_n9ysh1uVX6l2-E-61" edge="1">
          <mxGeometry width="50" height="50" relative="1" as="geometry">
            <mxPoint x="200" y="270" as="sourcePoint" />
            <mxPoint x="200" y="300" as="targetPoint" />
          </mxGeometry>
        </mxCell>
        <mxCell id="oC9rU_n9ysh1uVX6l2-E-64" value="" style="endArrow=none;html=1;rounded=0;" parent="1" edge="1">
          <mxGeometry width="50" height="50" relative="1" as="geometry">
            <mxPoint x="310" y="319.3299999999999" as="sourcePoint" />
            <mxPoint x="310" y="320" as="targetPoint" />
          </mxGeometry>
        </mxCell>
        <mxCell id="oC9rU_n9ysh1uVX6l2-E-65" value="&lt;b&gt;51kΩ&lt;/b&gt;" style="pointerEvents=1;verticalLabelPosition=bottom;shadow=0;dashed=0;align=center;html=1;verticalAlign=top;shape=mxgraph.electrical.resistors.resistor_2;" parent="1" vertex="1">
          <mxGeometry x="300" y="310" width="40" height="20" as="geometry" />
        </mxCell>
        <mxCell id="oC9rU_n9ysh1uVX6l2-E-66" value="" style="shape=waypoint;sketch=0;fillStyle=solid;size=6;pointerEvents=1;points=[];fillColor=none;resizable=0;rotatable=0;perimeter=centerPerimeter;snapToPoint=1;" parent="1" vertex="1">
          <mxGeometry x="270" y="300" width="40" height="40" as="geometry" />
        </mxCell>
        <mxCell id="oC9rU_n9ysh1uVX6l2-E-67" value="" style="endArrow=none;html=1;rounded=0;exitX=1;exitY=0.5;exitDx=0;exitDy=0;exitPerimeter=0;" parent="1" source="oC9rU_n9ysh1uVX6l2-E-25" target="oC9rU_n9ysh1uVX6l2-E-66" edge="1">
          <mxGeometry width="50" height="50" relative="1" as="geometry">
            <mxPoint x="280" y="320" as="sourcePoint" />
            <mxPoint x="300" y="320" as="targetPoint" />
          </mxGeometry>
        </mxCell>
        <mxCell id="oC9rU_n9ysh1uVX6l2-E-71" value="" style="pointerEvents=1;verticalLabelPosition=bottom;shadow=0;dashed=0;align=center;html=1;verticalAlign=top;shape=mxgraph.electrical.signal_sources.signal_ground;" parent="1" vertex="1">
          <mxGeometry x="441" y="670" width="20" height="20" as="geometry" />
        </mxCell>
        <mxCell id="oC9rU_n9ysh1uVX6l2-E-72" value="&lt;b&gt;4.7nF&lt;/b&gt;" style="pointerEvents=1;verticalLabelPosition=bottom;shadow=0;dashed=0;align=center;html=1;verticalAlign=middle;shape=mxgraph.electrical.capacitors.capacitor_1;rotation=90;spacingRight=0;spacingTop=-5;labelPosition=center;direction=east;spacingLeft=-17;spacing=2;" parent="1" vertex="1">
          <mxGeometry x="340" y="365" width="32.5" height="20" as="geometry" />
        </mxCell>
        <mxCell id="oC9rU_n9ysh1uVX6l2-E-75" value="" style="shape=waypoint;sketch=0;fillStyle=solid;size=6;pointerEvents=1;points=[];fillColor=none;resizable=0;rotatable=0;perimeter=centerPerimeter;snapToPoint=1;" parent="1" vertex="1">
          <mxGeometry x="130" y="320" width="40" height="40" as="geometry" />
        </mxCell>
        <mxCell id="oC9rU_n9ysh1uVX6l2-E-76" value="" style="endArrow=none;html=1;rounded=0;startArrow=none;entryDx=0;entryDy=0;entryPerimeter=0;" parent="1" target="oC9rU_n9ysh1uVX6l2-E-75" edge="1">
          <mxGeometry width="50" height="50" relative="1" as="geometry">
            <mxPoint x="150" y="340" as="sourcePoint" />
            <mxPoint x="150" y="340" as="targetPoint" />
            <Array as="points" />
          </mxGeometry>
        </mxCell>
        <mxCell id="oC9rU_n9ysh1uVX6l2-E-78" value="" style="endArrow=none;html=1;rounded=0;entryX=0;entryY=0.5;entryDx=0;entryDy=0;entryPerimeter=0;" parent="1" target="oC9rU_n9ysh1uVX6l2-E-72" edge="1">
          <mxGeometry width="50" height="50" relative="1" as="geometry">
            <mxPoint x="356" y="320" as="sourcePoint" />
            <mxPoint x="110" y="200" as="targetPoint" />
          </mxGeometry>
        </mxCell>
        <mxCell id="oC9rU_n9ysh1uVX6l2-E-79" value="" style="shape=waypoint;sketch=0;fillStyle=solid;size=6;pointerEvents=1;points=[];fillColor=none;resizable=0;rotatable=0;perimeter=centerPerimeter;snapToPoint=1;" parent="1" vertex="1">
          <mxGeometry x="336.25" y="300" width="40" height="40" as="geometry" />
        </mxCell>
        <mxCell id="oC9rU_n9ysh1uVX6l2-E-80" value="" style="pointerEvents=1;verticalLabelPosition=bottom;shadow=0;dashed=0;align=center;html=1;verticalAlign=top;shape=mxgraph.electrical.signal_sources.signal_ground;" parent="1" vertex="1">
          <mxGeometry x="346.25" y="400" width="20" height="20" as="geometry" />
        </mxCell>
        <mxCell id="oC9rU_n9ysh1uVX6l2-E-81" value="" style="endArrow=none;html=1;rounded=0;exitX=1;exitY=0.5;exitDx=0;exitDy=0;exitPerimeter=0;entryX=0.5;entryY=0;entryDx=0;entryDy=0;entryPerimeter=0;" parent="1" source="oC9rU_n9ysh1uVX6l2-E-72" target="oC9rU_n9ysh1uVX6l2-E-80" edge="1">
          <mxGeometry width="50" height="50" relative="1" as="geometry">
            <mxPoint x="356.25" y="406.2500000000001" as="sourcePoint" />
            <mxPoint x="306.25" y="313.75" as="targetPoint" />
          </mxGeometry>
        </mxCell>
        <mxCell id="oC9rU_n9ysh1uVX6l2-E-83" value="&lt;b style=&quot;font-size: 11px&quot;&gt;OPA333&lt;/b&gt;" style="verticalLabelPosition=middle;shadow=0;dashed=0;align=center;html=1;verticalAlign=middle;shape=mxgraph.electrical.abstract.operational_amp_1;rotation=0;spacingTop=0;labelPosition=center;fontSize=11;spacingLeft=0;spacingRight=5;" parent="1" vertex="1">
          <mxGeometry x="378" y="270" width="60" height="60" as="geometry" />
        </mxCell>
        <mxCell id="oC9rU_n9ysh1uVX6l2-E-90" value="" style="endArrow=none;html=1;rounded=0;startArrow=none;" parent="1" edge="1">
          <mxGeometry width="50" height="50" relative="1" as="geometry">
            <mxPoint x="358" y="260" as="sourcePoint" />
            <mxPoint x="358" y="280" as="targetPoint" />
          </mxGeometry>
        </mxCell>
        <mxCell id="oC9rU_n9ysh1uVX6l2-E-91" value="" style="endArrow=none;html=1;rounded=0;" parent="1" edge="1">
          <mxGeometry width="50" height="50" relative="1" as="geometry">
            <mxPoint x="358" y="280" as="sourcePoint" />
            <mxPoint x="378" y="280" as="targetPoint" />
          </mxGeometry>
        </mxCell>
        <mxCell id="oC9rU_n9ysh1uVX6l2-E-92" value="" style="endArrow=none;html=1;rounded=0;startArrow=none;" parent="1" edge="1">
          <mxGeometry width="50" height="50" relative="1" as="geometry">
            <mxPoint x="448" y="300" as="sourcePoint" />
            <mxPoint x="448" y="260" as="targetPoint" />
          </mxGeometry>
        </mxCell>
        <mxCell id="oC9rU_n9ysh1uVX6l2-E-93" value="" style="endArrow=none;html=1;rounded=0;exitDx=0;exitDy=0;exitPerimeter=0;startArrow=none;" parent="1" source="oC9rU_n9ysh1uVX6l2-E-98" edge="1">
          <mxGeometry width="50" height="50" relative="1" as="geometry">
            <mxPoint x="448" y="300" as="sourcePoint" />
            <mxPoint x="458" y="300" as="targetPoint" />
          </mxGeometry>
        </mxCell>
        <mxCell id="oC9rU_n9ysh1uVX6l2-E-94" value="" style="endArrow=none;html=1;rounded=0;" parent="1" edge="1">
          <mxGeometry width="50" height="50" relative="1" as="geometry">
            <mxPoint x="358" y="250" as="sourcePoint" />
            <mxPoint x="358" y="250" as="targetPoint" />
          </mxGeometry>
        </mxCell>
        <mxCell id="oC9rU_n9ysh1uVX6l2-E-95" value="" style="endArrow=none;html=1;rounded=0;" parent="1" edge="1">
          <mxGeometry width="50" height="50" relative="1" as="geometry">
            <mxPoint x="468" y="299.3299999999999" as="sourcePoint" />
            <mxPoint x="468" y="300" as="targetPoint" />
          </mxGeometry>
        </mxCell>
        <mxCell id="oC9rU_n9ysh1uVX6l2-E-96" value="" style="endArrow=none;html=1;rounded=0;exitX=1;exitY=0.5;exitDx=0;exitDy=0;exitPerimeter=0;" parent="1" edge="1">
          <mxGeometry width="50" height="50" relative="1" as="geometry">
            <mxPoint x="438" y="300" as="sourcePoint" />
            <mxPoint x="448" y="300" as="targetPoint" />
          </mxGeometry>
        </mxCell>
        <mxCell id="oC9rU_n9ysh1uVX6l2-E-97" value="" style="endArrow=none;html=1;rounded=0;" parent="1" edge="1">
          <mxGeometry width="50" height="50" relative="1" as="geometry">
            <mxPoint x="358" y="259.78" as="sourcePoint" />
            <mxPoint x="448" y="259.78" as="targetPoint" />
          </mxGeometry>
        </mxCell>
        <mxCell id="oC9rU_n9ysh1uVX6l2-E-98" value="" style="shape=waypoint;sketch=0;fillStyle=solid;size=6;pointerEvents=1;points=[];fillColor=none;resizable=0;rotatable=0;perimeter=centerPerimeter;snapToPoint=1;" parent="1" vertex="1">
          <mxGeometry x="428" y="280" width="40" height="40" as="geometry" />
        </mxCell>
        <mxCell id="oC9rU_n9ysh1uVX6l2-E-99" value="" style="endArrow=none;html=1;rounded=0;exitDx=0;exitDy=0;exitPerimeter=0;startArrow=none;" parent="1" target="oC9rU_n9ysh1uVX6l2-E-98" edge="1">
          <mxGeometry width="50" height="50" relative="1" as="geometry">
            <mxPoint x="448" y="300" as="sourcePoint" />
            <mxPoint x="458" y="300" as="targetPoint" />
          </mxGeometry>
        </mxCell>
        <mxCell id="oC9rU_n9ysh1uVX6l2-E-102" value="" style="endArrow=none;html=1;rounded=0;" parent="1" edge="1">
          <mxGeometry width="50" height="50" relative="1" as="geometry">
            <mxPoint x="200" y="259.78" as="sourcePoint" />
            <mxPoint x="290" y="260" as="targetPoint" />
          </mxGeometry>
        </mxCell>
        <mxCell id="oC9rU_n9ysh1uVX6l2-E-103" value="&lt;b&gt;10Ω&lt;/b&gt;" style="pointerEvents=1;verticalLabelPosition=bottom;shadow=0;dashed=0;align=center;html=1;verticalAlign=top;shape=mxgraph.electrical.resistors.resistor_2;" parent="1" vertex="1">
          <mxGeometry x="460" y="290" width="40" height="20" as="geometry" />
        </mxCell>
        <mxCell id="oC9rU_n9ysh1uVX6l2-E-104" value="" style="endArrow=none;html=1;rounded=0;entryX=0;entryY=0.5;entryDx=0;entryDy=0;entryPerimeter=0;" parent="1" source="oC9rU_n9ysh1uVX6l2-E-98" target="oC9rU_n9ysh1uVX6l2-E-103" edge="1">
          <mxGeometry width="50" height="50" relative="1" as="geometry">
            <mxPoint x="60" y="200" as="sourcePoint" />
            <mxPoint x="110" y="200" as="targetPoint" />
          </mxGeometry>
        </mxCell>
        <mxCell id="oC9rU_n9ysh1uVX6l2-E-105" value="" style="endArrow=none;html=1;rounded=0;exitX=1;exitY=0.5;exitDx=0;exitDy=0;exitPerimeter=0;entryX=1;entryY=0.5;entryDx=0;entryDy=0;entryPerimeter=0;" parent="1" source="oC9rU_n9ysh1uVX6l2-E-103" target="oC9rU_n9ysh1uVX6l2-E-106" edge="1">
          <mxGeometry width="50" height="50" relative="1" as="geometry">
            <mxPoint x="500" y="330" as="sourcePoint" />
            <mxPoint x="510" y="329.53" as="targetPoint" />
          </mxGeometry>
        </mxCell>
        <mxCell id="oC9rU_n9ysh1uVX6l2-E-106" value="&lt;b&gt;10nF&lt;/b&gt;" style="pointerEvents=1;verticalLabelPosition=bottom;shadow=0;dashed=0;align=center;html=1;verticalAlign=middle;shape=mxgraph.electrical.capacitors.capacitor_1;rotation=0;spacingRight=0;spacingTop=8;labelPosition=center;direction=west;spacingLeft=0;spacing=2;" parent="1" vertex="1">
          <mxGeometry x="510" y="290" width="32.5" height="20" as="geometry" />
        </mxCell>
        <mxCell id="oC9rU_n9ysh1uVX6l2-E-107" value="" style="endArrow=none;html=1;rounded=0;exitX=0;exitY=0.5;exitDx=0;exitDy=0;exitPerimeter=0;" parent="1" source="oC9rU_n9ysh1uVX6l2-E-106" edge="1">
          <mxGeometry width="50" height="50" relative="1" as="geometry">
            <mxPoint x="560" y="300" as="sourcePoint" />
            <mxPoint x="610" y="300" as="targetPoint" />
          </mxGeometry>
        </mxCell>
        <mxCell id="oC9rU_n9ysh1uVX6l2-E-108" value="" style="endArrow=none;html=1;rounded=0;startArrow=none;entryX=1;entryY=0.5;entryDx=0;entryDy=0;entryPerimeter=0;" parent="1" target="oC9rU_n9ysh1uVX6l2-E-127" edge="1">
          <mxGeometry width="50" height="50" relative="1" as="geometry">
            <mxPoint x="743" y="510" as="sourcePoint" />
            <mxPoint x="731.75" y="509.81999999999994" as="targetPoint" />
          </mxGeometry>
        </mxCell>
        <mxCell id="oC9rU_n9ysh1uVX6l2-E-109" value="" style="endArrow=none;html=1;rounded=0;" parent="1" edge="1">
          <mxGeometry width="50" height="50" relative="1" as="geometry">
            <mxPoint x="610" y="430" as="sourcePoint" />
            <mxPoint x="40" y="430" as="targetPoint" />
          </mxGeometry>
        </mxCell>
        <mxCell id="oC9rU_n9ysh1uVX6l2-E-110" value="" style="endArrow=none;html=1;rounded=0;" parent="1" edge="1">
          <mxGeometry width="50" height="50" relative="1" as="geometry">
            <mxPoint x="40" y="830" as="sourcePoint" />
            <mxPoint x="40" y="430" as="targetPoint" />
          </mxGeometry>
        </mxCell>
        <mxCell id="oC9rU_n9ysh1uVX6l2-E-113" value="&lt;b&gt;10nF&lt;/b&gt;" style="pointerEvents=1;verticalLabelPosition=bottom;shadow=0;dashed=0;align=center;html=1;verticalAlign=middle;shape=mxgraph.electrical.capacitors.capacitor_1;rotation=0;spacingRight=0;spacingTop=-5;labelPosition=center;direction=east;spacingLeft=-17;spacing=2;" parent="1" vertex="1">
          <mxGeometry x="126.75" y="560" width="32.5" height="20" as="geometry" />
        </mxCell>
        <mxCell id="oC9rU_n9ysh1uVX6l2-E-114" value="&lt;b&gt;5kΩ&lt;/b&gt;" style="pointerEvents=1;verticalLabelPosition=bottom;shadow=0;dashed=0;align=center;html=1;verticalAlign=top;shape=mxgraph.electrical.resistors.resistor_2;rotation=90;" parent="1" vertex="1">
          <mxGeometry x="143" y="610" width="40" height="20" as="geometry" />
        </mxCell>
        <mxCell id="oC9rU_n9ysh1uVX6l2-E-115" value="&lt;b&gt;LT1818&lt;/b&gt;" style="verticalLabelPosition=middle;shadow=0;dashed=0;align=center;html=1;verticalAlign=middle;shape=mxgraph.electrical.abstract.operational_amp_1;rotation=0;labelPosition=center;spacingRight=7;" parent="1" vertex="1">
          <mxGeometry x="193" y="520" width="60" height="60" as="geometry" />
        </mxCell>
        <mxCell id="oC9rU_n9ysh1uVX6l2-E-116" value="&lt;b&gt;10Ω&lt;/b&gt;" style="pointerEvents=1;verticalLabelPosition=bottom;shadow=0;dashed=0;align=center;html=1;verticalAlign=top;shape=mxgraph.electrical.resistors.resistor_2;" parent="1" vertex="1">
          <mxGeometry x="273" y="540" width="40" height="20" as="geometry" />
        </mxCell>
        <mxCell id="oC9rU_n9ysh1uVX6l2-E-117" value="&lt;b&gt;10nF&lt;/b&gt;" style="pointerEvents=1;verticalLabelPosition=bottom;shadow=0;dashed=0;align=center;html=1;verticalAlign=middle;shape=mxgraph.electrical.capacitors.capacitor_1;rotation=0;spacingRight=0;spacingTop=6;labelPosition=center;direction=east;spacingLeft=0;spacing=2;" parent="1" vertex="1">
          <mxGeometry x="323" y="540" width="32.5" height="20" as="geometry" />
        </mxCell>
        <mxCell id="oC9rU_n9ysh1uVX6l2-E-118" value="100k&lt;span&gt;Ω&lt;/span&gt;" style="pointerEvents=1;verticalLabelPosition=bottom;shadow=0;dashed=0;align=center;html=1;verticalAlign=top;shape=mxgraph.electrical.resistors.resistor_2;rotation=90;fontStyle=1" parent="1" vertex="1">
          <mxGeometry x="343" y="610" width="40" height="20" as="geometry" />
        </mxCell>
        <mxCell id="oC9rU_n9ysh1uVX6l2-E-120" value="&lt;b&gt;10kΩ&lt;/b&gt;" style="pointerEvents=1;verticalLabelPosition=bottom;shadow=0;dashed=0;align=center;html=1;verticalAlign=top;shape=mxgraph.electrical.resistors.resistor_2;rotation=90;spacingTop=-4;" parent="1" vertex="1">
          <mxGeometry x="403.5" y="610" width="40" height="20" as="geometry" />
        </mxCell>
        <mxCell id="oC9rU_n9ysh1uVX6l2-E-121" value="&lt;b&gt;1µF&lt;/b&gt;" style="pointerEvents=1;verticalLabelPosition=bottom;shadow=0;dashed=0;align=center;html=1;verticalAlign=middle;shape=mxgraph.electrical.capacitors.capacitor_1;rotation=90;spacingRight=0;spacingTop=-2;labelPosition=center;direction=east;spacingLeft=0;spacing=2;" parent="1" vertex="1">
          <mxGeometry x="466.75" y="610" width="32.5" height="20" as="geometry" />
        </mxCell>
        <mxCell id="oC9rU_n9ysh1uVX6l2-E-122" value="&lt;b&gt;1kΩ&lt;/b&gt;" style="pointerEvents=1;verticalLabelPosition=bottom;shadow=0;dashed=0;align=center;html=1;verticalAlign=top;shape=mxgraph.electrical.resistors.resistor_2;rotation=90;" parent="1" vertex="1">
          <mxGeometry x="361" y="500" width="40" height="20" as="geometry" />
        </mxCell>
        <mxCell id="oC9rU_n9ysh1uVX6l2-E-124" value="&lt;b&gt;75kΩ&lt;/b&gt;" style="pointerEvents=1;verticalLabelPosition=bottom;shadow=0;dashed=0;align=center;html=1;verticalAlign=top;shape=mxgraph.electrical.resistors.resistor_2;" parent="1" vertex="1">
          <mxGeometry x="545.5" y="520" width="40" height="20" as="geometry" />
        </mxCell>
        <mxCell id="oC9rU_n9ysh1uVX6l2-E-125" value="&lt;b&gt;75kΩ&lt;/b&gt;" style="pointerEvents=1;verticalLabelPosition=bottom;shadow=0;dashed=0;align=center;html=1;verticalAlign=top;shape=mxgraph.electrical.resistors.resistor_2;" parent="1" vertex="1">
          <mxGeometry x="603" y="520" width="40" height="20" as="geometry" />
        </mxCell>
        <mxCell id="oC9rU_n9ysh1uVX6l2-E-127" value="&lt;div&gt;&lt;b&gt;OPA2349&lt;br&gt;&lt;/b&gt;&lt;/div&gt;" style="verticalLabelPosition=middle;shadow=0;dashed=0;align=center;html=1;verticalAlign=middle;shape=mxgraph.electrical.abstract.operational_amp_1;rotation=0;labelPosition=center;spacing=2;spacingRight=4;" parent="1" vertex="1">
          <mxGeometry x="665.5" y="480" width="60" height="60" as="geometry" />
        </mxCell>
        <mxCell id="oC9rU_n9ysh1uVX6l2-E-129" value="" style="endArrow=none;html=1;rounded=0;exitX=0;exitY=0.5;exitDx=0;exitDy=0;exitPerimeter=0;" parent="1" source="oC9rU_n9ysh1uVX6l2-E-113" edge="1">
          <mxGeometry width="50" height="50" relative="1" as="geometry">
            <mxPoint x="173" y="670" as="sourcePoint" />
            <mxPoint x="40" y="570" as="targetPoint" />
          </mxGeometry>
        </mxCell>
        <mxCell id="oC9rU_n9ysh1uVX6l2-E-130" value="" style="pointerEvents=1;verticalLabelPosition=bottom;shadow=0;dashed=0;align=center;html=1;verticalAlign=top;shape=mxgraph.electrical.signal_sources.signal_ground;rotation=-180;" parent="1" vertex="1">
          <mxGeometry x="371" y="450" width="20" height="20" as="geometry" />
        </mxCell>
        <mxCell id="oC9rU_n9ysh1uVX6l2-E-131" value="" style="endArrow=none;html=1;rounded=0;entryX=1;entryY=0.5;entryDx=0;entryDy=0;entryPerimeter=0;" parent="1" target="oC9rU_n9ysh1uVX6l2-E-113" edge="1">
          <mxGeometry width="50" height="50" relative="1" as="geometry">
            <mxPoint x="193" y="570" as="sourcePoint" />
            <mxPoint x="73" y="580" as="targetPoint" />
          </mxGeometry>
        </mxCell>
        <mxCell id="oC9rU_n9ysh1uVX6l2-E-132" value="" style="endArrow=none;html=1;rounded=0;" parent="1" edge="1">
          <mxGeometry width="50" height="50" relative="1" as="geometry">
            <mxPoint x="193" y="530" as="sourcePoint" />
            <mxPoint x="183" y="530" as="targetPoint" />
          </mxGeometry>
        </mxCell>
        <mxCell id="oC9rU_n9ysh1uVX6l2-E-134" value="" style="endArrow=none;html=1;rounded=0;exitDx=0;exitDy=0;exitPerimeter=0;startArrow=none;" parent="1" source="oC9rU_n9ysh1uVX6l2-E-179" edge="1">
          <mxGeometry width="50" height="50" relative="1" as="geometry">
            <mxPoint x="146.7500000000001" y="580" as="sourcePoint" />
            <mxPoint x="173" y="570" as="targetPoint" />
          </mxGeometry>
        </mxCell>
        <mxCell id="oC9rU_n9ysh1uVX6l2-E-135" value="" style="endArrow=none;html=1;rounded=0;" parent="1" edge="1">
          <mxGeometry width="50" height="50" relative="1" as="geometry">
            <mxPoint x="183" y="530" as="sourcePoint" />
            <mxPoint x="183" y="510" as="targetPoint" />
          </mxGeometry>
        </mxCell>
        <mxCell id="oC9rU_n9ysh1uVX6l2-E-136" value="" style="endArrow=none;html=1;rounded=0;" parent="1" edge="1">
          <mxGeometry width="50" height="50" relative="1" as="geometry">
            <mxPoint x="263" y="510" as="sourcePoint" />
            <mxPoint x="183" y="510" as="targetPoint" />
          </mxGeometry>
        </mxCell>
        <mxCell id="oC9rU_n9ysh1uVX6l2-E-137" value="" style="endArrow=none;html=1;rounded=0;" parent="1" edge="1">
          <mxGeometry width="50" height="50" relative="1" as="geometry">
            <mxPoint x="263" y="550" as="sourcePoint" />
            <mxPoint x="263" y="510" as="targetPoint" />
          </mxGeometry>
        </mxCell>
        <mxCell id="oC9rU_n9ysh1uVX6l2-E-138" value="" style="endArrow=none;html=1;rounded=0;entryX=1;entryY=0.5;entryDx=0;entryDy=0;entryPerimeter=0;startArrow=none;" parent="1" source="oC9rU_n9ysh1uVX6l2-E-181" target="oC9rU_n9ysh1uVX6l2-E-115" edge="1">
          <mxGeometry width="50" height="50" relative="1" as="geometry">
            <mxPoint x="273" y="550" as="sourcePoint" />
            <mxPoint x="193.0000000000001" y="539.9999999999999" as="targetPoint" />
          </mxGeometry>
        </mxCell>
        <mxCell id="oC9rU_n9ysh1uVX6l2-E-140" value="" style="endArrow=none;html=1;rounded=0;entryX=1;entryY=0.5;entryDx=0;entryDy=0;entryPerimeter=0;exitX=0;exitY=0.5;exitDx=0;exitDy=0;exitPerimeter=0;" parent="1" source="oC9rU_n9ysh1uVX6l2-E-117" target="oC9rU_n9ysh1uVX6l2-E-116" edge="1">
          <mxGeometry width="50" height="50" relative="1" as="geometry">
            <mxPoint x="273.0000000000001" y="519.9999999999999" as="sourcePoint" />
            <mxPoint x="193.0000000000001" y="519.9999999999999" as="targetPoint" />
          </mxGeometry>
        </mxCell>
        <mxCell id="oC9rU_n9ysh1uVX6l2-E-141" value="" style="endArrow=none;html=1;rounded=0;exitX=0;exitY=0.5;exitDx=0;exitDy=0;exitPerimeter=0;" parent="1" source="oC9rU_n9ysh1uVX6l2-E-118" edge="1">
          <mxGeometry width="50" height="50" relative="1" as="geometry">
            <mxPoint x="273.0000000000001" y="559.9999999999999" as="sourcePoint" />
            <mxPoint x="363" y="550" as="targetPoint" />
          </mxGeometry>
        </mxCell>
        <mxCell id="oC9rU_n9ysh1uVX6l2-E-142" value="" style="endArrow=none;html=1;rounded=0;entryX=1;entryY=0.5;entryDx=0;entryDy=0;entryPerimeter=0;startArrow=none;" parent="1" source="oC9rU_n9ysh1uVX6l2-E-183" target="oC9rU_n9ysh1uVX6l2-E-117" edge="1">
          <mxGeometry width="50" height="50" relative="1" as="geometry">
            <mxPoint x="383" y="550" as="sourcePoint" />
            <mxPoint x="193.0000000000001" y="519.9999999999999" as="targetPoint" />
          </mxGeometry>
        </mxCell>
        <mxCell id="oC9rU_n9ysh1uVX6l2-E-143" value="&lt;b&gt;&lt;font style=&quot;font-size: 12px&quot;&gt;V&lt;sub&gt;dd&lt;/sub&gt;&lt;/font&gt;&lt;/b&gt;" style="verticalLabelPosition=top;verticalAlign=bottom;shape=mxgraph.electrical.signal_sources.vdd;shadow=0;dashed=0;align=center;strokeWidth=1;fontSize=24;html=1;flipV=1;rotation=-90;" parent="1" vertex="1">
          <mxGeometry x="306.13" y="670" width="33.75" height="20" as="geometry" />
        </mxCell>
        <mxCell id="oC9rU_n9ysh1uVX6l2-E-144" value="" style="endArrow=none;html=1;rounded=0;exitX=0;exitY=0.5;exitDx=0;exitDy=0;exitPerimeter=0;" parent="1" source="oC9rU_n9ysh1uVX6l2-E-24" edge="1">
          <mxGeometry width="50" height="50" relative="1" as="geometry">
            <mxPoint x="383" y="570" as="sourcePoint" />
            <mxPoint x="379" y="550" as="targetPoint" />
          </mxGeometry>
        </mxCell>
        <mxCell id="oC9rU_n9ysh1uVX6l2-E-145" value="" style="endArrow=none;html=1;rounded=0;exitX=1;exitY=0.5;exitDx=0;exitDy=0;exitPerimeter=0;" parent="1" source="oC9rU_n9ysh1uVX6l2-E-122" edge="1">
          <mxGeometry width="50" height="50" relative="1" as="geometry">
            <mxPoint x="411" y="560" as="sourcePoint" />
            <mxPoint x="381" y="550" as="targetPoint" />
          </mxGeometry>
        </mxCell>
        <mxCell id="oC9rU_n9ysh1uVX6l2-E-146" value="" style="endArrow=none;html=1;rounded=0;exitX=0.5;exitY=0;exitDx=0;exitDy=0;exitPerimeter=0;entryX=0;entryY=0.5;entryDx=0;entryDy=0;entryPerimeter=0;" parent="1" source="oC9rU_n9ysh1uVX6l2-E-130" target="oC9rU_n9ysh1uVX6l2-E-122" edge="1">
          <mxGeometry width="50" height="50" relative="1" as="geometry">
            <mxPoint x="391" y="540" as="sourcePoint" />
            <mxPoint x="391" y="560" as="targetPoint" />
          </mxGeometry>
        </mxCell>
        <mxCell id="oC9rU_n9ysh1uVX6l2-E-148" value="" style="endArrow=none;html=1;rounded=0;entryX=1;entryY=0.5;entryDx=0;entryDy=0;entryPerimeter=0;exitX=0;exitY=0.835;exitDx=0;exitDy=0;exitPerimeter=0;" parent="1" source="oC9rU_n9ysh1uVX6l2-E-157" target="oC9rU_n9ysh1uVX6l2-E-24" edge="1">
          <mxGeometry width="50" height="50" relative="1" as="geometry">
            <mxPoint x="473" y="550" as="sourcePoint" />
            <mxPoint x="365.5" y="560" as="targetPoint" />
          </mxGeometry>
        </mxCell>
        <mxCell id="oC9rU_n9ysh1uVX6l2-E-149" value="" style="endArrow=none;html=1;rounded=0;" parent="1" edge="1">
          <mxGeometry width="50" height="50" relative="1" as="geometry">
            <mxPoint x="451" y="590" as="sourcePoint" />
            <mxPoint x="451" y="550" as="targetPoint" />
          </mxGeometry>
        </mxCell>
        <mxCell id="oC9rU_n9ysh1uVX6l2-E-150" value="" style="endArrow=none;html=1;rounded=0;" parent="1" edge="1">
          <mxGeometry width="50" height="50" relative="1" as="geometry">
            <mxPoint x="483" y="590" as="sourcePoint" />
            <mxPoint x="423" y="590" as="targetPoint" />
          </mxGeometry>
        </mxCell>
        <mxCell id="oC9rU_n9ysh1uVX6l2-E-151" value="" style="endArrow=none;html=1;rounded=0;exitX=0;exitY=0.5;exitDx=0;exitDy=0;exitPerimeter=0;" parent="1" source="oC9rU_n9ysh1uVX6l2-E-120" edge="1">
          <mxGeometry width="50" height="50" relative="1" as="geometry">
            <mxPoint x="423.25" y="595" as="sourcePoint" />
            <mxPoint x="423" y="590" as="targetPoint" />
          </mxGeometry>
        </mxCell>
        <mxCell id="oC9rU_n9ysh1uVX6l2-E-152" value="" style="endArrow=none;html=1;rounded=0;exitX=0;exitY=0.5;exitDx=0;exitDy=0;exitPerimeter=0;" parent="1" source="oC9rU_n9ysh1uVX6l2-E-121" edge="1">
          <mxGeometry width="50" height="50" relative="1" as="geometry">
            <mxPoint x="470.75" y="607.5" as="sourcePoint" />
            <mxPoint x="483" y="590" as="targetPoint" />
          </mxGeometry>
        </mxCell>
        <mxCell id="oC9rU_n9ysh1uVX6l2-E-154" value="" style="endArrow=none;html=1;rounded=0;entryX=1;entryY=0.5;entryDx=0;entryDy=0;entryPerimeter=0;" parent="1" target="oC9rU_n9ysh1uVX6l2-E-120" edge="1">
          <mxGeometry width="50" height="50" relative="1" as="geometry">
            <mxPoint x="424" y="650" as="sourcePoint" />
            <mxPoint x="423.36" y="645" as="targetPoint" />
          </mxGeometry>
        </mxCell>
        <mxCell id="oC9rU_n9ysh1uVX6l2-E-155" value="" style="endArrow=none;html=1;rounded=0;entryX=1;entryY=0.5;entryDx=0;entryDy=0;entryPerimeter=0;" parent="1" target="oC9rU_n9ysh1uVX6l2-E-121" edge="1">
          <mxGeometry width="50" height="50" relative="1" as="geometry">
            <mxPoint x="483" y="650" as="sourcePoint" />
            <mxPoint x="490.75" y="630" as="targetPoint" />
          </mxGeometry>
        </mxCell>
        <mxCell id="oC9rU_n9ysh1uVX6l2-E-156" value="" style="endArrow=none;html=1;rounded=0;" parent="1" edge="1">
          <mxGeometry width="50" height="50" relative="1" as="geometry">
            <mxPoint x="484" y="650" as="sourcePoint" />
            <mxPoint x="424" y="650" as="targetPoint" />
          </mxGeometry>
        </mxCell>
        <mxCell id="oC9rU_n9ysh1uVX6l2-E-157" value="&lt;b&gt;OPA333&lt;/b&gt;" style="verticalLabelPosition=middle;shadow=0;dashed=0;align=center;html=1;verticalAlign=middle;shape=mxgraph.electrical.abstract.operational_amp_1;rotation=0;labelPosition=center;spacingRight=7;" parent="1" vertex="1">
          <mxGeometry x="471" y="500" width="60" height="60" as="geometry" />
        </mxCell>
        <mxCell id="oC9rU_n9ysh1uVX6l2-E-159" value="&lt;div style=&quot;font-size: 12px&quot;&gt;&lt;b&gt;&lt;font style=&quot;font-size: 12px&quot;&gt;VBIAS&lt;/font&gt;&lt;/b&gt;&lt;/div&gt;" style="verticalLabelPosition=top;verticalAlign=bottom;shape=mxgraph.electrical.signal_sources.vdd;shadow=0;dashed=0;align=center;strokeWidth=1;fontSize=24;html=1;flipV=1;rotation=90;" parent="1" vertex="1">
          <mxGeometry x="183" y="670" width="33.75" height="20" as="geometry" />
        </mxCell>
        <mxCell id="oC9rU_n9ysh1uVX6l2-E-164" value="&lt;b&gt;0.22µF&lt;/b&gt;" style="pointerEvents=1;verticalLabelPosition=bottom;shadow=0;dashed=0;align=center;html=1;verticalAlign=middle;shape=mxgraph.electrical.capacitors.capacitor_1;rotation=90;spacingRight=0;spacingTop=8;labelPosition=center;direction=east;spacingLeft=0;spacing=2;" parent="1" vertex="1">
          <mxGeometry x="573" y="480" width="32.5" height="20" as="geometry" />
        </mxCell>
        <mxCell id="oC9rU_n9ysh1uVX6l2-E-165" value="&lt;b&gt;0.1µF&lt;/b&gt;" style="pointerEvents=1;verticalLabelPosition=bottom;shadow=0;dashed=0;align=center;html=1;verticalAlign=middle;shape=mxgraph.electrical.capacitors.capacitor_1;rotation=90;spacingRight=0;spacingTop=8;labelPosition=center;direction=east;spacingLeft=0;spacing=2;" parent="1" vertex="1">
          <mxGeometry x="639.25" y="580" width="32.5" height="20" as="geometry" />
        </mxCell>
        <mxCell id="oC9rU_n9ysh1uVX6l2-E-166" value="" style="endArrow=none;html=1;rounded=0;entryX=1;entryY=0.5;entryDx=0;entryDy=0;entryPerimeter=0;exitX=0;exitY=0.5;exitDx=0;exitDy=0;exitPerimeter=0;" parent="1" source="oC9rU_n9ysh1uVX6l2-E-125" target="oC9rU_n9ysh1uVX6l2-E-124" edge="1">
          <mxGeometry width="50" height="50" relative="1" as="geometry">
            <mxPoint x="603" y="530" as="sourcePoint" />
            <mxPoint x="593" y="530" as="targetPoint" />
          </mxGeometry>
        </mxCell>
        <mxCell id="oC9rU_n9ysh1uVX6l2-E-167" value="" style="endArrow=none;html=1;rounded=0;entryX=1;entryY=0.5;entryDx=0;entryDy=0;entryPerimeter=0;" parent="1" target="oC9rU_n9ysh1uVX6l2-E-164" edge="1">
          <mxGeometry width="50" height="50" relative="1" as="geometry">
            <mxPoint x="589" y="530" as="sourcePoint" />
            <mxPoint x="601.75" y="540" as="targetPoint" />
          </mxGeometry>
        </mxCell>
        <mxCell id="oC9rU_n9ysh1uVX6l2-E-168" value="" style="endArrow=none;html=1;rounded=0;entryX=1;entryY=0.5;entryDx=0;entryDy=0;entryPerimeter=0;exitX=0;exitY=0.835;exitDx=0;exitDy=0;exitPerimeter=0;" parent="1" source="oC9rU_n9ysh1uVX6l2-E-127" target="oC9rU_n9ysh1uVX6l2-E-125" edge="1">
          <mxGeometry width="50" height="50" relative="1" as="geometry">
            <mxPoint x="609" y="540" as="sourcePoint" />
            <mxPoint x="609.25" y="526.25" as="targetPoint" />
          </mxGeometry>
        </mxCell>
        <mxCell id="oC9rU_n9ysh1uVX6l2-E-169" value="" style="endArrow=none;html=1;rounded=0;exitDx=0;exitDy=0;exitPerimeter=0;startArrow=none;" parent="1" source="oC9rU_n9ysh1uVX6l2-E-188" edge="1">
          <mxGeometry width="50" height="50" relative="1" as="geometry">
            <mxPoint x="681.75" y="540.1" as="sourcePoint" />
            <mxPoint x="656" y="530" as="targetPoint" />
          </mxGeometry>
        </mxCell>
        <mxCell id="oC9rU_n9ysh1uVX6l2-E-170" value="" style="pointerEvents=1;verticalLabelPosition=bottom;shadow=0;dashed=0;align=center;html=1;verticalAlign=top;shape=mxgraph.electrical.signal_sources.signal_ground;" parent="1" vertex="1">
          <mxGeometry x="645.5" y="610" width="20" height="20" as="geometry" />
        </mxCell>
        <mxCell id="oC9rU_n9ysh1uVX6l2-E-171" value="" style="endArrow=none;html=1;rounded=0;exitX=0.5;exitY=0;exitDx=0;exitDy=0;exitPerimeter=0;entryX=1;entryY=0.5;entryDx=0;entryDy=0;entryPerimeter=0;" parent="1" source="oC9rU_n9ysh1uVX6l2-E-170" target="oC9rU_n9ysh1uVX6l2-E-165" edge="1">
          <mxGeometry width="50" height="50" relative="1" as="geometry">
            <mxPoint x="463.5" y="670" as="sourcePoint" />
            <mxPoint x="464" y="660" as="targetPoint" />
          </mxGeometry>
        </mxCell>
        <mxCell id="oC9rU_n9ysh1uVX6l2-E-173" value="" style="endArrow=none;html=1;rounded=0;entryX=0;entryY=0.5;entryDx=0;entryDy=0;entryPerimeter=0;startArrow=none;" parent="1" target="oC9rU_n9ysh1uVX6l2-E-164" edge="1">
          <mxGeometry width="50" height="50" relative="1" as="geometry">
            <mxPoint x="643" y="460" as="sourcePoint" />
            <mxPoint x="540.5" y="460.07000000000005" as="targetPoint" />
            <Array as="points">
              <mxPoint x="589" y="460" />
            </Array>
          </mxGeometry>
        </mxCell>
        <mxCell id="oC9rU_n9ysh1uVX6l2-E-177" value="" style="endArrow=none;html=1;rounded=0;entryX=1;entryY=0.5;entryDx=0;entryDy=0;entryPerimeter=0;exitDx=0;exitDy=0;exitPerimeter=0;startArrow=none;" parent="1" source="oC9rU_n9ysh1uVX6l2-E-193" target="oC9rU_n9ysh1uVX6l2-E-157" edge="1">
          <mxGeometry width="50" height="50" relative="1" as="geometry">
            <mxPoint x="773" y="520" as="sourcePoint" />
            <mxPoint x="741.75" y="519.82" as="targetPoint" />
          </mxGeometry>
        </mxCell>
        <mxCell id="oC9rU_n9ysh1uVX6l2-E-179" value="" style="shape=waypoint;sketch=0;fillStyle=solid;size=6;pointerEvents=1;points=[];fillColor=none;resizable=0;rotatable=0;perimeter=centerPerimeter;snapToPoint=1;" parent="1" vertex="1">
          <mxGeometry x="143" y="550" width="40" height="40" as="geometry" />
        </mxCell>
        <mxCell id="oC9rU_n9ysh1uVX6l2-E-180" value="" style="endArrow=none;html=1;rounded=0;exitX=0;exitY=0.5;exitDx=0;exitDy=0;exitPerimeter=0;" parent="1" source="oC9rU_n9ysh1uVX6l2-E-114" target="oC9rU_n9ysh1uVX6l2-E-179" edge="1">
          <mxGeometry width="50" height="50" relative="1" as="geometry">
            <mxPoint x="173" y="600" as="sourcePoint" />
            <mxPoint x="173" y="570" as="targetPoint" />
          </mxGeometry>
        </mxCell>
        <mxCell id="oC9rU_n9ysh1uVX6l2-E-181" value="" style="shape=waypoint;sketch=0;fillStyle=solid;size=6;pointerEvents=1;points=[];fillColor=none;resizable=0;rotatable=0;perimeter=centerPerimeter;snapToPoint=1;" parent="1" vertex="1">
          <mxGeometry x="243" y="530" width="40" height="40" as="geometry" />
        </mxCell>
        <mxCell id="oC9rU_n9ysh1uVX6l2-E-182" value="" style="endArrow=none;html=1;rounded=0;entryDx=0;entryDy=0;entryPerimeter=0;" parent="1" target="oC9rU_n9ysh1uVX6l2-E-181" edge="1">
          <mxGeometry width="50" height="50" relative="1" as="geometry">
            <mxPoint x="273" y="550" as="sourcePoint" />
            <mxPoint x="253" y="550" as="targetPoint" />
          </mxGeometry>
        </mxCell>
        <mxCell id="oC9rU_n9ysh1uVX6l2-E-183" value="" style="shape=waypoint;sketch=0;fillStyle=solid;size=6;pointerEvents=1;points=[];fillColor=none;resizable=0;rotatable=0;perimeter=centerPerimeter;snapToPoint=1;" parent="1" vertex="1">
          <mxGeometry x="343" y="530" width="40" height="40" as="geometry" />
        </mxCell>
        <mxCell id="oC9rU_n9ysh1uVX6l2-E-184" value="" style="endArrow=none;html=1;rounded=0;entryDx=0;entryDy=0;entryPerimeter=0;" parent="1" target="oC9rU_n9ysh1uVX6l2-E-183" edge="1">
          <mxGeometry width="50" height="50" relative="1" as="geometry">
            <mxPoint x="383" y="550" as="sourcePoint" />
            <mxPoint x="355.5" y="550" as="targetPoint" />
          </mxGeometry>
        </mxCell>
        <mxCell id="oC9rU_n9ysh1uVX6l2-E-185" value="" style="shape=waypoint;sketch=0;fillStyle=solid;size=6;pointerEvents=1;points=[];fillColor=none;resizable=0;rotatable=0;perimeter=centerPerimeter;snapToPoint=1;" parent="1" vertex="1">
          <mxGeometry x="361" y="530" width="40" height="40" as="geometry" />
        </mxCell>
        <mxCell id="oC9rU_n9ysh1uVX6l2-E-186" value="" style="shape=waypoint;sketch=0;fillStyle=solid;size=6;pointerEvents=1;points=[];fillColor=none;resizable=0;rotatable=0;perimeter=centerPerimeter;snapToPoint=1;" parent="1" vertex="1">
          <mxGeometry x="431" y="530" width="40" height="40" as="geometry" />
        </mxCell>
        <mxCell id="oC9rU_n9ysh1uVX6l2-E-187" value="" style="shape=waypoint;sketch=0;fillStyle=solid;size=6;pointerEvents=1;points=[];fillColor=none;resizable=0;rotatable=0;perimeter=centerPerimeter;snapToPoint=1;" parent="1" vertex="1">
          <mxGeometry x="569.25" y="510" width="40" height="40" as="geometry" />
        </mxCell>
        <mxCell id="oC9rU_n9ysh1uVX6l2-E-188" value="" style="shape=waypoint;sketch=0;fillStyle=solid;size=6;pointerEvents=1;points=[];fillColor=none;resizable=0;rotatable=0;perimeter=centerPerimeter;snapToPoint=1;" parent="1" vertex="1">
          <mxGeometry x="635.5" y="510" width="40" height="40" as="geometry" />
        </mxCell>
        <mxCell id="oC9rU_n9ysh1uVX6l2-E-189" value="" style="endArrow=none;html=1;rounded=0;exitX=0;exitY=0.5;exitDx=0;exitDy=0;exitPerimeter=0;" parent="1" source="oC9rU_n9ysh1uVX6l2-E-165" target="oC9rU_n9ysh1uVX6l2-E-188" edge="1">
          <mxGeometry width="50" height="50" relative="1" as="geometry">
            <mxPoint x="655.5" y="573.75" as="sourcePoint" />
            <mxPoint x="656" y="530" as="targetPoint" />
          </mxGeometry>
        </mxCell>
        <mxCell id="oC9rU_n9ysh1uVX6l2-E-192" value="" style="endArrow=none;html=1;rounded=0;" parent="1" edge="1">
          <mxGeometry width="50" height="50" relative="1" as="geometry">
            <mxPoint x="763" y="510" as="sourcePoint" />
            <mxPoint x="743" y="510" as="targetPoint" />
          </mxGeometry>
        </mxCell>
        <mxCell id="oC9rU_n9ysh1uVX6l2-E-193" value="" style="shape=waypoint;sketch=0;fillStyle=solid;size=6;pointerEvents=1;points=[];fillColor=none;resizable=0;rotatable=0;perimeter=centerPerimeter;snapToPoint=1;" parent="1" vertex="1">
          <mxGeometry x="523" y="510" width="40" height="40" as="geometry" />
        </mxCell>
        <mxCell id="oC9rU_n9ysh1uVX6l2-E-194" value="" style="endArrow=none;html=1;rounded=0;entryDx=0;entryDy=0;entryPerimeter=0;exitX=0;exitY=0.5;exitDx=0;exitDy=0;exitPerimeter=0;" parent="1" source="oC9rU_n9ysh1uVX6l2-E-124" target="oC9rU_n9ysh1uVX6l2-E-193" edge="1">
          <mxGeometry width="50" height="50" relative="1" as="geometry">
            <mxPoint x="545.5" y="530" as="sourcePoint" />
            <mxPoint x="531" y="530" as="targetPoint" />
          </mxGeometry>
        </mxCell>
        <mxCell id="oC9rU_n9ysh1uVX6l2-E-195" value="" style="endArrow=none;html=1;rounded=0;" parent="1" edge="1">
          <mxGeometry width="50" height="50" relative="1" as="geometry">
            <mxPoint x="543" y="480" as="sourcePoint" />
            <mxPoint x="453" y="480" as="targetPoint" />
          </mxGeometry>
        </mxCell>
        <mxCell id="oC9rU_n9ysh1uVX6l2-E-196" value="" style="endArrow=none;html=1;rounded=0;" parent="1" source="oC9rU_n9ysh1uVX6l2-E-193" edge="1">
          <mxGeometry width="50" height="50" relative="1" as="geometry">
            <mxPoint x="541" y="490" as="sourcePoint" />
            <mxPoint x="543" y="480" as="targetPoint" />
          </mxGeometry>
        </mxCell>
        <mxCell id="oC9rU_n9ysh1uVX6l2-E-197" value="" style="endArrow=none;html=1;rounded=0;" parent="1" edge="1">
          <mxGeometry width="50" height="50" relative="1" as="geometry">
            <mxPoint x="453" y="510" as="sourcePoint" />
            <mxPoint x="453" y="480" as="targetPoint" />
          </mxGeometry>
        </mxCell>
        <mxCell id="oC9rU_n9ysh1uVX6l2-E-198" value="" style="endArrow=none;html=1;rounded=0;exitX=0;exitY=0.165;exitDx=0;exitDy=0;exitPerimeter=0;" parent="1" source="oC9rU_n9ysh1uVX6l2-E-157" edge="1">
          <mxGeometry width="50" height="50" relative="1" as="geometry">
            <mxPoint x="553" y="490" as="sourcePoint" />
            <mxPoint x="453" y="510" as="targetPoint" />
          </mxGeometry>
        </mxCell>
        <mxCell id="oC9rU_n9ysh1uVX6l2-E-199" value="" style="endArrow=none;html=1;rounded=0;" parent="1" edge="1">
          <mxGeometry width="50" height="50" relative="1" as="geometry">
            <mxPoint x="643" y="490" as="sourcePoint" />
            <mxPoint x="643" y="460" as="targetPoint" />
            <Array as="points" />
          </mxGeometry>
        </mxCell>
        <mxCell id="oC9rU_n9ysh1uVX6l2-E-200" value="" style="endArrow=none;html=1;rounded=0;exitX=0;exitY=0.165;exitDx=0;exitDy=0;exitPerimeter=0;" parent="1" source="oC9rU_n9ysh1uVX6l2-E-127" edge="1">
          <mxGeometry width="50" height="50" relative="1" as="geometry">
            <mxPoint x="663" y="490" as="sourcePoint" />
            <mxPoint x="643" y="490" as="targetPoint" />
          </mxGeometry>
        </mxCell>
        <mxCell id="oC9rU_n9ysh1uVX6l2-E-203" value="" style="endArrow=none;html=1;rounded=0;" parent="1" edge="1">
          <mxGeometry width="50" height="50" relative="1" as="geometry">
            <mxPoint x="743" y="460" as="sourcePoint" />
            <mxPoint x="643" y="460" as="targetPoint" />
            <Array as="points" />
          </mxGeometry>
        </mxCell>
        <mxCell id="oC9rU_n9ysh1uVX6l2-E-205" value="" style="shape=waypoint;sketch=0;fillStyle=solid;size=6;pointerEvents=1;points=[];fillColor=none;resizable=0;rotatable=0;perimeter=centerPerimeter;snapToPoint=1;" parent="1" vertex="1">
          <mxGeometry x="623" y="440" width="40" height="40" as="geometry" />
        </mxCell>
        <mxCell id="oC9rU_n9ysh1uVX6l2-E-207" style="edgeStyle=none;rounded=0;orthogonalLoop=1;jettySize=auto;html=1;fontSize=12;" parent="1" source="oC9rU_n9ysh1uVX6l2-E-205" target="oC9rU_n9ysh1uVX6l2-E-205" edge="1">
          <mxGeometry relative="1" as="geometry" />
        </mxCell>
        <mxCell id="oC9rU_n9ysh1uVX6l2-E-208" value="" style="shape=waypoint;sketch=0;fillStyle=solid;size=6;pointerEvents=1;points=[];fillColor=none;resizable=0;rotatable=0;perimeter=centerPerimeter;snapToPoint=1;" parent="1" vertex="1">
          <mxGeometry x="723" y="490" width="40" height="40" as="geometry" />
        </mxCell>
        <mxCell id="oC9rU_n9ysh1uVX6l2-E-210" value="" style="endArrow=none;html=1;rounded=0;" parent="1" source="oC9rU_n9ysh1uVX6l2-E-208" edge="1">
          <mxGeometry width="50" height="50" relative="1" as="geometry">
            <mxPoint x="553" y="540" as="sourcePoint" />
            <mxPoint x="743" y="460" as="targetPoint" />
          </mxGeometry>
        </mxCell>
        <mxCell id="oC9rU_n9ysh1uVX6l2-E-211" value="" style="shape=waypoint;sketch=0;fillStyle=solid;size=6;pointerEvents=1;points=[];fillColor=none;resizable=0;rotatable=0;perimeter=centerPerimeter;snapToPoint=1;" parent="1" vertex="1">
          <mxGeometry x="431" y="630" width="40" height="40" as="geometry" />
        </mxCell>
        <mxCell id="oC9rU_n9ysh1uVX6l2-E-212" value="" style="endArrow=none;html=1;rounded=0;exitX=0.5;exitY=0;exitDx=0;exitDy=0;exitPerimeter=0;" parent="1" source="oC9rU_n9ysh1uVX6l2-E-71" target="oC9rU_n9ysh1uVX6l2-E-211" edge="1">
          <mxGeometry width="50" height="50" relative="1" as="geometry">
            <mxPoint x="373" y="609.9999999999999" as="sourcePoint" />
            <mxPoint x="373" y="559.9999999999999" as="targetPoint" />
          </mxGeometry>
        </mxCell>
        <mxCell id="oC9rU_n9ysh1uVX6l2-E-213" value="" style="shape=waypoint;sketch=0;fillStyle=solid;size=6;pointerEvents=1;points=[];fillColor=none;resizable=0;rotatable=0;perimeter=centerPerimeter;snapToPoint=1;" parent="1" vertex="1">
          <mxGeometry x="431" y="570" width="40" height="40" as="geometry" />
        </mxCell>
        <mxCell id="oC9rU_n9ysh1uVX6l2-E-214" value="" style="pointerEvents=1;fillColor=strokeColor;verticalLabelPosition=bottom;shadow=0;dashed=0;align=center;html=1;verticalAlign=top;shape=mxgraph.electrical.diodes.diode;" parent="1" vertex="1">
          <mxGeometry x="391" y="800" width="40" height="20" as="geometry" />
        </mxCell>
        <mxCell id="oC9rU_n9ysh1uVX6l2-E-215" value="" style="endArrow=none;html=1;rounded=0;startArrow=none;entryX=1;entryY=0.5;entryDx=0;entryDy=0;entryPerimeter=0;" parent="1" target="oC9rU_n9ysh1uVX6l2-E-227" edge="1">
          <mxGeometry width="50" height="50" relative="1" as="geometry">
            <mxPoint x="743" y="770" as="sourcePoint" />
            <mxPoint x="731.75" y="769.8199999999999" as="targetPoint" />
          </mxGeometry>
        </mxCell>
        <mxCell id="oC9rU_n9ysh1uVX6l2-E-216" value="&lt;b&gt;10nF&lt;/b&gt;" style="pointerEvents=1;verticalLabelPosition=bottom;shadow=0;dashed=0;align=center;html=1;verticalAlign=middle;shape=mxgraph.electrical.capacitors.capacitor_1;rotation=0;spacingRight=0;spacingTop=-5;labelPosition=center;direction=east;spacingLeft=-17;spacing=2;" parent="1" vertex="1">
          <mxGeometry x="126.75" y="820" width="32.5" height="20" as="geometry" />
        </mxCell>
        <mxCell id="oC9rU_n9ysh1uVX6l2-E-217" value="&lt;b&gt;5kΩ&lt;/b&gt;" style="pointerEvents=1;verticalLabelPosition=bottom;shadow=0;dashed=0;align=center;html=1;verticalAlign=top;shape=mxgraph.electrical.resistors.resistor_2;rotation=90;" parent="1" vertex="1">
          <mxGeometry x="143" y="760" width="40" height="20" as="geometry" />
        </mxCell>
        <mxCell id="oC9rU_n9ysh1uVX6l2-E-218" value="&lt;b&gt;LT1818&lt;/b&gt;" style="verticalLabelPosition=middle;shadow=0;dashed=0;align=center;html=1;verticalAlign=middle;shape=mxgraph.electrical.abstract.operational_amp_1;rotation=0;labelPosition=center;spacingRight=7;" parent="1" vertex="1">
          <mxGeometry x="193" y="780" width="60" height="60" as="geometry" />
        </mxCell>
        <mxCell id="oC9rU_n9ysh1uVX6l2-E-219" value="&lt;b&gt;10Ω&lt;/b&gt;" style="pointerEvents=1;verticalLabelPosition=bottom;shadow=0;dashed=0;align=center;html=1;verticalAlign=top;shape=mxgraph.electrical.resistors.resistor_2;" parent="1" vertex="1">
          <mxGeometry x="273" y="800" width="40" height="20" as="geometry" />
        </mxCell>
        <mxCell id="oC9rU_n9ysh1uVX6l2-E-220" value="&lt;b&gt;10nF&lt;/b&gt;" style="pointerEvents=1;verticalLabelPosition=bottom;shadow=0;dashed=0;align=center;html=1;verticalAlign=middle;shape=mxgraph.electrical.capacitors.capacitor_1;rotation=0;spacingRight=0;spacingTop=6;labelPosition=center;direction=east;spacingLeft=0;spacing=2;" parent="1" vertex="1">
          <mxGeometry x="323" y="800" width="32.5" height="20" as="geometry" />
        </mxCell>
        <mxCell id="oC9rU_n9ysh1uVX6l2-E-221" value="1k&lt;span&gt;Ω&lt;/span&gt;" style="pointerEvents=1;verticalLabelPosition=bottom;shadow=0;dashed=0;align=center;html=1;verticalAlign=top;shape=mxgraph.electrical.resistors.resistor_2;rotation=90;fontStyle=1" parent="1" vertex="1">
          <mxGeometry x="361" y="870" width="40" height="20" as="geometry" />
        </mxCell>
        <mxCell id="oC9rU_n9ysh1uVX6l2-E-222" value="&lt;b&gt;10kΩ&lt;/b&gt;" style="pointerEvents=1;verticalLabelPosition=bottom;shadow=0;dashed=0;align=center;html=1;verticalAlign=top;shape=mxgraph.electrical.resistors.resistor_2;rotation=90;spacing=-2;" parent="1" vertex="1">
          <mxGeometry x="403.5" y="870" width="40" height="20" as="geometry" />
        </mxCell>
        <mxCell id="oC9rU_n9ysh1uVX6l2-E-223" value="&lt;b&gt;1µF&lt;/b&gt;" style="pointerEvents=1;verticalLabelPosition=bottom;shadow=0;dashed=0;align=center;html=1;verticalAlign=middle;shape=mxgraph.electrical.capacitors.capacitor_1;rotation=90;spacingRight=0;spacingTop=-2;labelPosition=center;direction=east;spacingLeft=0;spacing=1;" parent="1" vertex="1">
          <mxGeometry x="466.75" y="870" width="32.5" height="20" as="geometry" />
        </mxCell>
        <mxCell id="oC9rU_n9ysh1uVX6l2-E-225" value="&lt;b&gt;75kΩ&lt;/b&gt;" style="pointerEvents=1;verticalLabelPosition=bottom;shadow=0;dashed=0;align=center;html=1;verticalAlign=top;shape=mxgraph.electrical.resistors.resistor_2;" parent="1" vertex="1">
          <mxGeometry x="545.5" y="780" width="40" height="20" as="geometry" />
        </mxCell>
        <mxCell id="oC9rU_n9ysh1uVX6l2-E-226" value="&lt;b&gt;75kΩ&lt;/b&gt;" style="pointerEvents=1;verticalLabelPosition=bottom;shadow=0;dashed=0;align=center;html=1;verticalAlign=top;shape=mxgraph.electrical.resistors.resistor_2;" parent="1" vertex="1">
          <mxGeometry x="603" y="780" width="40" height="20" as="geometry" />
        </mxCell>
        <mxCell id="oC9rU_n9ysh1uVX6l2-E-227" value="&lt;div&gt;&lt;b&gt;OPA2349&lt;br&gt;&lt;/b&gt;&lt;/div&gt;" style="verticalLabelPosition=middle;shadow=0;dashed=0;align=center;html=1;verticalAlign=middle;shape=mxgraph.electrical.abstract.operational_amp_1;rotation=0;labelPosition=center;spacing=2;spacingRight=4;" parent="1" vertex="1">
          <mxGeometry x="665.5" y="740" width="60" height="60" as="geometry" />
        </mxCell>
        <mxCell id="oC9rU_n9ysh1uVX6l2-E-228" value="" style="endArrow=none;html=1;rounded=0;exitX=0;exitY=0.5;exitDx=0;exitDy=0;exitPerimeter=0;startArrow=none;" parent="1" source="oC9rU_n9ysh1uVX6l2-E-309" edge="1">
          <mxGeometry width="50" height="50" relative="1" as="geometry">
            <mxPoint x="173" y="930" as="sourcePoint" />
            <mxPoint x="40" y="830" as="targetPoint" />
          </mxGeometry>
        </mxCell>
        <mxCell id="oC9rU_n9ysh1uVX6l2-E-230" value="" style="endArrow=none;html=1;rounded=0;entryX=1;entryY=0.5;entryDx=0;entryDy=0;entryPerimeter=0;" parent="1" target="oC9rU_n9ysh1uVX6l2-E-216" edge="1">
          <mxGeometry width="50" height="50" relative="1" as="geometry">
            <mxPoint x="193" y="830" as="sourcePoint" />
            <mxPoint x="73" y="840" as="targetPoint" />
          </mxGeometry>
        </mxCell>
        <mxCell id="oC9rU_n9ysh1uVX6l2-E-231" value="" style="endArrow=none;html=1;rounded=0;" parent="1" edge="1">
          <mxGeometry width="50" height="50" relative="1" as="geometry">
            <mxPoint x="193" y="790" as="sourcePoint" />
            <mxPoint x="183" y="790" as="targetPoint" />
          </mxGeometry>
        </mxCell>
        <mxCell id="oC9rU_n9ysh1uVX6l2-E-232" value="" style="endArrow=none;html=1;rounded=0;exitDx=0;exitDy=0;exitPerimeter=0;startArrow=none;" parent="1" source="oC9rU_n9ysh1uVX6l2-E-262" edge="1">
          <mxGeometry width="50" height="50" relative="1" as="geometry">
            <mxPoint x="146.7500000000001" y="840" as="sourcePoint" />
            <mxPoint x="173" y="830" as="targetPoint" />
          </mxGeometry>
        </mxCell>
        <mxCell id="oC9rU_n9ysh1uVX6l2-E-233" value="" style="endArrow=none;html=1;rounded=0;" parent="1" edge="1">
          <mxGeometry width="50" height="50" relative="1" as="geometry">
            <mxPoint x="183" y="790" as="sourcePoint" />
            <mxPoint x="183" y="770" as="targetPoint" />
          </mxGeometry>
        </mxCell>
        <mxCell id="oC9rU_n9ysh1uVX6l2-E-234" value="" style="endArrow=none;html=1;rounded=0;" parent="1" edge="1">
          <mxGeometry width="50" height="50" relative="1" as="geometry">
            <mxPoint x="263" y="770" as="sourcePoint" />
            <mxPoint x="183" y="770" as="targetPoint" />
          </mxGeometry>
        </mxCell>
        <mxCell id="oC9rU_n9ysh1uVX6l2-E-235" value="" style="endArrow=none;html=1;rounded=0;" parent="1" edge="1">
          <mxGeometry width="50" height="50" relative="1" as="geometry">
            <mxPoint x="263" y="810" as="sourcePoint" />
            <mxPoint x="263" y="770" as="targetPoint" />
          </mxGeometry>
        </mxCell>
        <mxCell id="oC9rU_n9ysh1uVX6l2-E-236" value="" style="endArrow=none;html=1;rounded=0;entryX=1;entryY=0.5;entryDx=0;entryDy=0;entryPerimeter=0;startArrow=none;" parent="1" source="oC9rU_n9ysh1uVX6l2-E-264" target="oC9rU_n9ysh1uVX6l2-E-218" edge="1">
          <mxGeometry width="50" height="50" relative="1" as="geometry">
            <mxPoint x="273" y="810" as="sourcePoint" />
            <mxPoint x="193.0000000000001" y="799.9999999999999" as="targetPoint" />
          </mxGeometry>
        </mxCell>
        <mxCell id="oC9rU_n9ysh1uVX6l2-E-237" value="" style="endArrow=none;html=1;rounded=0;entryX=1;entryY=0.5;entryDx=0;entryDy=0;entryPerimeter=0;exitX=0;exitY=0.5;exitDx=0;exitDy=0;exitPerimeter=0;" parent="1" source="oC9rU_n9ysh1uVX6l2-E-220" target="oC9rU_n9ysh1uVX6l2-E-219" edge="1">
          <mxGeometry width="50" height="50" relative="1" as="geometry">
            <mxPoint x="273.0000000000001" y="779.9999999999999" as="sourcePoint" />
            <mxPoint x="193.0000000000001" y="779.9999999999999" as="targetPoint" />
          </mxGeometry>
        </mxCell>
        <mxCell id="oC9rU_n9ysh1uVX6l2-E-239" value="" style="endArrow=none;html=1;rounded=0;entryX=1;entryY=0.5;entryDx=0;entryDy=0;entryPerimeter=0;startArrow=none;" parent="1" source="oC9rU_n9ysh1uVX6l2-E-266" target="oC9rU_n9ysh1uVX6l2-E-220" edge="1">
          <mxGeometry width="50" height="50" relative="1" as="geometry">
            <mxPoint x="383" y="810" as="sourcePoint" />
            <mxPoint x="193.0000000000001" y="779.9999999999999" as="targetPoint" />
          </mxGeometry>
        </mxCell>
        <mxCell id="oC9rU_n9ysh1uVX6l2-E-243" value="" style="endArrow=none;html=1;rounded=0;entryX=1;entryY=0.5;entryDx=0;entryDy=0;entryPerimeter=0;exitX=0;exitY=0.835;exitDx=0;exitDy=0;exitPerimeter=0;" parent="1" source="oC9rU_n9ysh1uVX6l2-E-251" target="oC9rU_n9ysh1uVX6l2-E-214" edge="1">
          <mxGeometry width="50" height="50" relative="1" as="geometry">
            <mxPoint x="473" y="810" as="sourcePoint" />
            <mxPoint x="365.5" y="820" as="targetPoint" />
          </mxGeometry>
        </mxCell>
        <mxCell id="oC9rU_n9ysh1uVX6l2-E-244" value="" style="endArrow=none;html=1;rounded=0;" parent="1" edge="1">
          <mxGeometry width="50" height="50" relative="1" as="geometry">
            <mxPoint x="451" y="850" as="sourcePoint" />
            <mxPoint x="451" y="810" as="targetPoint" />
          </mxGeometry>
        </mxCell>
        <mxCell id="oC9rU_n9ysh1uVX6l2-E-245" value="" style="endArrow=none;html=1;rounded=0;" parent="1" edge="1">
          <mxGeometry width="50" height="50" relative="1" as="geometry">
            <mxPoint x="483" y="850" as="sourcePoint" />
            <mxPoint x="423" y="850" as="targetPoint" />
          </mxGeometry>
        </mxCell>
        <mxCell id="oC9rU_n9ysh1uVX6l2-E-246" value="" style="endArrow=none;html=1;rounded=0;exitX=0;exitY=0.5;exitDx=0;exitDy=0;exitPerimeter=0;" parent="1" source="oC9rU_n9ysh1uVX6l2-E-222" edge="1">
          <mxGeometry width="50" height="50" relative="1" as="geometry">
            <mxPoint x="423.25" y="855" as="sourcePoint" />
            <mxPoint x="423" y="850" as="targetPoint" />
          </mxGeometry>
        </mxCell>
        <mxCell id="oC9rU_n9ysh1uVX6l2-E-247" value="" style="endArrow=none;html=1;rounded=0;exitX=0;exitY=0.5;exitDx=0;exitDy=0;exitPerimeter=0;" parent="1" source="oC9rU_n9ysh1uVX6l2-E-223" edge="1">
          <mxGeometry width="50" height="50" relative="1" as="geometry">
            <mxPoint x="470.75" y="867.5" as="sourcePoint" />
            <mxPoint x="483" y="850" as="targetPoint" />
          </mxGeometry>
        </mxCell>
        <mxCell id="oC9rU_n9ysh1uVX6l2-E-248" value="" style="endArrow=none;html=1;rounded=0;entryX=1;entryY=0.5;entryDx=0;entryDy=0;entryPerimeter=0;" parent="1" target="oC9rU_n9ysh1uVX6l2-E-222" edge="1">
          <mxGeometry width="50" height="50" relative="1" as="geometry">
            <mxPoint x="424" y="910" as="sourcePoint" />
            <mxPoint x="423.36" y="905" as="targetPoint" />
          </mxGeometry>
        </mxCell>
        <mxCell id="oC9rU_n9ysh1uVX6l2-E-249" value="" style="endArrow=none;html=1;rounded=0;entryX=1;entryY=0.5;entryDx=0;entryDy=0;entryPerimeter=0;" parent="1" target="oC9rU_n9ysh1uVX6l2-E-223" edge="1">
          <mxGeometry width="50" height="50" relative="1" as="geometry">
            <mxPoint x="483" y="910" as="sourcePoint" />
            <mxPoint x="490.75" y="890" as="targetPoint" />
          </mxGeometry>
        </mxCell>
        <mxCell id="oC9rU_n9ysh1uVX6l2-E-250" value="" style="endArrow=none;html=1;rounded=0;" parent="1" edge="1">
          <mxGeometry width="50" height="50" relative="1" as="geometry">
            <mxPoint x="484" y="910" as="sourcePoint" />
            <mxPoint x="424" y="910" as="targetPoint" />
          </mxGeometry>
        </mxCell>
        <mxCell id="oC9rU_n9ysh1uVX6l2-E-251" value="&lt;b&gt;OPA333&lt;/b&gt;" style="verticalLabelPosition=middle;shadow=0;dashed=0;align=center;html=1;verticalAlign=middle;shape=mxgraph.electrical.abstract.operational_amp_1;rotation=0;labelPosition=center;spacingRight=7;" parent="1" vertex="1">
          <mxGeometry x="471" y="760" width="60" height="60" as="geometry" />
        </mxCell>
        <mxCell id="oC9rU_n9ysh1uVX6l2-E-252" value="&lt;b&gt;0.22µF&lt;/b&gt;" style="pointerEvents=1;verticalLabelPosition=bottom;shadow=0;dashed=0;align=center;html=1;verticalAlign=middle;shape=mxgraph.electrical.capacitors.capacitor_1;rotation=90;spacingRight=0;spacingTop=8;labelPosition=center;direction=east;spacingLeft=0;spacing=2;" parent="1" vertex="1">
          <mxGeometry x="573" y="740" width="32.5" height="20" as="geometry" />
        </mxCell>
        <mxCell id="oC9rU_n9ysh1uVX6l2-E-253" value="&lt;b&gt;0.1µF&lt;/b&gt;" style="pointerEvents=1;verticalLabelPosition=bottom;shadow=0;dashed=0;align=center;html=1;verticalAlign=middle;shape=mxgraph.electrical.capacitors.capacitor_1;rotation=90;spacingRight=0;spacingTop=8;labelPosition=center;direction=east;spacingLeft=0;spacing=2;" parent="1" vertex="1">
          <mxGeometry x="639.25" y="840" width="32.5" height="20" as="geometry" />
        </mxCell>
        <mxCell id="oC9rU_n9ysh1uVX6l2-E-254" value="" style="endArrow=none;html=1;rounded=0;entryX=1;entryY=0.5;entryDx=0;entryDy=0;entryPerimeter=0;exitX=0;exitY=0.5;exitDx=0;exitDy=0;exitPerimeter=0;" parent="1" source="oC9rU_n9ysh1uVX6l2-E-226" target="oC9rU_n9ysh1uVX6l2-E-225" edge="1">
          <mxGeometry width="50" height="50" relative="1" as="geometry">
            <mxPoint x="603" y="790" as="sourcePoint" />
            <mxPoint x="593" y="790" as="targetPoint" />
          </mxGeometry>
        </mxCell>
        <mxCell id="oC9rU_n9ysh1uVX6l2-E-255" value="" style="endArrow=none;html=1;rounded=0;entryX=1;entryY=0.5;entryDx=0;entryDy=0;entryPerimeter=0;" parent="1" target="oC9rU_n9ysh1uVX6l2-E-252" edge="1">
          <mxGeometry width="50" height="50" relative="1" as="geometry">
            <mxPoint x="589" y="790" as="sourcePoint" />
            <mxPoint x="601.75" y="800" as="targetPoint" />
          </mxGeometry>
        </mxCell>
        <mxCell id="oC9rU_n9ysh1uVX6l2-E-256" value="" style="endArrow=none;html=1;rounded=0;entryX=1;entryY=0.5;entryDx=0;entryDy=0;entryPerimeter=0;exitX=0;exitY=0.835;exitDx=0;exitDy=0;exitPerimeter=0;" parent="1" source="oC9rU_n9ysh1uVX6l2-E-227" target="oC9rU_n9ysh1uVX6l2-E-226" edge="1">
          <mxGeometry width="50" height="50" relative="1" as="geometry">
            <mxPoint x="609" y="800" as="sourcePoint" />
            <mxPoint x="609.25" y="786.25" as="targetPoint" />
          </mxGeometry>
        </mxCell>
        <mxCell id="oC9rU_n9ysh1uVX6l2-E-257" value="" style="endArrow=none;html=1;rounded=0;exitDx=0;exitDy=0;exitPerimeter=0;startArrow=none;" parent="1" source="oC9rU_n9ysh1uVX6l2-E-271" edge="1">
          <mxGeometry width="50" height="50" relative="1" as="geometry">
            <mxPoint x="681.75" y="800.1" as="sourcePoint" />
            <mxPoint x="656" y="790" as="targetPoint" />
          </mxGeometry>
        </mxCell>
        <mxCell id="oC9rU_n9ysh1uVX6l2-E-258" value="" style="pointerEvents=1;verticalLabelPosition=bottom;shadow=0;dashed=0;align=center;html=1;verticalAlign=top;shape=mxgraph.electrical.signal_sources.signal_ground;" parent="1" vertex="1">
          <mxGeometry x="645.5" y="870" width="20" height="20" as="geometry" />
        </mxCell>
        <mxCell id="oC9rU_n9ysh1uVX6l2-E-259" value="" style="endArrow=none;html=1;rounded=0;exitX=0.5;exitY=0;exitDx=0;exitDy=0;exitPerimeter=0;entryX=1;entryY=0.5;entryDx=0;entryDy=0;entryPerimeter=0;" parent="1" source="oC9rU_n9ysh1uVX6l2-E-258" target="oC9rU_n9ysh1uVX6l2-E-253" edge="1">
          <mxGeometry width="50" height="50" relative="1" as="geometry">
            <mxPoint x="463.5" y="930" as="sourcePoint" />
            <mxPoint x="464" y="920" as="targetPoint" />
          </mxGeometry>
        </mxCell>
        <mxCell id="oC9rU_n9ysh1uVX6l2-E-260" value="" style="endArrow=none;html=1;rounded=0;entryX=0;entryY=0.5;entryDx=0;entryDy=0;entryPerimeter=0;startArrow=none;" parent="1" target="oC9rU_n9ysh1uVX6l2-E-252" edge="1">
          <mxGeometry width="50" height="50" relative="1" as="geometry">
            <mxPoint x="643" y="720" as="sourcePoint" />
            <mxPoint x="540.5" y="720.07" as="targetPoint" />
            <Array as="points">
              <mxPoint x="589" y="720" />
            </Array>
          </mxGeometry>
        </mxCell>
        <mxCell id="oC9rU_n9ysh1uVX6l2-E-261" value="" style="endArrow=none;html=1;rounded=0;entryX=1;entryY=0.5;entryDx=0;entryDy=0;entryPerimeter=0;exitDx=0;exitDy=0;exitPerimeter=0;startArrow=none;" parent="1" source="oC9rU_n9ysh1uVX6l2-E-274" target="oC9rU_n9ysh1uVX6l2-E-251" edge="1">
          <mxGeometry width="50" height="50" relative="1" as="geometry">
            <mxPoint x="773" y="780" as="sourcePoint" />
            <mxPoint x="741.75" y="779.82" as="targetPoint" />
          </mxGeometry>
        </mxCell>
        <mxCell id="oC9rU_n9ysh1uVX6l2-E-262" value="" style="shape=waypoint;sketch=0;fillStyle=solid;size=6;pointerEvents=1;points=[];fillColor=none;resizable=0;rotatable=0;perimeter=centerPerimeter;snapToPoint=1;" parent="1" vertex="1">
          <mxGeometry x="143" y="810" width="40" height="40" as="geometry" />
        </mxCell>
        <mxCell id="oC9rU_n9ysh1uVX6l2-E-264" value="" style="shape=waypoint;sketch=0;fillStyle=solid;size=6;pointerEvents=1;points=[];fillColor=none;resizable=0;rotatable=0;perimeter=centerPerimeter;snapToPoint=1;" parent="1" vertex="1">
          <mxGeometry x="243" y="790" width="40" height="40" as="geometry" />
        </mxCell>
        <mxCell id="oC9rU_n9ysh1uVX6l2-E-265" value="" style="endArrow=none;html=1;rounded=0;entryDx=0;entryDy=0;entryPerimeter=0;" parent="1" target="oC9rU_n9ysh1uVX6l2-E-264" edge="1">
          <mxGeometry width="50" height="50" relative="1" as="geometry">
            <mxPoint x="273" y="810" as="sourcePoint" />
            <mxPoint x="253" y="810" as="targetPoint" />
          </mxGeometry>
        </mxCell>
        <mxCell id="oC9rU_n9ysh1uVX6l2-E-266" value="" style="shape=waypoint;sketch=0;fillStyle=solid;size=6;pointerEvents=1;points=[];fillColor=none;resizable=0;rotatable=0;perimeter=centerPerimeter;snapToPoint=1;" parent="1" vertex="1">
          <mxGeometry x="343" y="790" width="40" height="40" as="geometry" />
        </mxCell>
        <mxCell id="oC9rU_n9ysh1uVX6l2-E-267" value="" style="endArrow=none;html=1;rounded=0;entryDx=0;entryDy=0;entryPerimeter=0;startArrow=none;" parent="1" source="oC9rU_n9ysh1uVX6l2-E-292" target="oC9rU_n9ysh1uVX6l2-E-266" edge="1">
          <mxGeometry width="50" height="50" relative="1" as="geometry">
            <mxPoint x="383" y="810" as="sourcePoint" />
            <mxPoint x="355.5" y="810" as="targetPoint" />
          </mxGeometry>
        </mxCell>
        <mxCell id="oC9rU_n9ysh1uVX6l2-E-269" value="" style="shape=waypoint;sketch=0;fillStyle=solid;size=6;pointerEvents=1;points=[];fillColor=none;resizable=0;rotatable=0;perimeter=centerPerimeter;snapToPoint=1;" parent="1" vertex="1">
          <mxGeometry x="431" y="790" width="40" height="40" as="geometry" />
        </mxCell>
        <mxCell id="oC9rU_n9ysh1uVX6l2-E-270" value="" style="shape=waypoint;sketch=0;fillStyle=solid;size=6;pointerEvents=1;points=[];fillColor=none;resizable=0;rotatable=0;perimeter=centerPerimeter;snapToPoint=1;" parent="1" vertex="1">
          <mxGeometry x="569.25" y="770" width="40" height="40" as="geometry" />
        </mxCell>
        <mxCell id="oC9rU_n9ysh1uVX6l2-E-271" value="" style="shape=waypoint;sketch=0;fillStyle=solid;size=6;pointerEvents=1;points=[];fillColor=none;resizable=0;rotatable=0;perimeter=centerPerimeter;snapToPoint=1;" parent="1" vertex="1">
          <mxGeometry x="635.5" y="770" width="40" height="40" as="geometry" />
        </mxCell>
        <mxCell id="oC9rU_n9ysh1uVX6l2-E-272" value="" style="endArrow=none;html=1;rounded=0;exitX=0;exitY=0.5;exitDx=0;exitDy=0;exitPerimeter=0;" parent="1" source="oC9rU_n9ysh1uVX6l2-E-253" target="oC9rU_n9ysh1uVX6l2-E-271" edge="1">
          <mxGeometry width="50" height="50" relative="1" as="geometry">
            <mxPoint x="655.5" y="833.75" as="sourcePoint" />
            <mxPoint x="656" y="790" as="targetPoint" />
          </mxGeometry>
        </mxCell>
        <mxCell id="oC9rU_n9ysh1uVX6l2-E-273" value="" style="endArrow=none;html=1;rounded=0;" parent="1" edge="1">
          <mxGeometry width="50" height="50" relative="1" as="geometry">
            <mxPoint x="763" y="770" as="sourcePoint" />
            <mxPoint x="743" y="770" as="targetPoint" />
          </mxGeometry>
        </mxCell>
        <mxCell id="oC9rU_n9ysh1uVX6l2-E-274" value="" style="shape=waypoint;sketch=0;fillStyle=solid;size=6;pointerEvents=1;points=[];fillColor=none;resizable=0;rotatable=0;perimeter=centerPerimeter;snapToPoint=1;" parent="1" vertex="1">
          <mxGeometry x="523" y="770" width="40" height="40" as="geometry" />
        </mxCell>
        <mxCell id="oC9rU_n9ysh1uVX6l2-E-275" value="" style="endArrow=none;html=1;rounded=0;entryDx=0;entryDy=0;entryPerimeter=0;exitX=0;exitY=0.5;exitDx=0;exitDy=0;exitPerimeter=0;" parent="1" source="oC9rU_n9ysh1uVX6l2-E-225" target="oC9rU_n9ysh1uVX6l2-E-274" edge="1">
          <mxGeometry width="50" height="50" relative="1" as="geometry">
            <mxPoint x="545.5" y="790" as="sourcePoint" />
            <mxPoint x="531" y="790" as="targetPoint" />
          </mxGeometry>
        </mxCell>
        <mxCell id="oC9rU_n9ysh1uVX6l2-E-276" value="" style="endArrow=none;html=1;rounded=0;" parent="1" edge="1">
          <mxGeometry width="50" height="50" relative="1" as="geometry">
            <mxPoint x="543" y="740" as="sourcePoint" />
            <mxPoint x="453" y="740" as="targetPoint" />
          </mxGeometry>
        </mxCell>
        <mxCell id="oC9rU_n9ysh1uVX6l2-E-277" value="" style="endArrow=none;html=1;rounded=0;" parent="1" source="oC9rU_n9ysh1uVX6l2-E-274" edge="1">
          <mxGeometry width="50" height="50" relative="1" as="geometry">
            <mxPoint x="541" y="750" as="sourcePoint" />
            <mxPoint x="543" y="740" as="targetPoint" />
          </mxGeometry>
        </mxCell>
        <mxCell id="oC9rU_n9ysh1uVX6l2-E-278" value="" style="endArrow=none;html=1;rounded=0;" parent="1" edge="1">
          <mxGeometry width="50" height="50" relative="1" as="geometry">
            <mxPoint x="453" y="770" as="sourcePoint" />
            <mxPoint x="453" y="740" as="targetPoint" />
          </mxGeometry>
        </mxCell>
        <mxCell id="oC9rU_n9ysh1uVX6l2-E-279" value="" style="endArrow=none;html=1;rounded=0;exitX=0;exitY=0.165;exitDx=0;exitDy=0;exitPerimeter=0;" parent="1" source="oC9rU_n9ysh1uVX6l2-E-251" edge="1">
          <mxGeometry width="50" height="50" relative="1" as="geometry">
            <mxPoint x="553" y="750" as="sourcePoint" />
            <mxPoint x="453" y="770" as="targetPoint" />
          </mxGeometry>
        </mxCell>
        <mxCell id="oC9rU_n9ysh1uVX6l2-E-280" value="" style="endArrow=none;html=1;rounded=0;" parent="1" edge="1">
          <mxGeometry width="50" height="50" relative="1" as="geometry">
            <mxPoint x="643" y="750" as="sourcePoint" />
            <mxPoint x="643" y="720" as="targetPoint" />
            <Array as="points" />
          </mxGeometry>
        </mxCell>
        <mxCell id="oC9rU_n9ysh1uVX6l2-E-281" value="" style="endArrow=none;html=1;rounded=0;exitX=0;exitY=0.165;exitDx=0;exitDy=0;exitPerimeter=0;" parent="1" source="oC9rU_n9ysh1uVX6l2-E-227" edge="1">
          <mxGeometry width="50" height="50" relative="1" as="geometry">
            <mxPoint x="663" y="750" as="sourcePoint" />
            <mxPoint x="643" y="750" as="targetPoint" />
          </mxGeometry>
        </mxCell>
        <mxCell id="oC9rU_n9ysh1uVX6l2-E-282" value="" style="endArrow=none;html=1;rounded=0;" parent="1" edge="1">
          <mxGeometry width="50" height="50" relative="1" as="geometry">
            <mxPoint x="743" y="720" as="sourcePoint" />
            <mxPoint x="643" y="720" as="targetPoint" />
            <Array as="points" />
          </mxGeometry>
        </mxCell>
        <mxCell id="oC9rU_n9ysh1uVX6l2-E-283" value="" style="shape=waypoint;sketch=0;fillStyle=solid;size=6;pointerEvents=1;points=[];fillColor=none;resizable=0;rotatable=0;perimeter=centerPerimeter;snapToPoint=1;" parent="1" vertex="1">
          <mxGeometry x="623" y="700" width="40" height="40" as="geometry" />
        </mxCell>
        <mxCell id="oC9rU_n9ysh1uVX6l2-E-284" style="edgeStyle=none;rounded=0;orthogonalLoop=1;jettySize=auto;html=1;fontSize=12;" parent="1" source="oC9rU_n9ysh1uVX6l2-E-283" target="oC9rU_n9ysh1uVX6l2-E-283" edge="1">
          <mxGeometry relative="1" as="geometry" />
        </mxCell>
        <mxCell id="oC9rU_n9ysh1uVX6l2-E-285" value="" style="shape=waypoint;sketch=0;fillStyle=solid;size=6;pointerEvents=1;points=[];fillColor=none;resizable=0;rotatable=0;perimeter=centerPerimeter;snapToPoint=1;" parent="1" vertex="1">
          <mxGeometry x="723" y="750" width="40" height="40" as="geometry" />
        </mxCell>
        <mxCell id="oC9rU_n9ysh1uVX6l2-E-286" value="" style="endArrow=none;html=1;rounded=0;" parent="1" source="oC9rU_n9ysh1uVX6l2-E-285" edge="1">
          <mxGeometry width="50" height="50" relative="1" as="geometry">
            <mxPoint x="553" y="800" as="sourcePoint" />
            <mxPoint x="743" y="720" as="targetPoint" />
          </mxGeometry>
        </mxCell>
        <mxCell id="oC9rU_n9ysh1uVX6l2-E-287" value="" style="shape=waypoint;sketch=0;fillStyle=solid;size=6;pointerEvents=1;points=[];fillColor=none;resizable=0;rotatable=0;perimeter=centerPerimeter;snapToPoint=1;" parent="1" vertex="1">
          <mxGeometry x="431" y="890" width="40" height="40" as="geometry" />
        </mxCell>
        <mxCell id="oC9rU_n9ysh1uVX6l2-E-288" value="100k&lt;span&gt;Ω&lt;/span&gt;" style="pointerEvents=1;verticalLabelPosition=bottom;shadow=0;dashed=0;align=center;html=1;verticalAlign=top;shape=mxgraph.electrical.resistors.resistor_2;rotation=90;fontStyle=1" parent="1" vertex="1">
          <mxGeometry x="343" y="730" width="40" height="20" as="geometry" />
        </mxCell>
        <mxCell id="oC9rU_n9ysh1uVX6l2-E-290" value="" style="endArrow=none;html=1;rounded=0;exitX=0;exitY=0.5;exitDx=0;exitDy=0;exitPerimeter=0;entryX=1;entryY=0.5;entryDx=0;entryDy=0;entryPerimeter=0;" parent="1" target="oC9rU_n9ysh1uVX6l2-E-288" edge="1">
          <mxGeometry width="50" height="50" relative="1" as="geometry">
            <mxPoint x="362.76" y="810" as="sourcePoint" />
            <mxPoint x="362.76" y="760" as="targetPoint" />
          </mxGeometry>
        </mxCell>
        <mxCell id="oC9rU_n9ysh1uVX6l2-E-292" value="" style="shape=waypoint;sketch=0;fillStyle=solid;size=6;pointerEvents=1;points=[];fillColor=none;resizable=0;rotatable=0;perimeter=centerPerimeter;snapToPoint=1;" parent="1" vertex="1">
          <mxGeometry x="361" y="790" width="40" height="40" as="geometry" />
        </mxCell>
        <mxCell id="oC9rU_n9ysh1uVX6l2-E-293" value="" style="endArrow=none;html=1;rounded=0;entryDx=0;entryDy=0;entryPerimeter=0;" parent="1" target="oC9rU_n9ysh1uVX6l2-E-292" edge="1">
          <mxGeometry width="50" height="50" relative="1" as="geometry">
            <mxPoint x="383" y="810" as="sourcePoint" />
            <mxPoint x="363" y="810" as="targetPoint" />
          </mxGeometry>
        </mxCell>
        <mxCell id="oC9rU_n9ysh1uVX6l2-E-294" value="" style="endArrow=none;html=1;rounded=0;exitX=0;exitY=0.5;exitDx=0;exitDy=0;exitPerimeter=0;" parent="1" source="oC9rU_n9ysh1uVX6l2-E-221" target="oC9rU_n9ysh1uVX6l2-E-292" edge="1">
          <mxGeometry width="50" height="50" relative="1" as="geometry">
            <mxPoint x="372.76" y="820" as="sourcePoint" />
            <mxPoint x="373" y="770" as="targetPoint" />
          </mxGeometry>
        </mxCell>
        <mxCell id="oC9rU_n9ysh1uVX6l2-E-295" value="" style="endArrow=none;html=1;rounded=0;exitX=0.342;exitY=0.517;exitDx=0;exitDy=0;exitPerimeter=0;" parent="1" source="oC9rU_n9ysh1uVX6l2-E-214" target="oC9rU_n9ysh1uVX6l2-E-292" edge="1">
          <mxGeometry width="50" height="50" relative="1" as="geometry">
            <mxPoint x="391" y="870" as="sourcePoint" />
            <mxPoint x="383" y="810" as="targetPoint" />
          </mxGeometry>
        </mxCell>
        <mxCell id="oC9rU_n9ysh1uVX6l2-E-296" value="" style="pointerEvents=1;verticalLabelPosition=bottom;shadow=0;dashed=0;align=center;html=1;verticalAlign=top;shape=mxgraph.electrical.signal_sources.signal_ground;rotation=0;" parent="1" vertex="1">
          <mxGeometry x="371" y="930" width="20" height="20" as="geometry" />
        </mxCell>
        <mxCell id="oC9rU_n9ysh1uVX6l2-E-297" value="" style="endArrow=none;html=1;rounded=0;exitX=1;exitY=0.5;exitDx=0;exitDy=0;exitPerimeter=0;entryX=0.5;entryY=0;entryDx=0;entryDy=0;entryPerimeter=0;" parent="1" source="oC9rU_n9ysh1uVX6l2-E-221" target="oC9rU_n9ysh1uVX6l2-E-296" edge="1">
          <mxGeometry width="50" height="50" relative="1" as="geometry">
            <mxPoint x="391" y="480" as="sourcePoint" />
            <mxPoint x="383" y="920" as="targetPoint" />
          </mxGeometry>
        </mxCell>
        <mxCell id="oC9rU_n9ysh1uVX6l2-E-298" value="" style="shape=waypoint;sketch=0;fillStyle=solid;size=6;pointerEvents=1;points=[];fillColor=none;resizable=0;rotatable=0;perimeter=centerPerimeter;snapToPoint=1;" parent="1" vertex="1">
          <mxGeometry x="431" y="830" width="40" height="40" as="geometry" />
        </mxCell>
        <mxCell id="oC9rU_n9ysh1uVX6l2-E-299" value="" style="endArrow=none;html=1;rounded=0;entryX=1;entryY=0.5;entryDx=0;entryDy=0;entryPerimeter=0;exitDx=0;exitDy=0;exitPerimeter=0;startArrow=none;" parent="1" source="oC9rU_n9ysh1uVX6l2-E-305" target="oC9rU_n9ysh1uVX6l2-E-118" edge="1">
          <mxGeometry width="50" height="50" relative="1" as="geometry">
            <mxPoint x="273" y="560" as="sourcePoint" />
            <mxPoint x="273" y="520" as="targetPoint" />
          </mxGeometry>
        </mxCell>
        <mxCell id="oC9rU_n9ysh1uVX6l2-E-302" value="" style="endArrow=none;html=1;rounded=0;entryX=0.5;entryY=0;entryDx=0;entryDy=0;entryPerimeter=0;" parent="1" target="oC9rU_n9ysh1uVX6l2-E-143" edge="1">
          <mxGeometry width="50" height="50" relative="1" as="geometry">
            <mxPoint x="363" y="680" as="sourcePoint" />
            <mxPoint x="73" y="580" as="targetPoint" />
          </mxGeometry>
        </mxCell>
        <mxCell id="oC9rU_n9ysh1uVX6l2-E-303" value="" style="endArrow=none;html=1;rounded=0;entryX=0.5;entryY=0;entryDx=0;entryDy=0;entryPerimeter=0;" parent="1" target="oC9rU_n9ysh1uVX6l2-E-159" edge="1">
          <mxGeometry width="50" height="50" relative="1" as="geometry">
            <mxPoint x="163" y="680" as="sourcePoint" />
            <mxPoint x="263" y="720" as="targetPoint" />
          </mxGeometry>
        </mxCell>
        <mxCell id="oC9rU_n9ysh1uVX6l2-E-304" value="" style="endArrow=none;html=1;rounded=0;exitX=1;exitY=0.5;exitDx=0;exitDy=0;exitPerimeter=0;entryX=0;entryY=0.5;entryDx=0;entryDy=0;entryPerimeter=0;" parent="1" source="oC9rU_n9ysh1uVX6l2-E-114" target="oC9rU_n9ysh1uVX6l2-E-217" edge="1">
          <mxGeometry width="50" height="50" relative="1" as="geometry">
            <mxPoint x="233" y="630" as="sourcePoint" />
            <mxPoint x="163" y="710" as="targetPoint" />
          </mxGeometry>
        </mxCell>
        <mxCell id="oC9rU_n9ysh1uVX6l2-E-305" value="" style="shape=waypoint;sketch=0;fillStyle=solid;size=6;pointerEvents=1;points=[];fillColor=none;resizable=0;rotatable=0;perimeter=centerPerimeter;snapToPoint=1;" parent="1" vertex="1">
          <mxGeometry x="343" y="660" width="40" height="40" as="geometry" />
        </mxCell>
        <mxCell id="oC9rU_n9ysh1uVX6l2-E-306" value="" style="endArrow=none;html=1;rounded=0;entryDx=0;entryDy=0;entryPerimeter=0;exitX=0;exitY=0.5;exitDx=0;exitDy=0;exitPerimeter=0;" parent="1" source="oC9rU_n9ysh1uVX6l2-E-288" target="oC9rU_n9ysh1uVX6l2-E-305" edge="1">
          <mxGeometry width="50" height="50" relative="1" as="geometry">
            <mxPoint x="363" y="720" as="sourcePoint" />
            <mxPoint x="363" y="640" as="targetPoint" />
          </mxGeometry>
        </mxCell>
        <mxCell id="oC9rU_n9ysh1uVX6l2-E-307" value="" style="endArrow=none;html=1;rounded=0;exitX=1;exitY=0.5;exitDx=0;exitDy=0;exitPerimeter=0;" parent="1" source="oC9rU_n9ysh1uVX6l2-E-217" target="oC9rU_n9ysh1uVX6l2-E-262" edge="1">
          <mxGeometry width="50" height="50" relative="1" as="geometry">
            <mxPoint x="173" y="650" as="sourcePoint" />
            <mxPoint x="173" y="760" as="targetPoint" />
          </mxGeometry>
        </mxCell>
        <mxCell id="oC9rU_n9ysh1uVX6l2-E-309" value="&lt;font style=&quot;font-size: 7px&quot;&gt;electrode&lt;/font&gt;" style="shape=ext;double=1;rounded=0;whiteSpace=wrap;html=1;fontSize=12;" parent="1" vertex="1">
          <mxGeometry x="60" y="815" width="40" height="30" as="geometry" />
        </mxCell>
        <mxCell id="oC9rU_n9ysh1uVX6l2-E-310" value="" style="endArrow=none;html=1;rounded=0;exitX=0;exitY=0.5;exitDx=0;exitDy=0;exitPerimeter=0;" parent="1" source="oC9rU_n9ysh1uVX6l2-E-216" target="oC9rU_n9ysh1uVX6l2-E-309" edge="1">
          <mxGeometry width="50" height="50" relative="1" as="geometry">
            <mxPoint x="126.75" y="830" as="sourcePoint" />
            <mxPoint x="40" y="830" as="targetPoint" />
          </mxGeometry>
        </mxCell>
        <mxCell id="oC9rU_n9ysh1uVX6l2-E-312" value="&lt;font style=&quot;font-size: 14px&quot;&gt;&lt;b&gt;IMPOUT1&lt;/b&gt;&lt;/font&gt;" style="shape=mxgraph.arrows2.arrow;verticalLabelPosition=middle;shadow=0;dashed=0;align=center;html=1;verticalAlign=middle;strokeWidth=1;dy=0;dx=10;notch=0;fontSize=7;labelPosition=center;spacingLeft=-5;" parent="1" vertex="1">
          <mxGeometry x="756" y="500" width="70.75" height="20" as="geometry" />
        </mxCell>
        <mxCell id="oC9rU_n9ysh1uVX6l2-E-315" value="&lt;font style=&quot;font-size: 14px&quot;&gt;&lt;b&gt;IMPOUT2&lt;/b&gt;&lt;/font&gt;" style="shape=mxgraph.arrows2.arrow;verticalLabelPosition=middle;shadow=0;dashed=0;align=center;html=1;verticalAlign=middle;strokeWidth=1;dy=0;dx=10;notch=0;fontSize=7;labelPosition=center;spacingLeft=-5;" parent="1" vertex="1">
          <mxGeometry x="756" y="760" width="70.75" height="20" as="geometry" />
        </mxCell>
        <mxCell id="oC9rU_n9ysh1uVX6l2-E-317" value="" style="pointerEvents=1;verticalLabelPosition=bottom;shadow=0;dashed=0;align=center;html=1;verticalAlign=top;shape=mxgraph.electrical.signal_sources.signal_ground;" parent="1" vertex="1">
          <mxGeometry x="441" y="930" width="20" height="20" as="geometry" />
        </mxCell>
        <mxCell id="oC9rU_n9ysh1uVX6l2-E-318" value="" style="endArrow=none;html=1;rounded=0;exitX=0.5;exitY=0;exitDx=0;exitDy=0;exitPerimeter=0;" parent="1" source="oC9rU_n9ysh1uVX6l2-E-317" edge="1">
          <mxGeometry width="50" height="50" relative="1" as="geometry">
            <mxPoint x="373" y="869.9999999999999" as="sourcePoint" />
            <mxPoint x="451" y="910" as="targetPoint" />
          </mxGeometry>
        </mxCell>
        <mxCell id="-IPIXIhOzp1eECCD4319-1" value="&lt;b&gt;SG_3030CM&lt;/b&gt;" style="pointerEvents=1;verticalLabelPosition=bottom;shadow=0;dashed=0;align=center;html=1;verticalAlign=top;shape=mxgraph.electrical.signal_sources.source;aspect=fixed;points=[[0.5,0,0],[1,0.5,0],[0.5,1,0],[0,0.5,0]];elSignalType=square;" vertex="1" parent="1">
          <mxGeometry x="1027.5" y="530" width="50" height="50" as="geometry" />
        </mxCell>
        <mxCell id="-IPIXIhOzp1eECCD4319-2" value="&lt;b&gt;51kΩ&lt;/b&gt;" style="pointerEvents=1;verticalLabelPosition=bottom;shadow=0;dashed=0;align=center;html=1;verticalAlign=top;shape=mxgraph.electrical.resistors.resistor_2;" vertex="1" parent="1">
          <mxGeometry x="1087.5" y="545" width="40" height="20" as="geometry" />
        </mxCell>
        <mxCell id="-IPIXIhOzp1eECCD4319-3" value="&lt;b&gt;51kΩ&lt;/b&gt;" style="pointerEvents=1;verticalLabelPosition=bottom;shadow=0;dashed=0;align=center;html=1;verticalAlign=top;shape=mxgraph.electrical.resistors.resistor_2;" vertex="1" parent="1">
          <mxGeometry x="1145" y="545" width="40" height="20" as="geometry" />
        </mxCell>
        <mxCell id="-IPIXIhOzp1eECCD4319-5" value="" style="endArrow=none;html=1;rounded=0;startArrow=none;" edge="1" parent="1" source="-IPIXIhOzp1eECCD4319-26">
          <mxGeometry width="50" height="50" relative="1" as="geometry">
            <mxPoint x="1187.5" y="485" as="sourcePoint" />
            <mxPoint x="1187.5" y="515" as="targetPoint" />
          </mxGeometry>
        </mxCell>
        <mxCell id="-IPIXIhOzp1eECCD4319-6" value="" style="endArrow=none;html=1;rounded=0;startArrow=none;entryX=1;entryY=0.486;entryDx=0;entryDy=0;entryPerimeter=0;" edge="1" parent="1" source="-IPIXIhOzp1eECCD4319-34">
          <mxGeometry width="50" height="50" relative="1" as="geometry">
            <mxPoint x="1137.5" y="555" as="sourcePoint" />
            <mxPoint x="1137.5" y="555" as="targetPoint" />
            <Array as="points">
              <mxPoint x="1147.5" y="555" />
            </Array>
          </mxGeometry>
        </mxCell>
        <mxCell id="-IPIXIhOzp1eECCD4319-7" value="&lt;div&gt;&lt;b&gt;100pF&lt;/b&gt;&lt;/div&gt;" style="pointerEvents=1;verticalLabelPosition=bottom;shadow=0;dashed=0;align=center;html=1;verticalAlign=middle;shape=mxgraph.electrical.capacitors.capacitor_1;rotation=90;spacingRight=0;spacingTop=-5;labelPosition=center;direction=east;spacingLeft=0;spacing=2;" vertex="1" parent="1">
          <mxGeometry x="1121.25" y="495" width="32.5" height="20" as="geometry" />
        </mxCell>
        <mxCell id="-IPIXIhOzp1eECCD4319-8" value="" style="endArrow=none;html=1;rounded=0;exitX=1;exitY=0.5;exitDx=0;exitDy=0;exitPerimeter=0;" edge="1" parent="1" source="-IPIXIhOzp1eECCD4319-1">
          <mxGeometry width="50" height="50" relative="1" as="geometry">
            <mxPoint x="1087.5" y="555" as="sourcePoint" />
            <mxPoint x="1087.5" y="555" as="targetPoint" />
          </mxGeometry>
        </mxCell>
        <mxCell id="-IPIXIhOzp1eECCD4319-10" value="&lt;b style=&quot;font-size: 11px&quot;&gt;OPA333&lt;/b&gt;" style="verticalLabelPosition=middle;shadow=0;dashed=0;align=center;html=1;verticalAlign=middle;shape=mxgraph.electrical.abstract.operational_amp_1;rotation=0;spacingTop=0;labelPosition=center;fontSize=11;spacingLeft=0;spacingRight=5;" vertex="1" parent="1">
          <mxGeometry x="1207.5" y="505" width="60" height="60" as="geometry" />
        </mxCell>
        <mxCell id="-IPIXIhOzp1eECCD4319-11" value="" style="endArrow=none;html=1;rounded=0;exitX=1;exitY=0.5;exitDx=0;exitDy=0;exitPerimeter=0;" edge="1" parent="1" source="-IPIXIhOzp1eECCD4319-7">
          <mxGeometry width="50" height="50" relative="1" as="geometry">
            <mxPoint x="1137.5" y="545" as="sourcePoint" />
            <mxPoint x="1137.5" y="555" as="targetPoint" />
          </mxGeometry>
        </mxCell>
        <mxCell id="-IPIXIhOzp1eECCD4319-12" value="" style="endArrow=none;html=1;rounded=0;" edge="1" parent="1">
          <mxGeometry width="50" height="50" relative="1" as="geometry">
            <mxPoint x="1137.5" y="475" as="sourcePoint" />
            <mxPoint x="1137.5" y="495" as="targetPoint" />
          </mxGeometry>
        </mxCell>
        <mxCell id="-IPIXIhOzp1eECCD4319-13" value="" style="endArrow=none;html=1;rounded=0;exitDx=0;exitDy=0;exitPerimeter=0;startArrow=none;" edge="1" parent="1">
          <mxGeometry width="50" height="50" relative="1" as="geometry">
            <mxPoint x="1197.5" y="555" as="sourcePoint" />
            <mxPoint x="1207.5" y="555" as="targetPoint" />
          </mxGeometry>
        </mxCell>
        <mxCell id="-IPIXIhOzp1eECCD4319-14" value="" style="endArrow=none;html=1;rounded=0;" edge="1" parent="1">
          <mxGeometry width="50" height="50" relative="1" as="geometry">
            <mxPoint x="1187.5" y="515" as="sourcePoint" />
            <mxPoint x="1207.5" y="515" as="targetPoint" />
          </mxGeometry>
        </mxCell>
        <mxCell id="-IPIXIhOzp1eECCD4319-15" value="" style="endArrow=none;html=1;rounded=0;entryX=0;entryY=0.5;entryDx=0;entryDy=0;entryPerimeter=0;" edge="1" parent="1" target="-IPIXIhOzp1eECCD4319-23">
          <mxGeometry width="50" height="50" relative="1" as="geometry">
            <mxPoint x="1197.5" y="555" as="sourcePoint" />
            <mxPoint x="1197.5" y="565" as="targetPoint" />
          </mxGeometry>
        </mxCell>
        <mxCell id="-IPIXIhOzp1eECCD4319-16" value="" style="endArrow=none;html=1;rounded=0;exitX=1;exitY=0.5;exitDx=0;exitDy=0;exitPerimeter=0;" edge="1" parent="1" source="-IPIXIhOzp1eECCD4319-3">
          <mxGeometry width="50" height="50" relative="1" as="geometry">
            <mxPoint x="1227.5" y="555" as="sourcePoint" />
            <mxPoint x="1197.5" y="555" as="targetPoint" />
          </mxGeometry>
        </mxCell>
        <mxCell id="-IPIXIhOzp1eECCD4319-17" value="" style="pointerEvents=1;verticalLabelPosition=bottom;shadow=0;dashed=0;align=center;html=1;verticalAlign=top;shape=mxgraph.electrical.signal_sources.signal_ground;" vertex="1" parent="1">
          <mxGeometry x="1187.5" y="615" width="20" height="20" as="geometry" />
        </mxCell>
        <mxCell id="-IPIXIhOzp1eECCD4319-18" value="" style="endArrow=none;html=1;rounded=0;startArrow=none;" edge="1" parent="1">
          <mxGeometry width="50" height="50" relative="1" as="geometry">
            <mxPoint x="1277.5" y="535" as="sourcePoint" />
            <mxPoint x="1277.5" y="475" as="targetPoint" />
          </mxGeometry>
        </mxCell>
        <mxCell id="-IPIXIhOzp1eECCD4319-19" value="" style="endArrow=none;html=1;rounded=0;" edge="1" parent="1" target="-IPIXIhOzp1eECCD4319-26">
          <mxGeometry width="50" height="50" relative="1" as="geometry">
            <mxPoint x="1137.5" y="475" as="sourcePoint" />
            <mxPoint x="1277.5" y="485" as="targetPoint" />
          </mxGeometry>
        </mxCell>
        <mxCell id="-IPIXIhOzp1eECCD4319-20" value="" style="endArrow=none;html=1;rounded=0;exitDx=0;exitDy=0;exitPerimeter=0;startArrow=none;" edge="1" parent="1" source="-IPIXIhOzp1eECCD4319-30">
          <mxGeometry width="50" height="50" relative="1" as="geometry">
            <mxPoint x="1277.5" y="535" as="sourcePoint" />
            <mxPoint x="1287.5" y="535" as="targetPoint" />
          </mxGeometry>
        </mxCell>
        <mxCell id="-IPIXIhOzp1eECCD4319-21" value="" style="endArrow=none;html=1;rounded=0;exitX=1;exitY=0.5;exitDx=0;exitDy=0;exitPerimeter=0;" edge="1" parent="1">
          <mxGeometry width="50" height="50" relative="1" as="geometry">
            <mxPoint x="1327.5" y="535" as="sourcePoint" />
            <mxPoint x="1367.5" y="535" as="targetPoint" />
          </mxGeometry>
        </mxCell>
        <mxCell id="-IPIXIhOzp1eECCD4319-22" value="" style="endArrow=none;html=1;rounded=0;startArrow=none;entryX=1;entryY=0.486;entryDx=0;entryDy=0;entryPerimeter=0;" edge="1" parent="1">
          <mxGeometry width="50" height="50" relative="1" as="geometry">
            <mxPoint x="1137.5" y="555" as="sourcePoint" />
            <mxPoint x="1127.5" y="555" as="targetPoint" />
            <Array as="points">
              <mxPoint x="1137.5" y="555" />
            </Array>
          </mxGeometry>
        </mxCell>
        <mxCell id="-IPIXIhOzp1eECCD4319-23" value="&lt;b&gt;100pF&lt;/b&gt;" style="pointerEvents=1;verticalLabelPosition=top;shadow=0;dashed=0;align=left;html=1;verticalAlign=bottom;shape=mxgraph.electrical.capacitors.capacitor_1;rotation=90;spacingRight=0;spacingTop=0;labelPosition=right;direction=east;spacingLeft=-31;spacing=1;" vertex="1" parent="1">
          <mxGeometry x="1181.25" y="580" width="32.5" height="20" as="geometry" />
        </mxCell>
        <mxCell id="-IPIXIhOzp1eECCD4319-24" value="" style="endArrow=none;html=1;rounded=0;startArrow=none;entryDx=0;entryDy=0;entryPerimeter=0;" edge="1" parent="1">
          <mxGeometry width="50" height="50" relative="1" as="geometry">
            <mxPoint x="1127.5" y="555" as="sourcePoint" />
            <mxPoint x="1137.5" y="555" as="targetPoint" />
            <Array as="points" />
          </mxGeometry>
        </mxCell>
        <mxCell id="-IPIXIhOzp1eECCD4319-25" value="" style="endArrow=none;html=1;rounded=0;exitX=1;exitY=0.5;exitDx=0;exitDy=0;exitPerimeter=0;entryX=0.5;entryY=0;entryDx=0;entryDy=0;entryPerimeter=0;" edge="1" parent="1" source="-IPIXIhOzp1eECCD4319-23" target="-IPIXIhOzp1eECCD4319-17">
          <mxGeometry width="50" height="50" relative="1" as="geometry">
            <mxPoint x="1147.5" y="495" as="sourcePoint" />
            <mxPoint x="1147.5" y="528.75" as="targetPoint" />
          </mxGeometry>
        </mxCell>
        <mxCell id="-IPIXIhOzp1eECCD4319-26" value="" style="shape=waypoint;sketch=0;fillStyle=solid;size=6;pointerEvents=1;points=[];fillColor=none;resizable=0;rotatable=0;perimeter=centerPerimeter;snapToPoint=1;" vertex="1" parent="1">
          <mxGeometry x="1167.5" y="455" width="40" height="40" as="geometry" />
        </mxCell>
        <mxCell id="-IPIXIhOzp1eECCD4319-27" value="" style="endArrow=none;html=1;rounded=0;" edge="1" parent="1" target="-IPIXIhOzp1eECCD4319-26">
          <mxGeometry width="50" height="50" relative="1" as="geometry">
            <mxPoint x="1187.5" y="485" as="sourcePoint" />
            <mxPoint x="1187.5" y="515" as="targetPoint" />
          </mxGeometry>
        </mxCell>
        <mxCell id="-IPIXIhOzp1eECCD4319-28" value="" style="endArrow=none;html=1;rounded=0;" edge="1" parent="1">
          <mxGeometry width="50" height="50" relative="1" as="geometry">
            <mxPoint x="1297.5" y="534.3299999999999" as="sourcePoint" />
            <mxPoint x="1297.5" y="535" as="targetPoint" />
          </mxGeometry>
        </mxCell>
        <mxCell id="-IPIXIhOzp1eECCD4319-29" value="&lt;b&gt;51kΩ&lt;/b&gt;" style="pointerEvents=1;verticalLabelPosition=bottom;shadow=0;dashed=0;align=center;html=1;verticalAlign=top;shape=mxgraph.electrical.resistors.resistor_2;" vertex="1" parent="1">
          <mxGeometry x="1287.5" y="525" width="40" height="20" as="geometry" />
        </mxCell>
        <mxCell id="-IPIXIhOzp1eECCD4319-30" value="" style="shape=waypoint;sketch=0;fillStyle=solid;size=6;pointerEvents=1;points=[];fillColor=none;resizable=0;rotatable=0;perimeter=centerPerimeter;snapToPoint=1;" vertex="1" parent="1">
          <mxGeometry x="1257.5" y="515" width="40" height="40" as="geometry" />
        </mxCell>
        <mxCell id="-IPIXIhOzp1eECCD4319-31" value="" style="endArrow=none;html=1;rounded=0;exitX=1;exitY=0.5;exitDx=0;exitDy=0;exitPerimeter=0;" edge="1" parent="1" source="-IPIXIhOzp1eECCD4319-10" target="-IPIXIhOzp1eECCD4319-30">
          <mxGeometry width="50" height="50" relative="1" as="geometry">
            <mxPoint x="1267.5" y="535" as="sourcePoint" />
            <mxPoint x="1287.5" y="535" as="targetPoint" />
          </mxGeometry>
        </mxCell>
        <mxCell id="-IPIXIhOzp1eECCD4319-33" value="&lt;b&gt;4.7nF&lt;/b&gt;" style="pointerEvents=1;verticalLabelPosition=bottom;shadow=0;dashed=0;align=center;html=1;verticalAlign=middle;shape=mxgraph.electrical.capacitors.capacitor_1;rotation=90;spacingRight=0;spacingTop=-5;labelPosition=center;direction=east;spacingLeft=-17;spacing=2;" vertex="1" parent="1">
          <mxGeometry x="1327.5" y="580" width="32.5" height="20" as="geometry" />
        </mxCell>
        <mxCell id="-IPIXIhOzp1eECCD4319-34" value="" style="shape=waypoint;sketch=0;fillStyle=solid;size=6;pointerEvents=1;points=[];fillColor=none;resizable=0;rotatable=0;perimeter=centerPerimeter;snapToPoint=1;" vertex="1" parent="1">
          <mxGeometry x="1117.5" y="535" width="40" height="40" as="geometry" />
        </mxCell>
        <mxCell id="-IPIXIhOzp1eECCD4319-35" value="" style="endArrow=none;html=1;rounded=0;startArrow=none;entryDx=0;entryDy=0;entryPerimeter=0;" edge="1" parent="1" target="-IPIXIhOzp1eECCD4319-34">
          <mxGeometry width="50" height="50" relative="1" as="geometry">
            <mxPoint x="1137.5" y="555" as="sourcePoint" />
            <mxPoint x="1137.5" y="555" as="targetPoint" />
            <Array as="points" />
          </mxGeometry>
        </mxCell>
        <mxCell id="-IPIXIhOzp1eECCD4319-36" value="" style="endArrow=none;html=1;rounded=0;entryX=0;entryY=0.5;entryDx=0;entryDy=0;entryPerimeter=0;" edge="1" parent="1" target="-IPIXIhOzp1eECCD4319-33">
          <mxGeometry width="50" height="50" relative="1" as="geometry">
            <mxPoint x="1343.5" y="535" as="sourcePoint" />
            <mxPoint x="1097.5" y="415" as="targetPoint" />
          </mxGeometry>
        </mxCell>
        <mxCell id="-IPIXIhOzp1eECCD4319-37" value="" style="shape=waypoint;sketch=0;fillStyle=solid;size=6;pointerEvents=1;points=[];fillColor=none;resizable=0;rotatable=0;perimeter=centerPerimeter;snapToPoint=1;" vertex="1" parent="1">
          <mxGeometry x="1323.75" y="515" width="40" height="40" as="geometry" />
        </mxCell>
        <mxCell id="-IPIXIhOzp1eECCD4319-38" value="" style="pointerEvents=1;verticalLabelPosition=bottom;shadow=0;dashed=0;align=center;html=1;verticalAlign=top;shape=mxgraph.electrical.signal_sources.signal_ground;" vertex="1" parent="1">
          <mxGeometry x="1333.75" y="615" width="20" height="20" as="geometry" />
        </mxCell>
        <mxCell id="-IPIXIhOzp1eECCD4319-39" value="" style="endArrow=none;html=1;rounded=0;exitX=1;exitY=0.5;exitDx=0;exitDy=0;exitPerimeter=0;entryX=0.5;entryY=0;entryDx=0;entryDy=0;entryPerimeter=0;" edge="1" parent="1" source="-IPIXIhOzp1eECCD4319-33" target="-IPIXIhOzp1eECCD4319-38">
          <mxGeometry width="50" height="50" relative="1" as="geometry">
            <mxPoint x="1343.75" y="621.2500000000001" as="sourcePoint" />
            <mxPoint x="1293.75" y="528.75" as="targetPoint" />
          </mxGeometry>
        </mxCell>
        <mxCell id="-IPIXIhOzp1eECCD4319-40" value="&lt;b style=&quot;font-size: 11px&quot;&gt;OPA333&lt;/b&gt;" style="verticalLabelPosition=middle;shadow=0;dashed=0;align=center;html=1;verticalAlign=middle;shape=mxgraph.electrical.abstract.operational_amp_1;rotation=0;spacingTop=0;labelPosition=center;fontSize=11;spacingLeft=0;spacingRight=5;" vertex="1" parent="1">
          <mxGeometry x="1365.5" y="485" width="60" height="60" as="geometry" />
        </mxCell>
        <mxCell id="-IPIXIhOzp1eECCD4319-41" value="" style="endArrow=none;html=1;rounded=0;startArrow=none;" edge="1" parent="1">
          <mxGeometry width="50" height="50" relative="1" as="geometry">
            <mxPoint x="1345.5" y="475" as="sourcePoint" />
            <mxPoint x="1345.5" y="495" as="targetPoint" />
          </mxGeometry>
        </mxCell>
        <mxCell id="-IPIXIhOzp1eECCD4319-42" value="" style="endArrow=none;html=1;rounded=0;" edge="1" parent="1">
          <mxGeometry width="50" height="50" relative="1" as="geometry">
            <mxPoint x="1345.5" y="495" as="sourcePoint" />
            <mxPoint x="1365.5" y="495" as="targetPoint" />
          </mxGeometry>
        </mxCell>
        <mxCell id="-IPIXIhOzp1eECCD4319-43" value="" style="endArrow=none;html=1;rounded=0;startArrow=none;" edge="1" parent="1">
          <mxGeometry width="50" height="50" relative="1" as="geometry">
            <mxPoint x="1435.5" y="515" as="sourcePoint" />
            <mxPoint x="1435.5" y="475" as="targetPoint" />
          </mxGeometry>
        </mxCell>
        <mxCell id="-IPIXIhOzp1eECCD4319-44" value="" style="endArrow=none;html=1;rounded=0;exitDx=0;exitDy=0;exitPerimeter=0;startArrow=none;" edge="1" parent="1" source="-IPIXIhOzp1eECCD4319-49">
          <mxGeometry width="50" height="50" relative="1" as="geometry">
            <mxPoint x="1435.5" y="515" as="sourcePoint" />
            <mxPoint x="1445.5" y="515" as="targetPoint" />
          </mxGeometry>
        </mxCell>
        <mxCell id="-IPIXIhOzp1eECCD4319-45" value="" style="endArrow=none;html=1;rounded=0;" edge="1" parent="1">
          <mxGeometry width="50" height="50" relative="1" as="geometry">
            <mxPoint x="1345.5" y="465" as="sourcePoint" />
            <mxPoint x="1345.5" y="465" as="targetPoint" />
          </mxGeometry>
        </mxCell>
        <mxCell id="-IPIXIhOzp1eECCD4319-46" value="" style="endArrow=none;html=1;rounded=0;" edge="1" parent="1">
          <mxGeometry width="50" height="50" relative="1" as="geometry">
            <mxPoint x="1455.5" y="514.3299999999999" as="sourcePoint" />
            <mxPoint x="1455.5" y="515" as="targetPoint" />
          </mxGeometry>
        </mxCell>
        <mxCell id="-IPIXIhOzp1eECCD4319-47" value="" style="endArrow=none;html=1;rounded=0;exitX=1;exitY=0.5;exitDx=0;exitDy=0;exitPerimeter=0;" edge="1" parent="1">
          <mxGeometry width="50" height="50" relative="1" as="geometry">
            <mxPoint x="1425.5" y="515" as="sourcePoint" />
            <mxPoint x="1435.5" y="515" as="targetPoint" />
          </mxGeometry>
        </mxCell>
        <mxCell id="-IPIXIhOzp1eECCD4319-48" value="" style="endArrow=none;html=1;rounded=0;" edge="1" parent="1">
          <mxGeometry width="50" height="50" relative="1" as="geometry">
            <mxPoint x="1345.5" y="474.78" as="sourcePoint" />
            <mxPoint x="1435.5" y="474.78" as="targetPoint" />
          </mxGeometry>
        </mxCell>
        <mxCell id="-IPIXIhOzp1eECCD4319-49" value="" style="shape=waypoint;sketch=0;fillStyle=solid;size=6;pointerEvents=1;points=[];fillColor=none;resizable=0;rotatable=0;perimeter=centerPerimeter;snapToPoint=1;" vertex="1" parent="1">
          <mxGeometry x="1415.5" y="495" width="40" height="40" as="geometry" />
        </mxCell>
        <mxCell id="-IPIXIhOzp1eECCD4319-50" value="" style="endArrow=none;html=1;rounded=0;exitDx=0;exitDy=0;exitPerimeter=0;startArrow=none;" edge="1" parent="1" target="-IPIXIhOzp1eECCD4319-49">
          <mxGeometry width="50" height="50" relative="1" as="geometry">
            <mxPoint x="1435.5" y="515" as="sourcePoint" />
            <mxPoint x="1445.5" y="515" as="targetPoint" />
          </mxGeometry>
        </mxCell>
        <mxCell id="-IPIXIhOzp1eECCD4319-51" value="" style="endArrow=none;html=1;rounded=0;" edge="1" parent="1">
          <mxGeometry width="50" height="50" relative="1" as="geometry">
            <mxPoint x="1187.5" y="474.78" as="sourcePoint" />
            <mxPoint x="1277.5" y="475" as="targetPoint" />
          </mxGeometry>
        </mxCell>
        <mxCell id="-IPIXIhOzp1eECCD4319-52" value="&lt;b&gt;10Ω&lt;/b&gt;" style="pointerEvents=1;verticalLabelPosition=bottom;shadow=0;dashed=0;align=center;html=1;verticalAlign=top;shape=mxgraph.electrical.resistors.resistor_2;" vertex="1" parent="1">
          <mxGeometry x="1447.5" y="505" width="40" height="20" as="geometry" />
        </mxCell>
        <mxCell id="-IPIXIhOzp1eECCD4319-53" value="" style="endArrow=none;html=1;rounded=0;entryX=0;entryY=0.5;entryDx=0;entryDy=0;entryPerimeter=0;" edge="1" parent="1" source="-IPIXIhOzp1eECCD4319-49" target="-IPIXIhOzp1eECCD4319-52">
          <mxGeometry width="50" height="50" relative="1" as="geometry">
            <mxPoint x="1047.5" y="415" as="sourcePoint" />
            <mxPoint x="1097.5" y="415" as="targetPoint" />
          </mxGeometry>
        </mxCell>
        <mxCell id="-IPIXIhOzp1eECCD4319-54" value="" style="endArrow=none;html=1;rounded=0;exitX=1;exitY=0.5;exitDx=0;exitDy=0;exitPerimeter=0;entryX=1;entryY=0.5;entryDx=0;entryDy=0;entryPerimeter=0;" edge="1" parent="1" source="-IPIXIhOzp1eECCD4319-52" target="-IPIXIhOzp1eECCD4319-55">
          <mxGeometry width="50" height="50" relative="1" as="geometry">
            <mxPoint x="1487.5" y="545" as="sourcePoint" />
            <mxPoint x="1497.5" y="544.53" as="targetPoint" />
          </mxGeometry>
        </mxCell>
        <mxCell id="-IPIXIhOzp1eECCD4319-55" value="&lt;b&gt;10nF&lt;/b&gt;" style="pointerEvents=1;verticalLabelPosition=bottom;shadow=0;dashed=0;align=center;html=1;verticalAlign=middle;shape=mxgraph.electrical.capacitors.capacitor_1;rotation=0;spacingRight=0;spacingTop=8;labelPosition=center;direction=west;spacingLeft=0;spacing=2;" vertex="1" parent="1">
          <mxGeometry x="1497.5" y="505" width="32.5" height="20" as="geometry" />
        </mxCell>
        <mxCell id="-IPIXIhOzp1eECCD4319-224" value="" style="pointerEvents=1;fillColor=strokeColor;verticalLabelPosition=bottom;shadow=0;dashed=0;align=center;html=1;verticalAlign=top;shape=mxgraph.electrical.diodes.diode;" vertex="1" parent="1">
          <mxGeometry x="1842" y="485" width="40" height="20" as="geometry" />
        </mxCell>
        <mxCell id="-IPIXIhOzp1eECCD4319-225" value="" style="pointerEvents=1;verticalLabelPosition=bottom;shadow=0;dashed=0;align=center;html=1;verticalAlign=top;shape=mxgraph.electrical.signal_sources.signal_ground;" vertex="1" parent="1">
          <mxGeometry x="1892" y="615" width="20" height="20" as="geometry" />
        </mxCell>
        <mxCell id="-IPIXIhOzp1eECCD4319-226" value="" style="endArrow=none;html=1;rounded=0;startArrow=none;entryX=1;entryY=0.5;entryDx=0;entryDy=0;entryPerimeter=0;" edge="1" parent="1" target="-IPIXIhOzp1eECCD4319-240">
          <mxGeometry width="50" height="50" relative="1" as="geometry">
            <mxPoint x="2194" y="455" as="sourcePoint" />
            <mxPoint x="2182.75" y="454.81999999999994" as="targetPoint" />
          </mxGeometry>
        </mxCell>
        <mxCell id="-IPIXIhOzp1eECCD4319-229" value="&lt;b&gt;10nF&lt;/b&gt;" style="pointerEvents=1;verticalLabelPosition=bottom;shadow=0;dashed=0;align=center;html=1;verticalAlign=middle;shape=mxgraph.electrical.capacitors.capacitor_1;rotation=0;spacingRight=0;spacingTop=-5;labelPosition=center;direction=east;spacingLeft=-17;spacing=2;" vertex="1" parent="1">
          <mxGeometry x="1596.75" y="505" width="32.5" height="20" as="geometry" />
        </mxCell>
        <mxCell id="-IPIXIhOzp1eECCD4319-230" value="&lt;b&gt;5kΩ&lt;/b&gt;" style="pointerEvents=1;verticalLabelPosition=bottom;shadow=0;dashed=0;align=center;html=1;verticalAlign=top;shape=mxgraph.electrical.resistors.resistor_2;rotation=90;" vertex="1" parent="1">
          <mxGeometry x="1613" y="555" width="40" height="20" as="geometry" />
        </mxCell>
        <mxCell id="-IPIXIhOzp1eECCD4319-231" value="&lt;b&gt;LT1818&lt;/b&gt;" style="verticalLabelPosition=middle;shadow=0;dashed=0;align=center;html=1;verticalAlign=middle;shape=mxgraph.electrical.abstract.operational_amp_1;rotation=0;labelPosition=center;spacingRight=7;" vertex="1" parent="1">
          <mxGeometry x="1663" y="465" width="60" height="60" as="geometry" />
        </mxCell>
        <mxCell id="-IPIXIhOzp1eECCD4319-232" value="&lt;b&gt;10Ω&lt;/b&gt;" style="pointerEvents=1;verticalLabelPosition=bottom;shadow=0;dashed=0;align=center;html=1;verticalAlign=top;shape=mxgraph.electrical.resistors.resistor_2;" vertex="1" parent="1">
          <mxGeometry x="1743" y="485" width="40" height="20" as="geometry" />
        </mxCell>
        <mxCell id="-IPIXIhOzp1eECCD4319-233" value="&lt;b&gt;10nF&lt;/b&gt;" style="pointerEvents=1;verticalLabelPosition=bottom;shadow=0;dashed=0;align=center;html=1;verticalAlign=middle;shape=mxgraph.electrical.capacitors.capacitor_1;rotation=0;spacingRight=0;spacingTop=6;labelPosition=center;direction=east;spacingLeft=0;spacing=2;" vertex="1" parent="1">
          <mxGeometry x="1793" y="485" width="32.5" height="20" as="geometry" />
        </mxCell>
        <mxCell id="-IPIXIhOzp1eECCD4319-235" value="&lt;div&gt;&lt;b&gt;5kΩ&lt;/b&gt;&lt;/div&gt;" style="pointerEvents=1;verticalLabelPosition=bottom;shadow=0;dashed=0;align=center;html=1;verticalAlign=top;shape=mxgraph.electrical.resistors.resistor_2;rotation=90;spacingTop=-4;" vertex="1" parent="1">
          <mxGeometry x="1854.5" y="555" width="40" height="20" as="geometry" />
        </mxCell>
        <mxCell id="-IPIXIhOzp1eECCD4319-236" value="&lt;div&gt;&lt;b&gt;0.1µF&lt;/b&gt;&lt;/div&gt;" style="pointerEvents=1;verticalLabelPosition=bottom;shadow=0;dashed=0;align=center;html=1;verticalAlign=middle;shape=mxgraph.electrical.capacitors.capacitor_1;rotation=90;spacingRight=0;spacingTop=-2;labelPosition=center;direction=east;spacingLeft=0;spacing=2;" vertex="1" parent="1">
          <mxGeometry x="1917.75" y="555" width="32.5" height="20" as="geometry" />
        </mxCell>
        <mxCell id="-IPIXIhOzp1eECCD4319-238" value="&lt;b&gt;75kΩ&lt;/b&gt;" style="pointerEvents=1;verticalLabelPosition=bottom;shadow=0;dashed=0;align=center;html=1;verticalAlign=top;shape=mxgraph.electrical.resistors.resistor_2;" vertex="1" parent="1">
          <mxGeometry x="1996.5" y="465" width="40" height="20" as="geometry" />
        </mxCell>
        <mxCell id="-IPIXIhOzp1eECCD4319-239" value="&lt;b&gt;75kΩ&lt;/b&gt;" style="pointerEvents=1;verticalLabelPosition=bottom;shadow=0;dashed=0;align=center;html=1;verticalAlign=top;shape=mxgraph.electrical.resistors.resistor_2;" vertex="1" parent="1">
          <mxGeometry x="2054" y="465" width="40" height="20" as="geometry" />
        </mxCell>
        <mxCell id="-IPIXIhOzp1eECCD4319-240" value="&lt;div&gt;&lt;b&gt;OPA2349&lt;br&gt;&lt;/b&gt;&lt;/div&gt;" style="verticalLabelPosition=middle;shadow=0;dashed=0;align=center;html=1;verticalAlign=middle;shape=mxgraph.electrical.abstract.operational_amp_1;rotation=0;labelPosition=center;spacing=2;spacingRight=4;" vertex="1" parent="1">
          <mxGeometry x="2116.5" y="425" width="60" height="60" as="geometry" />
        </mxCell>
        <mxCell id="-IPIXIhOzp1eECCD4319-243" value="" style="endArrow=none;html=1;rounded=0;entryX=1;entryY=0.5;entryDx=0;entryDy=0;entryPerimeter=0;" edge="1" parent="1" target="-IPIXIhOzp1eECCD4319-229">
          <mxGeometry width="50" height="50" relative="1" as="geometry">
            <mxPoint x="1663" y="515" as="sourcePoint" />
            <mxPoint x="1543" y="525" as="targetPoint" />
          </mxGeometry>
        </mxCell>
        <mxCell id="-IPIXIhOzp1eECCD4319-244" value="" style="endArrow=none;html=1;rounded=0;" edge="1" parent="1">
          <mxGeometry width="50" height="50" relative="1" as="geometry">
            <mxPoint x="1663" y="475" as="sourcePoint" />
            <mxPoint x="1653" y="475" as="targetPoint" />
          </mxGeometry>
        </mxCell>
        <mxCell id="-IPIXIhOzp1eECCD4319-245" value="" style="endArrow=none;html=1;rounded=0;exitDx=0;exitDy=0;exitPerimeter=0;startArrow=none;" edge="1" parent="1" source="-IPIXIhOzp1eECCD4319-277">
          <mxGeometry width="50" height="50" relative="1" as="geometry">
            <mxPoint x="1616.75" y="525" as="sourcePoint" />
            <mxPoint x="1643" y="515" as="targetPoint" />
          </mxGeometry>
        </mxCell>
        <mxCell id="-IPIXIhOzp1eECCD4319-246" value="" style="endArrow=none;html=1;rounded=0;" edge="1" parent="1">
          <mxGeometry width="50" height="50" relative="1" as="geometry">
            <mxPoint x="1653" y="475" as="sourcePoint" />
            <mxPoint x="1653" y="455" as="targetPoint" />
          </mxGeometry>
        </mxCell>
        <mxCell id="-IPIXIhOzp1eECCD4319-247" value="" style="endArrow=none;html=1;rounded=0;" edge="1" parent="1">
          <mxGeometry width="50" height="50" relative="1" as="geometry">
            <mxPoint x="1733" y="455" as="sourcePoint" />
            <mxPoint x="1653" y="455" as="targetPoint" />
          </mxGeometry>
        </mxCell>
        <mxCell id="-IPIXIhOzp1eECCD4319-248" value="" style="endArrow=none;html=1;rounded=0;" edge="1" parent="1">
          <mxGeometry width="50" height="50" relative="1" as="geometry">
            <mxPoint x="1733" y="495" as="sourcePoint" />
            <mxPoint x="1733" y="455" as="targetPoint" />
          </mxGeometry>
        </mxCell>
        <mxCell id="-IPIXIhOzp1eECCD4319-249" value="" style="endArrow=none;html=1;rounded=0;entryX=1;entryY=0.5;entryDx=0;entryDy=0;entryPerimeter=0;startArrow=none;" edge="1" parent="1" source="-IPIXIhOzp1eECCD4319-279" target="-IPIXIhOzp1eECCD4319-231">
          <mxGeometry width="50" height="50" relative="1" as="geometry">
            <mxPoint x="1743" y="495" as="sourcePoint" />
            <mxPoint x="1663" y="484.9999999999999" as="targetPoint" />
          </mxGeometry>
        </mxCell>
        <mxCell id="-IPIXIhOzp1eECCD4319-250" value="" style="endArrow=none;html=1;rounded=0;entryX=1;entryY=0.5;entryDx=0;entryDy=0;entryPerimeter=0;exitX=0;exitY=0.5;exitDx=0;exitDy=0;exitPerimeter=0;" edge="1" parent="1" source="-IPIXIhOzp1eECCD4319-233" target="-IPIXIhOzp1eECCD4319-232">
          <mxGeometry width="50" height="50" relative="1" as="geometry">
            <mxPoint x="1743" y="464.9999999999999" as="sourcePoint" />
            <mxPoint x="1663" y="464.9999999999999" as="targetPoint" />
          </mxGeometry>
        </mxCell>
        <mxCell id="-IPIXIhOzp1eECCD4319-252" value="" style="endArrow=none;html=1;rounded=0;entryX=1;entryY=0.5;entryDx=0;entryDy=0;entryPerimeter=0;startArrow=none;" edge="1" parent="1" target="-IPIXIhOzp1eECCD4319-233">
          <mxGeometry width="50" height="50" relative="1" as="geometry">
            <mxPoint x="1833" y="495" as="sourcePoint" />
            <mxPoint x="1663" y="464.9999999999999" as="targetPoint" />
          </mxGeometry>
        </mxCell>
        <mxCell id="-IPIXIhOzp1eECCD4319-254" value="" style="endArrow=none;html=1;rounded=0;exitX=0;exitY=0.5;exitDx=0;exitDy=0;exitPerimeter=0;" edge="1" parent="1" source="-IPIXIhOzp1eECCD4319-224">
          <mxGeometry width="50" height="50" relative="1" as="geometry">
            <mxPoint x="1834" y="515" as="sourcePoint" />
            <mxPoint x="1830" y="495" as="targetPoint" />
          </mxGeometry>
        </mxCell>
        <mxCell id="-IPIXIhOzp1eECCD4319-257" value="" style="endArrow=none;html=1;rounded=0;entryX=1;entryY=0.5;entryDx=0;entryDy=0;entryPerimeter=0;exitX=0;exitY=0.835;exitDx=0;exitDy=0;exitPerimeter=0;" edge="1" parent="1" source="-IPIXIhOzp1eECCD4319-265" target="-IPIXIhOzp1eECCD4319-224">
          <mxGeometry width="50" height="50" relative="1" as="geometry">
            <mxPoint x="1924" y="495" as="sourcePoint" />
            <mxPoint x="1816.5" y="505" as="targetPoint" />
          </mxGeometry>
        </mxCell>
        <mxCell id="-IPIXIhOzp1eECCD4319-258" value="" style="endArrow=none;html=1;rounded=0;" edge="1" parent="1">
          <mxGeometry width="50" height="50" relative="1" as="geometry">
            <mxPoint x="1901.9999999999995" y="535" as="sourcePoint" />
            <mxPoint x="1901.9999999999995" y="495" as="targetPoint" />
          </mxGeometry>
        </mxCell>
        <mxCell id="-IPIXIhOzp1eECCD4319-259" value="" style="endArrow=none;html=1;rounded=0;" edge="1" parent="1">
          <mxGeometry width="50" height="50" relative="1" as="geometry">
            <mxPoint x="1934" y="535" as="sourcePoint" />
            <mxPoint x="1874" y="535" as="targetPoint" />
          </mxGeometry>
        </mxCell>
        <mxCell id="-IPIXIhOzp1eECCD4319-260" value="" style="endArrow=none;html=1;rounded=0;exitX=0;exitY=0.5;exitDx=0;exitDy=0;exitPerimeter=0;" edge="1" parent="1" source="-IPIXIhOzp1eECCD4319-235">
          <mxGeometry width="50" height="50" relative="1" as="geometry">
            <mxPoint x="1874.25" y="540" as="sourcePoint" />
            <mxPoint x="1874" y="535" as="targetPoint" />
          </mxGeometry>
        </mxCell>
        <mxCell id="-IPIXIhOzp1eECCD4319-261" value="" style="endArrow=none;html=1;rounded=0;exitX=0;exitY=0.5;exitDx=0;exitDy=0;exitPerimeter=0;" edge="1" parent="1" source="-IPIXIhOzp1eECCD4319-236">
          <mxGeometry width="50" height="50" relative="1" as="geometry">
            <mxPoint x="1921.75" y="552.5" as="sourcePoint" />
            <mxPoint x="1934" y="535" as="targetPoint" />
          </mxGeometry>
        </mxCell>
        <mxCell id="-IPIXIhOzp1eECCD4319-262" value="" style="endArrow=none;html=1;rounded=0;entryX=1;entryY=0.5;entryDx=0;entryDy=0;entryPerimeter=0;" edge="1" parent="1" target="-IPIXIhOzp1eECCD4319-235">
          <mxGeometry width="50" height="50" relative="1" as="geometry">
            <mxPoint x="1875" y="595" as="sourcePoint" />
            <mxPoint x="1874.3600000000001" y="590" as="targetPoint" />
          </mxGeometry>
        </mxCell>
        <mxCell id="-IPIXIhOzp1eECCD4319-263" value="" style="endArrow=none;html=1;rounded=0;entryX=1;entryY=0.5;entryDx=0;entryDy=0;entryPerimeter=0;" edge="1" parent="1" target="-IPIXIhOzp1eECCD4319-236">
          <mxGeometry width="50" height="50" relative="1" as="geometry">
            <mxPoint x="1934" y="595" as="sourcePoint" />
            <mxPoint x="1941.75" y="575" as="targetPoint" />
          </mxGeometry>
        </mxCell>
        <mxCell id="-IPIXIhOzp1eECCD4319-264" value="" style="endArrow=none;html=1;rounded=0;" edge="1" parent="1">
          <mxGeometry width="50" height="50" relative="1" as="geometry">
            <mxPoint x="1935" y="595" as="sourcePoint" />
            <mxPoint x="1875" y="595" as="targetPoint" />
          </mxGeometry>
        </mxCell>
        <mxCell id="-IPIXIhOzp1eECCD4319-265" value="&lt;b&gt;OPA333&lt;/b&gt;" style="verticalLabelPosition=middle;shadow=0;dashed=0;align=center;html=1;verticalAlign=middle;shape=mxgraph.electrical.abstract.operational_amp_1;rotation=0;labelPosition=center;spacingRight=7;" vertex="1" parent="1">
          <mxGeometry x="1922" y="445" width="60" height="60" as="geometry" />
        </mxCell>
        <mxCell id="-IPIXIhOzp1eECCD4319-266" value="&lt;div style=&quot;font-size: 12px&quot;&gt;&lt;b&gt;&lt;font style=&quot;font-size: 12px&quot;&gt;VBIAS&lt;/font&gt;&lt;/b&gt;&lt;/div&gt;" style="verticalLabelPosition=top;verticalAlign=bottom;shape=mxgraph.electrical.signal_sources.vdd;shadow=0;dashed=0;align=center;strokeWidth=1;fontSize=24;html=1;flipV=1;rotation=90;" vertex="1" parent="1">
          <mxGeometry x="1653" y="615" width="33.75" height="20" as="geometry" />
        </mxCell>
        <mxCell id="-IPIXIhOzp1eECCD4319-267" value="&lt;b&gt;0.22µF&lt;/b&gt;" style="pointerEvents=1;verticalLabelPosition=bottom;shadow=0;dashed=0;align=center;html=1;verticalAlign=middle;shape=mxgraph.electrical.capacitors.capacitor_1;rotation=90;spacingRight=0;spacingTop=8;labelPosition=center;direction=east;spacingLeft=0;spacing=2;" vertex="1" parent="1">
          <mxGeometry x="2024" y="425" width="32.5" height="20" as="geometry" />
        </mxCell>
        <mxCell id="-IPIXIhOzp1eECCD4319-268" value="&lt;b&gt;0.1µF&lt;/b&gt;" style="pointerEvents=1;verticalLabelPosition=bottom;shadow=0;dashed=0;align=center;html=1;verticalAlign=middle;shape=mxgraph.electrical.capacitors.capacitor_1;rotation=90;spacingRight=0;spacingTop=8;labelPosition=center;direction=east;spacingLeft=0;spacing=2;" vertex="1" parent="1">
          <mxGeometry x="2090.25" y="525" width="32.5" height="20" as="geometry" />
        </mxCell>
        <mxCell id="-IPIXIhOzp1eECCD4319-269" value="" style="endArrow=none;html=1;rounded=0;entryX=1;entryY=0.5;entryDx=0;entryDy=0;entryPerimeter=0;exitX=0;exitY=0.5;exitDx=0;exitDy=0;exitPerimeter=0;" edge="1" parent="1" source="-IPIXIhOzp1eECCD4319-239" target="-IPIXIhOzp1eECCD4319-238">
          <mxGeometry width="50" height="50" relative="1" as="geometry">
            <mxPoint x="2054" y="475" as="sourcePoint" />
            <mxPoint x="2044" y="475" as="targetPoint" />
          </mxGeometry>
        </mxCell>
        <mxCell id="-IPIXIhOzp1eECCD4319-270" value="" style="endArrow=none;html=1;rounded=0;entryX=1;entryY=0.5;entryDx=0;entryDy=0;entryPerimeter=0;" edge="1" parent="1" target="-IPIXIhOzp1eECCD4319-267">
          <mxGeometry width="50" height="50" relative="1" as="geometry">
            <mxPoint x="2040" y="475" as="sourcePoint" />
            <mxPoint x="2052.75" y="485" as="targetPoint" />
          </mxGeometry>
        </mxCell>
        <mxCell id="-IPIXIhOzp1eECCD4319-271" value="" style="endArrow=none;html=1;rounded=0;entryX=1;entryY=0.5;entryDx=0;entryDy=0;entryPerimeter=0;exitX=0;exitY=0.835;exitDx=0;exitDy=0;exitPerimeter=0;" edge="1" parent="1" source="-IPIXIhOzp1eECCD4319-240" target="-IPIXIhOzp1eECCD4319-239">
          <mxGeometry width="50" height="50" relative="1" as="geometry">
            <mxPoint x="2060" y="485" as="sourcePoint" />
            <mxPoint x="2060.25" y="471.25" as="targetPoint" />
          </mxGeometry>
        </mxCell>
        <mxCell id="-IPIXIhOzp1eECCD4319-272" value="" style="endArrow=none;html=1;rounded=0;exitDx=0;exitDy=0;exitPerimeter=0;startArrow=none;" edge="1" parent="1" source="-IPIXIhOzp1eECCD4319-286">
          <mxGeometry width="50" height="50" relative="1" as="geometry">
            <mxPoint x="2132.75" y="485.1" as="sourcePoint" />
            <mxPoint x="2106.9999999999995" y="475" as="targetPoint" />
          </mxGeometry>
        </mxCell>
        <mxCell id="-IPIXIhOzp1eECCD4319-273" value="" style="pointerEvents=1;verticalLabelPosition=bottom;shadow=0;dashed=0;align=center;html=1;verticalAlign=top;shape=mxgraph.electrical.signal_sources.signal_ground;" vertex="1" parent="1">
          <mxGeometry x="2096.5" y="555" width="20" height="20" as="geometry" />
        </mxCell>
        <mxCell id="-IPIXIhOzp1eECCD4319-274" value="" style="endArrow=none;html=1;rounded=0;exitX=0.5;exitY=0;exitDx=0;exitDy=0;exitPerimeter=0;entryX=1;entryY=0.5;entryDx=0;entryDy=0;entryPerimeter=0;" edge="1" parent="1" source="-IPIXIhOzp1eECCD4319-273" target="-IPIXIhOzp1eECCD4319-268">
          <mxGeometry width="50" height="50" relative="1" as="geometry">
            <mxPoint x="1914.5" y="615" as="sourcePoint" />
            <mxPoint x="1915" y="605" as="targetPoint" />
          </mxGeometry>
        </mxCell>
        <mxCell id="-IPIXIhOzp1eECCD4319-275" value="" style="endArrow=none;html=1;rounded=0;entryX=0;entryY=0.5;entryDx=0;entryDy=0;entryPerimeter=0;startArrow=none;" edge="1" parent="1" target="-IPIXIhOzp1eECCD4319-267">
          <mxGeometry width="50" height="50" relative="1" as="geometry">
            <mxPoint x="2094" y="405" as="sourcePoint" />
            <mxPoint x="1991.5" y="405.07000000000005" as="targetPoint" />
            <Array as="points">
              <mxPoint x="2040" y="405" />
            </Array>
          </mxGeometry>
        </mxCell>
        <mxCell id="-IPIXIhOzp1eECCD4319-276" value="" style="endArrow=none;html=1;rounded=0;entryX=1;entryY=0.5;entryDx=0;entryDy=0;entryPerimeter=0;exitDx=0;exitDy=0;exitPerimeter=0;startArrow=none;" edge="1" parent="1" source="-IPIXIhOzp1eECCD4319-289" target="-IPIXIhOzp1eECCD4319-265">
          <mxGeometry width="50" height="50" relative="1" as="geometry">
            <mxPoint x="2224" y="465" as="sourcePoint" />
            <mxPoint x="2192.75" y="464.82000000000005" as="targetPoint" />
          </mxGeometry>
        </mxCell>
        <mxCell id="-IPIXIhOzp1eECCD4319-277" value="" style="shape=waypoint;sketch=0;fillStyle=solid;size=6;pointerEvents=1;points=[];fillColor=none;resizable=0;rotatable=0;perimeter=centerPerimeter;snapToPoint=1;" vertex="1" parent="1">
          <mxGeometry x="1613" y="495" width="40" height="40" as="geometry" />
        </mxCell>
        <mxCell id="-IPIXIhOzp1eECCD4319-278" value="" style="endArrow=none;html=1;rounded=0;exitX=0;exitY=0.5;exitDx=0;exitDy=0;exitPerimeter=0;" edge="1" parent="1" source="-IPIXIhOzp1eECCD4319-230" target="-IPIXIhOzp1eECCD4319-277">
          <mxGeometry width="50" height="50" relative="1" as="geometry">
            <mxPoint x="1643" y="545" as="sourcePoint" />
            <mxPoint x="1643" y="515" as="targetPoint" />
          </mxGeometry>
        </mxCell>
        <mxCell id="-IPIXIhOzp1eECCD4319-279" value="" style="shape=waypoint;sketch=0;fillStyle=solid;size=6;pointerEvents=1;points=[];fillColor=none;resizable=0;rotatable=0;perimeter=centerPerimeter;snapToPoint=1;" vertex="1" parent="1">
          <mxGeometry x="1713" y="475" width="40" height="40" as="geometry" />
        </mxCell>
        <mxCell id="-IPIXIhOzp1eECCD4319-280" value="" style="endArrow=none;html=1;rounded=0;entryDx=0;entryDy=0;entryPerimeter=0;" edge="1" parent="1" target="-IPIXIhOzp1eECCD4319-279">
          <mxGeometry width="50" height="50" relative="1" as="geometry">
            <mxPoint x="1743" y="495" as="sourcePoint" />
            <mxPoint x="1723" y="495" as="targetPoint" />
          </mxGeometry>
        </mxCell>
        <mxCell id="-IPIXIhOzp1eECCD4319-282" value="" style="endArrow=none;html=1;rounded=0;entryDx=0;entryDy=0;entryPerimeter=0;" edge="1" parent="1">
          <mxGeometry width="50" height="50" relative="1" as="geometry">
            <mxPoint x="1853" y="495" as="sourcePoint" />
            <mxPoint x="1833" y="495" as="targetPoint" />
          </mxGeometry>
        </mxCell>
        <mxCell id="-IPIXIhOzp1eECCD4319-284" value="" style="shape=waypoint;sketch=0;fillStyle=solid;size=6;pointerEvents=1;points=[];fillColor=none;resizable=0;rotatable=0;perimeter=centerPerimeter;snapToPoint=1;" vertex="1" parent="1">
          <mxGeometry x="1882" y="475" width="40" height="40" as="geometry" />
        </mxCell>
        <mxCell id="-IPIXIhOzp1eECCD4319-285" value="" style="shape=waypoint;sketch=0;fillStyle=solid;size=6;pointerEvents=1;points=[];fillColor=none;resizable=0;rotatable=0;perimeter=centerPerimeter;snapToPoint=1;" vertex="1" parent="1">
          <mxGeometry x="2020.25" y="455" width="40" height="40" as="geometry" />
        </mxCell>
        <mxCell id="-IPIXIhOzp1eECCD4319-286" value="" style="shape=waypoint;sketch=0;fillStyle=solid;size=6;pointerEvents=1;points=[];fillColor=none;resizable=0;rotatable=0;perimeter=centerPerimeter;snapToPoint=1;" vertex="1" parent="1">
          <mxGeometry x="2086.5" y="455" width="40" height="40" as="geometry" />
        </mxCell>
        <mxCell id="-IPIXIhOzp1eECCD4319-287" value="" style="endArrow=none;html=1;rounded=0;exitX=0;exitY=0.5;exitDx=0;exitDy=0;exitPerimeter=0;" edge="1" parent="1" source="-IPIXIhOzp1eECCD4319-268" target="-IPIXIhOzp1eECCD4319-286">
          <mxGeometry width="50" height="50" relative="1" as="geometry">
            <mxPoint x="2106.5" y="518.75" as="sourcePoint" />
            <mxPoint x="2107" y="475" as="targetPoint" />
          </mxGeometry>
        </mxCell>
        <mxCell id="-IPIXIhOzp1eECCD4319-288" value="" style="endArrow=none;html=1;rounded=0;" edge="1" parent="1">
          <mxGeometry width="50" height="50" relative="1" as="geometry">
            <mxPoint x="2214" y="455" as="sourcePoint" />
            <mxPoint x="2194" y="455" as="targetPoint" />
          </mxGeometry>
        </mxCell>
        <mxCell id="-IPIXIhOzp1eECCD4319-289" value="" style="shape=waypoint;sketch=0;fillStyle=solid;size=6;pointerEvents=1;points=[];fillColor=none;resizable=0;rotatable=0;perimeter=centerPerimeter;snapToPoint=1;" vertex="1" parent="1">
          <mxGeometry x="1974" y="455" width="40" height="40" as="geometry" />
        </mxCell>
        <mxCell id="-IPIXIhOzp1eECCD4319-290" value="" style="endArrow=none;html=1;rounded=0;entryDx=0;entryDy=0;entryPerimeter=0;exitX=0;exitY=0.5;exitDx=0;exitDy=0;exitPerimeter=0;" edge="1" parent="1" source="-IPIXIhOzp1eECCD4319-238" target="-IPIXIhOzp1eECCD4319-289">
          <mxGeometry width="50" height="50" relative="1" as="geometry">
            <mxPoint x="1996.5" y="475" as="sourcePoint" />
            <mxPoint x="1982" y="475" as="targetPoint" />
          </mxGeometry>
        </mxCell>
        <mxCell id="-IPIXIhOzp1eECCD4319-291" value="" style="endArrow=none;html=1;rounded=0;" edge="1" parent="1">
          <mxGeometry width="50" height="50" relative="1" as="geometry">
            <mxPoint x="1994" y="425" as="sourcePoint" />
            <mxPoint x="1904" y="425" as="targetPoint" />
          </mxGeometry>
        </mxCell>
        <mxCell id="-IPIXIhOzp1eECCD4319-292" value="" style="endArrow=none;html=1;rounded=0;" edge="1" parent="1" source="-IPIXIhOzp1eECCD4319-289">
          <mxGeometry width="50" height="50" relative="1" as="geometry">
            <mxPoint x="1992" y="435" as="sourcePoint" />
            <mxPoint x="1994" y="425" as="targetPoint" />
          </mxGeometry>
        </mxCell>
        <mxCell id="-IPIXIhOzp1eECCD4319-293" value="" style="endArrow=none;html=1;rounded=0;" edge="1" parent="1">
          <mxGeometry width="50" height="50" relative="1" as="geometry">
            <mxPoint x="1904" y="455" as="sourcePoint" />
            <mxPoint x="1904" y="425" as="targetPoint" />
          </mxGeometry>
        </mxCell>
        <mxCell id="-IPIXIhOzp1eECCD4319-294" value="" style="endArrow=none;html=1;rounded=0;exitX=0;exitY=0.165;exitDx=0;exitDy=0;exitPerimeter=0;" edge="1" parent="1" source="-IPIXIhOzp1eECCD4319-265">
          <mxGeometry width="50" height="50" relative="1" as="geometry">
            <mxPoint x="2004" y="435" as="sourcePoint" />
            <mxPoint x="1904" y="455" as="targetPoint" />
          </mxGeometry>
        </mxCell>
        <mxCell id="-IPIXIhOzp1eECCD4319-295" value="" style="endArrow=none;html=1;rounded=0;" edge="1" parent="1">
          <mxGeometry width="50" height="50" relative="1" as="geometry">
            <mxPoint x="2094" y="435" as="sourcePoint" />
            <mxPoint x="2094" y="405" as="targetPoint" />
            <Array as="points" />
          </mxGeometry>
        </mxCell>
        <mxCell id="-IPIXIhOzp1eECCD4319-296" value="" style="endArrow=none;html=1;rounded=0;exitX=0;exitY=0.165;exitDx=0;exitDy=0;exitPerimeter=0;" edge="1" parent="1" source="-IPIXIhOzp1eECCD4319-240">
          <mxGeometry width="50" height="50" relative="1" as="geometry">
            <mxPoint x="2114" y="435" as="sourcePoint" />
            <mxPoint x="2094" y="435" as="targetPoint" />
          </mxGeometry>
        </mxCell>
        <mxCell id="-IPIXIhOzp1eECCD4319-297" value="" style="endArrow=none;html=1;rounded=0;" edge="1" parent="1">
          <mxGeometry width="50" height="50" relative="1" as="geometry">
            <mxPoint x="2194" y="405" as="sourcePoint" />
            <mxPoint x="2094" y="405" as="targetPoint" />
            <Array as="points" />
          </mxGeometry>
        </mxCell>
        <mxCell id="-IPIXIhOzp1eECCD4319-298" value="" style="shape=waypoint;sketch=0;fillStyle=solid;size=6;pointerEvents=1;points=[];fillColor=none;resizable=0;rotatable=0;perimeter=centerPerimeter;snapToPoint=1;" vertex="1" parent="1">
          <mxGeometry x="2074" y="385" width="40" height="40" as="geometry" />
        </mxCell>
        <mxCell id="-IPIXIhOzp1eECCD4319-299" style="edgeStyle=none;rounded=0;orthogonalLoop=1;jettySize=auto;html=1;fontSize=12;" edge="1" parent="1" source="-IPIXIhOzp1eECCD4319-298" target="-IPIXIhOzp1eECCD4319-298">
          <mxGeometry relative="1" as="geometry" />
        </mxCell>
        <mxCell id="-IPIXIhOzp1eECCD4319-300" value="" style="shape=waypoint;sketch=0;fillStyle=solid;size=6;pointerEvents=1;points=[];fillColor=none;resizable=0;rotatable=0;perimeter=centerPerimeter;snapToPoint=1;" vertex="1" parent="1">
          <mxGeometry x="2174" y="435" width="40" height="40" as="geometry" />
        </mxCell>
        <mxCell id="-IPIXIhOzp1eECCD4319-301" value="" style="endArrow=none;html=1;rounded=0;" edge="1" parent="1" source="-IPIXIhOzp1eECCD4319-300">
          <mxGeometry width="50" height="50" relative="1" as="geometry">
            <mxPoint x="2004" y="485" as="sourcePoint" />
            <mxPoint x="2194" y="405" as="targetPoint" />
          </mxGeometry>
        </mxCell>
        <mxCell id="-IPIXIhOzp1eECCD4319-302" value="" style="shape=waypoint;sketch=0;fillStyle=solid;size=6;pointerEvents=1;points=[];fillColor=none;resizable=0;rotatable=0;perimeter=centerPerimeter;snapToPoint=1;" vertex="1" parent="1">
          <mxGeometry x="1882" y="575" width="40" height="40" as="geometry" />
        </mxCell>
        <mxCell id="-IPIXIhOzp1eECCD4319-303" value="" style="endArrow=none;html=1;rounded=0;exitX=0.5;exitY=0;exitDx=0;exitDy=0;exitPerimeter=0;" edge="1" parent="1" source="-IPIXIhOzp1eECCD4319-225" target="-IPIXIhOzp1eECCD4319-302">
          <mxGeometry width="50" height="50" relative="1" as="geometry">
            <mxPoint x="1824" y="554.9999999999999" as="sourcePoint" />
            <mxPoint x="1824" y="504.9999999999999" as="targetPoint" />
          </mxGeometry>
        </mxCell>
        <mxCell id="-IPIXIhOzp1eECCD4319-304" value="" style="shape=waypoint;sketch=0;fillStyle=solid;size=6;pointerEvents=1;points=[];fillColor=none;resizable=0;rotatable=0;perimeter=centerPerimeter;snapToPoint=1;" vertex="1" parent="1">
          <mxGeometry x="1882" y="515" width="40" height="40" as="geometry" />
        </mxCell>
        <mxCell id="-IPIXIhOzp1eECCD4319-305" value="" style="pointerEvents=1;fillColor=strokeColor;verticalLabelPosition=bottom;shadow=0;dashed=0;align=center;html=1;verticalAlign=top;shape=mxgraph.electrical.diodes.diode;" vertex="1" parent="1">
          <mxGeometry x="1842" y="745" width="40" height="20" as="geometry" />
        </mxCell>
        <mxCell id="-IPIXIhOzp1eECCD4319-306" value="" style="endArrow=none;html=1;rounded=0;startArrow=none;entryX=1;entryY=0.5;entryDx=0;entryDy=0;entryPerimeter=0;" edge="1" parent="1" target="-IPIXIhOzp1eECCD4319-317">
          <mxGeometry width="50" height="50" relative="1" as="geometry">
            <mxPoint x="2194" y="715" as="sourcePoint" />
            <mxPoint x="2182.75" y="714.8199999999999" as="targetPoint" />
          </mxGeometry>
        </mxCell>
        <mxCell id="-IPIXIhOzp1eECCD4319-307" value="&lt;b&gt;10nF&lt;/b&gt;" style="pointerEvents=1;verticalLabelPosition=bottom;shadow=0;dashed=0;align=center;html=1;verticalAlign=middle;shape=mxgraph.electrical.capacitors.capacitor_1;rotation=0;spacingRight=0;spacingTop=-5;labelPosition=center;direction=east;spacingLeft=-17;spacing=2;" vertex="1" parent="1">
          <mxGeometry x="1596.75" y="765" width="32.5" height="20" as="geometry" />
        </mxCell>
        <mxCell id="-IPIXIhOzp1eECCD4319-308" value="&lt;b&gt;5kΩ&lt;/b&gt;" style="pointerEvents=1;verticalLabelPosition=bottom;shadow=0;dashed=0;align=center;html=1;verticalAlign=top;shape=mxgraph.electrical.resistors.resistor_2;rotation=90;" vertex="1" parent="1">
          <mxGeometry x="1613" y="705" width="40" height="20" as="geometry" />
        </mxCell>
        <mxCell id="-IPIXIhOzp1eECCD4319-309" value="&lt;b&gt;LT1818&lt;/b&gt;" style="verticalLabelPosition=middle;shadow=0;dashed=0;align=center;html=1;verticalAlign=middle;shape=mxgraph.electrical.abstract.operational_amp_1;rotation=0;labelPosition=center;spacingRight=7;" vertex="1" parent="1">
          <mxGeometry x="1663" y="725" width="60" height="60" as="geometry" />
        </mxCell>
        <mxCell id="-IPIXIhOzp1eECCD4319-310" value="&lt;b&gt;10Ω&lt;/b&gt;" style="pointerEvents=1;verticalLabelPosition=bottom;shadow=0;dashed=0;align=center;html=1;verticalAlign=top;shape=mxgraph.electrical.resistors.resistor_2;" vertex="1" parent="1">
          <mxGeometry x="1743" y="745" width="40" height="20" as="geometry" />
        </mxCell>
        <mxCell id="-IPIXIhOzp1eECCD4319-311" value="&lt;b&gt;10nF&lt;/b&gt;" style="pointerEvents=1;verticalLabelPosition=bottom;shadow=0;dashed=0;align=center;html=1;verticalAlign=middle;shape=mxgraph.electrical.capacitors.capacitor_1;rotation=0;spacingRight=0;spacingTop=6;labelPosition=center;direction=east;spacingLeft=0;spacing=2;" vertex="1" parent="1">
          <mxGeometry x="1793" y="745" width="32.5" height="20" as="geometry" />
        </mxCell>
        <mxCell id="-IPIXIhOzp1eECCD4319-313" value="&lt;b&gt;5kΩ&lt;/b&gt;" style="pointerEvents=1;verticalLabelPosition=bottom;shadow=0;dashed=0;align=center;html=1;verticalAlign=top;shape=mxgraph.electrical.resistors.resistor_2;rotation=90;spacing=-2;" vertex="1" parent="1">
          <mxGeometry x="1854.5" y="815" width="40" height="20" as="geometry" />
        </mxCell>
        <mxCell id="-IPIXIhOzp1eECCD4319-314" value="&lt;b&gt;0.1µF&lt;/b&gt;" style="pointerEvents=1;verticalLabelPosition=bottom;shadow=0;dashed=0;align=center;html=1;verticalAlign=middle;shape=mxgraph.electrical.capacitors.capacitor_1;rotation=90;spacingRight=0;spacingTop=-2;labelPosition=center;direction=east;spacingLeft=0;spacing=1;" vertex="1" parent="1">
          <mxGeometry x="1917.75" y="815" width="32.5" height="20" as="geometry" />
        </mxCell>
        <mxCell id="-IPIXIhOzp1eECCD4319-315" value="&lt;b&gt;75kΩ&lt;/b&gt;" style="pointerEvents=1;verticalLabelPosition=bottom;shadow=0;dashed=0;align=center;html=1;verticalAlign=top;shape=mxgraph.electrical.resistors.resistor_2;" vertex="1" parent="1">
          <mxGeometry x="1996.5" y="725" width="40" height="20" as="geometry" />
        </mxCell>
        <mxCell id="-IPIXIhOzp1eECCD4319-316" value="&lt;b&gt;75kΩ&lt;/b&gt;" style="pointerEvents=1;verticalLabelPosition=bottom;shadow=0;dashed=0;align=center;html=1;verticalAlign=top;shape=mxgraph.electrical.resistors.resistor_2;" vertex="1" parent="1">
          <mxGeometry x="2054" y="725" width="40" height="20" as="geometry" />
        </mxCell>
        <mxCell id="-IPIXIhOzp1eECCD4319-317" value="&lt;div&gt;&lt;b&gt;OPA2349&lt;br&gt;&lt;/b&gt;&lt;/div&gt;" style="verticalLabelPosition=middle;shadow=0;dashed=0;align=center;html=1;verticalAlign=middle;shape=mxgraph.electrical.abstract.operational_amp_1;rotation=0;labelPosition=center;spacing=2;spacingRight=4;" vertex="1" parent="1">
          <mxGeometry x="2116.5" y="685" width="60" height="60" as="geometry" />
        </mxCell>
        <mxCell id="-IPIXIhOzp1eECCD4319-318" value="" style="endArrow=none;html=1;rounded=0;exitX=0;exitY=0.5;exitDx=0;exitDy=0;exitPerimeter=0;startArrow=none;" edge="1" parent="1" source="-IPIXIhOzp1eECCD4319-387">
          <mxGeometry width="50" height="50" relative="1" as="geometry">
            <mxPoint x="1643" y="875" as="sourcePoint" />
            <mxPoint x="1510" y="775" as="targetPoint" />
          </mxGeometry>
        </mxCell>
        <mxCell id="-IPIXIhOzp1eECCD4319-319" value="" style="endArrow=none;html=1;rounded=0;entryX=1;entryY=0.5;entryDx=0;entryDy=0;entryPerimeter=0;" edge="1" parent="1" target="-IPIXIhOzp1eECCD4319-307">
          <mxGeometry width="50" height="50" relative="1" as="geometry">
            <mxPoint x="1663" y="775" as="sourcePoint" />
            <mxPoint x="1543" y="785" as="targetPoint" />
          </mxGeometry>
        </mxCell>
        <mxCell id="-IPIXIhOzp1eECCD4319-320" value="" style="endArrow=none;html=1;rounded=0;" edge="1" parent="1">
          <mxGeometry width="50" height="50" relative="1" as="geometry">
            <mxPoint x="1663" y="735" as="sourcePoint" />
            <mxPoint x="1653" y="735" as="targetPoint" />
          </mxGeometry>
        </mxCell>
        <mxCell id="-IPIXIhOzp1eECCD4319-321" value="" style="endArrow=none;html=1;rounded=0;exitDx=0;exitDy=0;exitPerimeter=0;startArrow=none;" edge="1" parent="1" source="-IPIXIhOzp1eECCD4319-347">
          <mxGeometry width="50" height="50" relative="1" as="geometry">
            <mxPoint x="1616.75" y="785" as="sourcePoint" />
            <mxPoint x="1643" y="775" as="targetPoint" />
          </mxGeometry>
        </mxCell>
        <mxCell id="-IPIXIhOzp1eECCD4319-322" value="" style="endArrow=none;html=1;rounded=0;" edge="1" parent="1">
          <mxGeometry width="50" height="50" relative="1" as="geometry">
            <mxPoint x="1653" y="735" as="sourcePoint" />
            <mxPoint x="1653" y="715" as="targetPoint" />
          </mxGeometry>
        </mxCell>
        <mxCell id="-IPIXIhOzp1eECCD4319-323" value="" style="endArrow=none;html=1;rounded=0;" edge="1" parent="1">
          <mxGeometry width="50" height="50" relative="1" as="geometry">
            <mxPoint x="1733" y="715" as="sourcePoint" />
            <mxPoint x="1653" y="715" as="targetPoint" />
          </mxGeometry>
        </mxCell>
        <mxCell id="-IPIXIhOzp1eECCD4319-324" value="" style="endArrow=none;html=1;rounded=0;" edge="1" parent="1">
          <mxGeometry width="50" height="50" relative="1" as="geometry">
            <mxPoint x="1733" y="755" as="sourcePoint" />
            <mxPoint x="1733" y="715" as="targetPoint" />
          </mxGeometry>
        </mxCell>
        <mxCell id="-IPIXIhOzp1eECCD4319-325" value="" style="endArrow=none;html=1;rounded=0;entryX=1;entryY=0.5;entryDx=0;entryDy=0;entryPerimeter=0;startArrow=none;" edge="1" parent="1" source="-IPIXIhOzp1eECCD4319-348" target="-IPIXIhOzp1eECCD4319-309">
          <mxGeometry width="50" height="50" relative="1" as="geometry">
            <mxPoint x="1743" y="755" as="sourcePoint" />
            <mxPoint x="1663" y="744.9999999999999" as="targetPoint" />
          </mxGeometry>
        </mxCell>
        <mxCell id="-IPIXIhOzp1eECCD4319-326" value="" style="endArrow=none;html=1;rounded=0;entryX=1;entryY=0.5;entryDx=0;entryDy=0;entryPerimeter=0;exitX=0;exitY=0.5;exitDx=0;exitDy=0;exitPerimeter=0;" edge="1" parent="1" source="-IPIXIhOzp1eECCD4319-311" target="-IPIXIhOzp1eECCD4319-310">
          <mxGeometry width="50" height="50" relative="1" as="geometry">
            <mxPoint x="1743" y="724.9999999999999" as="sourcePoint" />
            <mxPoint x="1663" y="724.9999999999999" as="targetPoint" />
          </mxGeometry>
        </mxCell>
        <mxCell id="-IPIXIhOzp1eECCD4319-327" value="" style="endArrow=none;html=1;rounded=0;entryX=1;entryY=0.5;entryDx=0;entryDy=0;entryPerimeter=0;startArrow=none;" edge="1" parent="1" target="-IPIXIhOzp1eECCD4319-311">
          <mxGeometry width="50" height="50" relative="1" as="geometry">
            <mxPoint x="1833" y="755" as="sourcePoint" />
            <mxPoint x="1663" y="724.9999999999999" as="targetPoint" />
          </mxGeometry>
        </mxCell>
        <mxCell id="-IPIXIhOzp1eECCD4319-328" value="" style="endArrow=none;html=1;rounded=0;entryX=1;entryY=0.5;entryDx=0;entryDy=0;entryPerimeter=0;exitX=0;exitY=0.835;exitDx=0;exitDy=0;exitPerimeter=0;" edge="1" parent="1" source="-IPIXIhOzp1eECCD4319-336" target="-IPIXIhOzp1eECCD4319-305">
          <mxGeometry width="50" height="50" relative="1" as="geometry">
            <mxPoint x="1924" y="755" as="sourcePoint" />
            <mxPoint x="1816.5" y="765" as="targetPoint" />
          </mxGeometry>
        </mxCell>
        <mxCell id="-IPIXIhOzp1eECCD4319-329" value="" style="endArrow=none;html=1;rounded=0;" edge="1" parent="1">
          <mxGeometry width="50" height="50" relative="1" as="geometry">
            <mxPoint x="1901.9999999999995" y="795" as="sourcePoint" />
            <mxPoint x="1901.9999999999995" y="755" as="targetPoint" />
          </mxGeometry>
        </mxCell>
        <mxCell id="-IPIXIhOzp1eECCD4319-330" value="" style="endArrow=none;html=1;rounded=0;" edge="1" parent="1">
          <mxGeometry width="50" height="50" relative="1" as="geometry">
            <mxPoint x="1934" y="795" as="sourcePoint" />
            <mxPoint x="1874" y="795" as="targetPoint" />
          </mxGeometry>
        </mxCell>
        <mxCell id="-IPIXIhOzp1eECCD4319-331" value="" style="endArrow=none;html=1;rounded=0;exitX=0;exitY=0.5;exitDx=0;exitDy=0;exitPerimeter=0;" edge="1" parent="1" source="-IPIXIhOzp1eECCD4319-313">
          <mxGeometry width="50" height="50" relative="1" as="geometry">
            <mxPoint x="1874.25" y="800" as="sourcePoint" />
            <mxPoint x="1874" y="795" as="targetPoint" />
          </mxGeometry>
        </mxCell>
        <mxCell id="-IPIXIhOzp1eECCD4319-332" value="" style="endArrow=none;html=1;rounded=0;exitX=0;exitY=0.5;exitDx=0;exitDy=0;exitPerimeter=0;" edge="1" parent="1" source="-IPIXIhOzp1eECCD4319-314">
          <mxGeometry width="50" height="50" relative="1" as="geometry">
            <mxPoint x="1921.75" y="812.5" as="sourcePoint" />
            <mxPoint x="1934" y="795" as="targetPoint" />
          </mxGeometry>
        </mxCell>
        <mxCell id="-IPIXIhOzp1eECCD4319-333" value="" style="endArrow=none;html=1;rounded=0;entryX=1;entryY=0.5;entryDx=0;entryDy=0;entryPerimeter=0;" edge="1" parent="1" target="-IPIXIhOzp1eECCD4319-313">
          <mxGeometry width="50" height="50" relative="1" as="geometry">
            <mxPoint x="1875" y="855" as="sourcePoint" />
            <mxPoint x="1874.3600000000001" y="850" as="targetPoint" />
          </mxGeometry>
        </mxCell>
        <mxCell id="-IPIXIhOzp1eECCD4319-334" value="" style="endArrow=none;html=1;rounded=0;entryX=1;entryY=0.5;entryDx=0;entryDy=0;entryPerimeter=0;" edge="1" parent="1" target="-IPIXIhOzp1eECCD4319-314">
          <mxGeometry width="50" height="50" relative="1" as="geometry">
            <mxPoint x="1934" y="855" as="sourcePoint" />
            <mxPoint x="1941.75" y="835" as="targetPoint" />
          </mxGeometry>
        </mxCell>
        <mxCell id="-IPIXIhOzp1eECCD4319-335" value="" style="endArrow=none;html=1;rounded=0;" edge="1" parent="1">
          <mxGeometry width="50" height="50" relative="1" as="geometry">
            <mxPoint x="1935" y="855" as="sourcePoint" />
            <mxPoint x="1875" y="855" as="targetPoint" />
          </mxGeometry>
        </mxCell>
        <mxCell id="-IPIXIhOzp1eECCD4319-336" value="&lt;b&gt;OPA333&lt;/b&gt;" style="verticalLabelPosition=middle;shadow=0;dashed=0;align=center;html=1;verticalAlign=middle;shape=mxgraph.electrical.abstract.operational_amp_1;rotation=0;labelPosition=center;spacingRight=7;" vertex="1" parent="1">
          <mxGeometry x="1922" y="705" width="60" height="60" as="geometry" />
        </mxCell>
        <mxCell id="-IPIXIhOzp1eECCD4319-337" value="&lt;b&gt;0.22µF&lt;/b&gt;" style="pointerEvents=1;verticalLabelPosition=bottom;shadow=0;dashed=0;align=center;html=1;verticalAlign=middle;shape=mxgraph.electrical.capacitors.capacitor_1;rotation=90;spacingRight=0;spacingTop=8;labelPosition=center;direction=east;spacingLeft=0;spacing=2;" vertex="1" parent="1">
          <mxGeometry x="2024" y="685" width="32.5" height="20" as="geometry" />
        </mxCell>
        <mxCell id="-IPIXIhOzp1eECCD4319-338" value="&lt;b&gt;0.1µF&lt;/b&gt;" style="pointerEvents=1;verticalLabelPosition=bottom;shadow=0;dashed=0;align=center;html=1;verticalAlign=middle;shape=mxgraph.electrical.capacitors.capacitor_1;rotation=90;spacingRight=0;spacingTop=8;labelPosition=center;direction=east;spacingLeft=0;spacing=2;" vertex="1" parent="1">
          <mxGeometry x="2090.25" y="785" width="32.5" height="20" as="geometry" />
        </mxCell>
        <mxCell id="-IPIXIhOzp1eECCD4319-339" value="" style="endArrow=none;html=1;rounded=0;entryX=1;entryY=0.5;entryDx=0;entryDy=0;entryPerimeter=0;exitX=0;exitY=0.5;exitDx=0;exitDy=0;exitPerimeter=0;" edge="1" parent="1" source="-IPIXIhOzp1eECCD4319-316" target="-IPIXIhOzp1eECCD4319-315">
          <mxGeometry width="50" height="50" relative="1" as="geometry">
            <mxPoint x="2054" y="735" as="sourcePoint" />
            <mxPoint x="2044" y="735" as="targetPoint" />
          </mxGeometry>
        </mxCell>
        <mxCell id="-IPIXIhOzp1eECCD4319-340" value="" style="endArrow=none;html=1;rounded=0;entryX=1;entryY=0.5;entryDx=0;entryDy=0;entryPerimeter=0;" edge="1" parent="1" target="-IPIXIhOzp1eECCD4319-337">
          <mxGeometry width="50" height="50" relative="1" as="geometry">
            <mxPoint x="2040" y="735" as="sourcePoint" />
            <mxPoint x="2052.75" y="745" as="targetPoint" />
          </mxGeometry>
        </mxCell>
        <mxCell id="-IPIXIhOzp1eECCD4319-341" value="" style="endArrow=none;html=1;rounded=0;entryX=1;entryY=0.5;entryDx=0;entryDy=0;entryPerimeter=0;exitX=0;exitY=0.835;exitDx=0;exitDy=0;exitPerimeter=0;" edge="1" parent="1" source="-IPIXIhOzp1eECCD4319-317" target="-IPIXIhOzp1eECCD4319-316">
          <mxGeometry width="50" height="50" relative="1" as="geometry">
            <mxPoint x="2060" y="745" as="sourcePoint" />
            <mxPoint x="2060.25" y="731.25" as="targetPoint" />
          </mxGeometry>
        </mxCell>
        <mxCell id="-IPIXIhOzp1eECCD4319-342" value="" style="endArrow=none;html=1;rounded=0;exitDx=0;exitDy=0;exitPerimeter=0;startArrow=none;" edge="1" parent="1" source="-IPIXIhOzp1eECCD4319-354">
          <mxGeometry width="50" height="50" relative="1" as="geometry">
            <mxPoint x="2132.75" y="745.1" as="sourcePoint" />
            <mxPoint x="2106.9999999999995" y="735" as="targetPoint" />
          </mxGeometry>
        </mxCell>
        <mxCell id="-IPIXIhOzp1eECCD4319-343" value="" style="pointerEvents=1;verticalLabelPosition=bottom;shadow=0;dashed=0;align=center;html=1;verticalAlign=top;shape=mxgraph.electrical.signal_sources.signal_ground;" vertex="1" parent="1">
          <mxGeometry x="2096.5" y="815" width="20" height="20" as="geometry" />
        </mxCell>
        <mxCell id="-IPIXIhOzp1eECCD4319-344" value="" style="endArrow=none;html=1;rounded=0;exitX=0.5;exitY=0;exitDx=0;exitDy=0;exitPerimeter=0;entryX=1;entryY=0.5;entryDx=0;entryDy=0;entryPerimeter=0;" edge="1" parent="1" source="-IPIXIhOzp1eECCD4319-343" target="-IPIXIhOzp1eECCD4319-338">
          <mxGeometry width="50" height="50" relative="1" as="geometry">
            <mxPoint x="1914.5" y="875" as="sourcePoint" />
            <mxPoint x="1915" y="865" as="targetPoint" />
          </mxGeometry>
        </mxCell>
        <mxCell id="-IPIXIhOzp1eECCD4319-345" value="" style="endArrow=none;html=1;rounded=0;entryX=0;entryY=0.5;entryDx=0;entryDy=0;entryPerimeter=0;startArrow=none;" edge="1" parent="1" target="-IPIXIhOzp1eECCD4319-337">
          <mxGeometry width="50" height="50" relative="1" as="geometry">
            <mxPoint x="2094" y="665" as="sourcePoint" />
            <mxPoint x="1991.5" y="665.07" as="targetPoint" />
            <Array as="points">
              <mxPoint x="2040" y="665" />
            </Array>
          </mxGeometry>
        </mxCell>
        <mxCell id="-IPIXIhOzp1eECCD4319-346" value="" style="endArrow=none;html=1;rounded=0;entryX=1;entryY=0.5;entryDx=0;entryDy=0;entryPerimeter=0;exitDx=0;exitDy=0;exitPerimeter=0;startArrow=none;" edge="1" parent="1" source="-IPIXIhOzp1eECCD4319-357" target="-IPIXIhOzp1eECCD4319-336">
          <mxGeometry width="50" height="50" relative="1" as="geometry">
            <mxPoint x="2224" y="725" as="sourcePoint" />
            <mxPoint x="2192.75" y="724.82" as="targetPoint" />
          </mxGeometry>
        </mxCell>
        <mxCell id="-IPIXIhOzp1eECCD4319-347" value="" style="shape=waypoint;sketch=0;fillStyle=solid;size=6;pointerEvents=1;points=[];fillColor=none;resizable=0;rotatable=0;perimeter=centerPerimeter;snapToPoint=1;" vertex="1" parent="1">
          <mxGeometry x="1613" y="755" width="40" height="40" as="geometry" />
        </mxCell>
        <mxCell id="-IPIXIhOzp1eECCD4319-348" value="" style="shape=waypoint;sketch=0;fillStyle=solid;size=6;pointerEvents=1;points=[];fillColor=none;resizable=0;rotatable=0;perimeter=centerPerimeter;snapToPoint=1;" vertex="1" parent="1">
          <mxGeometry x="1713" y="735" width="40" height="40" as="geometry" />
        </mxCell>
        <mxCell id="-IPIXIhOzp1eECCD4319-349" value="" style="endArrow=none;html=1;rounded=0;entryDx=0;entryDy=0;entryPerimeter=0;" edge="1" parent="1" target="-IPIXIhOzp1eECCD4319-348">
          <mxGeometry width="50" height="50" relative="1" as="geometry">
            <mxPoint x="1743" y="755" as="sourcePoint" />
            <mxPoint x="1723" y="755" as="targetPoint" />
          </mxGeometry>
        </mxCell>
        <mxCell id="-IPIXIhOzp1eECCD4319-351" value="" style="endArrow=none;html=1;rounded=0;entryDx=0;entryDy=0;entryPerimeter=0;startArrow=none;" edge="1" parent="1">
          <mxGeometry width="50" height="50" relative="1" as="geometry">
            <mxPoint x="1851" y="755" as="sourcePoint" />
            <mxPoint x="1833" y="755" as="targetPoint" />
          </mxGeometry>
        </mxCell>
        <mxCell id="-IPIXIhOzp1eECCD4319-352" value="" style="shape=waypoint;sketch=0;fillStyle=solid;size=6;pointerEvents=1;points=[];fillColor=none;resizable=0;rotatable=0;perimeter=centerPerimeter;snapToPoint=1;" vertex="1" parent="1">
          <mxGeometry x="1882" y="735" width="40" height="40" as="geometry" />
        </mxCell>
        <mxCell id="-IPIXIhOzp1eECCD4319-353" value="" style="shape=waypoint;sketch=0;fillStyle=solid;size=6;pointerEvents=1;points=[];fillColor=none;resizable=0;rotatable=0;perimeter=centerPerimeter;snapToPoint=1;" vertex="1" parent="1">
          <mxGeometry x="2020.25" y="715" width="40" height="40" as="geometry" />
        </mxCell>
        <mxCell id="-IPIXIhOzp1eECCD4319-354" value="" style="shape=waypoint;sketch=0;fillStyle=solid;size=6;pointerEvents=1;points=[];fillColor=none;resizable=0;rotatable=0;perimeter=centerPerimeter;snapToPoint=1;" vertex="1" parent="1">
          <mxGeometry x="2086.5" y="715" width="40" height="40" as="geometry" />
        </mxCell>
        <mxCell id="-IPIXIhOzp1eECCD4319-355" value="" style="endArrow=none;html=1;rounded=0;exitX=0;exitY=0.5;exitDx=0;exitDy=0;exitPerimeter=0;" edge="1" parent="1" source="-IPIXIhOzp1eECCD4319-338" target="-IPIXIhOzp1eECCD4319-354">
          <mxGeometry width="50" height="50" relative="1" as="geometry">
            <mxPoint x="2106.5" y="778.75" as="sourcePoint" />
            <mxPoint x="2107" y="735" as="targetPoint" />
          </mxGeometry>
        </mxCell>
        <mxCell id="-IPIXIhOzp1eECCD4319-356" value="" style="endArrow=none;html=1;rounded=0;" edge="1" parent="1">
          <mxGeometry width="50" height="50" relative="1" as="geometry">
            <mxPoint x="2214" y="715" as="sourcePoint" />
            <mxPoint x="2194" y="715" as="targetPoint" />
          </mxGeometry>
        </mxCell>
        <mxCell id="-IPIXIhOzp1eECCD4319-357" value="" style="shape=waypoint;sketch=0;fillStyle=solid;size=6;pointerEvents=1;points=[];fillColor=none;resizable=0;rotatable=0;perimeter=centerPerimeter;snapToPoint=1;" vertex="1" parent="1">
          <mxGeometry x="1974" y="715" width="40" height="40" as="geometry" />
        </mxCell>
        <mxCell id="-IPIXIhOzp1eECCD4319-358" value="" style="endArrow=none;html=1;rounded=0;entryDx=0;entryDy=0;entryPerimeter=0;exitX=0;exitY=0.5;exitDx=0;exitDy=0;exitPerimeter=0;" edge="1" parent="1" source="-IPIXIhOzp1eECCD4319-315" target="-IPIXIhOzp1eECCD4319-357">
          <mxGeometry width="50" height="50" relative="1" as="geometry">
            <mxPoint x="1996.5" y="735" as="sourcePoint" />
            <mxPoint x="1982" y="735" as="targetPoint" />
          </mxGeometry>
        </mxCell>
        <mxCell id="-IPIXIhOzp1eECCD4319-359" value="" style="endArrow=none;html=1;rounded=0;" edge="1" parent="1">
          <mxGeometry width="50" height="50" relative="1" as="geometry">
            <mxPoint x="1994" y="685" as="sourcePoint" />
            <mxPoint x="1904" y="685" as="targetPoint" />
          </mxGeometry>
        </mxCell>
        <mxCell id="-IPIXIhOzp1eECCD4319-360" value="" style="endArrow=none;html=1;rounded=0;" edge="1" parent="1" source="-IPIXIhOzp1eECCD4319-357">
          <mxGeometry width="50" height="50" relative="1" as="geometry">
            <mxPoint x="1992" y="695" as="sourcePoint" />
            <mxPoint x="1994" y="685" as="targetPoint" />
          </mxGeometry>
        </mxCell>
        <mxCell id="-IPIXIhOzp1eECCD4319-361" value="" style="endArrow=none;html=1;rounded=0;" edge="1" parent="1">
          <mxGeometry width="50" height="50" relative="1" as="geometry">
            <mxPoint x="1904" y="715" as="sourcePoint" />
            <mxPoint x="1904" y="685" as="targetPoint" />
          </mxGeometry>
        </mxCell>
        <mxCell id="-IPIXIhOzp1eECCD4319-362" value="" style="endArrow=none;html=1;rounded=0;exitX=0;exitY=0.165;exitDx=0;exitDy=0;exitPerimeter=0;" edge="1" parent="1" source="-IPIXIhOzp1eECCD4319-336">
          <mxGeometry width="50" height="50" relative="1" as="geometry">
            <mxPoint x="2004" y="695" as="sourcePoint" />
            <mxPoint x="1904" y="715" as="targetPoint" />
          </mxGeometry>
        </mxCell>
        <mxCell id="-IPIXIhOzp1eECCD4319-363" value="" style="endArrow=none;html=1;rounded=0;" edge="1" parent="1">
          <mxGeometry width="50" height="50" relative="1" as="geometry">
            <mxPoint x="2094" y="695" as="sourcePoint" />
            <mxPoint x="2094" y="665" as="targetPoint" />
            <Array as="points" />
          </mxGeometry>
        </mxCell>
        <mxCell id="-IPIXIhOzp1eECCD4319-364" value="" style="endArrow=none;html=1;rounded=0;exitX=0;exitY=0.165;exitDx=0;exitDy=0;exitPerimeter=0;" edge="1" parent="1" source="-IPIXIhOzp1eECCD4319-317">
          <mxGeometry width="50" height="50" relative="1" as="geometry">
            <mxPoint x="2114" y="695" as="sourcePoint" />
            <mxPoint x="2094" y="695" as="targetPoint" />
          </mxGeometry>
        </mxCell>
        <mxCell id="-IPIXIhOzp1eECCD4319-365" value="" style="endArrow=none;html=1;rounded=0;" edge="1" parent="1">
          <mxGeometry width="50" height="50" relative="1" as="geometry">
            <mxPoint x="2194" y="665" as="sourcePoint" />
            <mxPoint x="2094" y="665" as="targetPoint" />
            <Array as="points" />
          </mxGeometry>
        </mxCell>
        <mxCell id="-IPIXIhOzp1eECCD4319-366" value="" style="shape=waypoint;sketch=0;fillStyle=solid;size=6;pointerEvents=1;points=[];fillColor=none;resizable=0;rotatable=0;perimeter=centerPerimeter;snapToPoint=1;" vertex="1" parent="1">
          <mxGeometry x="2074" y="645" width="40" height="40" as="geometry" />
        </mxCell>
        <mxCell id="-IPIXIhOzp1eECCD4319-367" style="edgeStyle=none;rounded=0;orthogonalLoop=1;jettySize=auto;html=1;fontSize=12;" edge="1" parent="1" source="-IPIXIhOzp1eECCD4319-366" target="-IPIXIhOzp1eECCD4319-366">
          <mxGeometry relative="1" as="geometry" />
        </mxCell>
        <mxCell id="-IPIXIhOzp1eECCD4319-368" value="" style="shape=waypoint;sketch=0;fillStyle=solid;size=6;pointerEvents=1;points=[];fillColor=none;resizable=0;rotatable=0;perimeter=centerPerimeter;snapToPoint=1;" vertex="1" parent="1">
          <mxGeometry x="2174" y="695" width="40" height="40" as="geometry" />
        </mxCell>
        <mxCell id="-IPIXIhOzp1eECCD4319-369" value="" style="endArrow=none;html=1;rounded=0;" edge="1" parent="1" source="-IPIXIhOzp1eECCD4319-368">
          <mxGeometry width="50" height="50" relative="1" as="geometry">
            <mxPoint x="2004" y="745" as="sourcePoint" />
            <mxPoint x="2194" y="665" as="targetPoint" />
          </mxGeometry>
        </mxCell>
        <mxCell id="-IPIXIhOzp1eECCD4319-370" value="" style="shape=waypoint;sketch=0;fillStyle=solid;size=6;pointerEvents=1;points=[];fillColor=none;resizable=0;rotatable=0;perimeter=centerPerimeter;snapToPoint=1;" vertex="1" parent="1">
          <mxGeometry x="1882" y="835" width="40" height="40" as="geometry" />
        </mxCell>
        <mxCell id="-IPIXIhOzp1eECCD4319-374" value="" style="endArrow=none;html=1;rounded=0;entryDx=0;entryDy=0;entryPerimeter=0;" edge="1" parent="1">
          <mxGeometry width="50" height="50" relative="1" as="geometry">
            <mxPoint x="1834" y="755" as="sourcePoint" />
            <mxPoint x="1832" y="755" as="targetPoint" />
          </mxGeometry>
        </mxCell>
        <mxCell id="-IPIXIhOzp1eECCD4319-376" value="" style="endArrow=none;html=1;rounded=0;exitX=0.342;exitY=0.517;exitDx=0;exitDy=0;exitPerimeter=0;" edge="1" parent="1" source="-IPIXIhOzp1eECCD4319-305">
          <mxGeometry width="50" height="50" relative="1" as="geometry">
            <mxPoint x="1842" y="815" as="sourcePoint" />
            <mxPoint x="1832" y="755" as="targetPoint" />
          </mxGeometry>
        </mxCell>
        <mxCell id="-IPIXIhOzp1eECCD4319-379" value="" style="shape=waypoint;sketch=0;fillStyle=solid;size=6;pointerEvents=1;points=[];fillColor=none;resizable=0;rotatable=0;perimeter=centerPerimeter;snapToPoint=1;" vertex="1" parent="1">
          <mxGeometry x="1882" y="775" width="40" height="40" as="geometry" />
        </mxCell>
        <mxCell id="-IPIXIhOzp1eECCD4319-382" value="" style="endArrow=none;html=1;rounded=0;entryX=0.5;entryY=0;entryDx=0;entryDy=0;entryPerimeter=0;" edge="1" parent="1" target="-IPIXIhOzp1eECCD4319-266">
          <mxGeometry width="50" height="50" relative="1" as="geometry">
            <mxPoint x="1633" y="625" as="sourcePoint" />
            <mxPoint x="1733" y="665" as="targetPoint" />
          </mxGeometry>
        </mxCell>
        <mxCell id="-IPIXIhOzp1eECCD4319-383" value="" style="endArrow=none;html=1;rounded=0;exitX=1;exitY=0.5;exitDx=0;exitDy=0;exitPerimeter=0;entryX=0;entryY=0.5;entryDx=0;entryDy=0;entryPerimeter=0;" edge="1" parent="1" source="-IPIXIhOzp1eECCD4319-230" target="-IPIXIhOzp1eECCD4319-308">
          <mxGeometry width="50" height="50" relative="1" as="geometry">
            <mxPoint x="1703" y="575" as="sourcePoint" />
            <mxPoint x="1633" y="655" as="targetPoint" />
          </mxGeometry>
        </mxCell>
        <mxCell id="-IPIXIhOzp1eECCD4319-386" value="" style="endArrow=none;html=1;rounded=0;exitX=1;exitY=0.5;exitDx=0;exitDy=0;exitPerimeter=0;" edge="1" parent="1" source="-IPIXIhOzp1eECCD4319-308" target="-IPIXIhOzp1eECCD4319-347">
          <mxGeometry width="50" height="50" relative="1" as="geometry">
            <mxPoint x="1643" y="595" as="sourcePoint" />
            <mxPoint x="1643" y="705" as="targetPoint" />
          </mxGeometry>
        </mxCell>
        <mxCell id="-IPIXIhOzp1eECCD4319-387" value="&lt;font style=&quot;font-size: 7px&quot;&gt;electrode&lt;/font&gt;" style="shape=ext;double=1;rounded=0;whiteSpace=wrap;html=1;fontSize=12;" vertex="1" parent="1">
          <mxGeometry x="1530" y="760" width="40" height="30" as="geometry" />
        </mxCell>
        <mxCell id="-IPIXIhOzp1eECCD4319-388" value="" style="endArrow=none;html=1;rounded=0;exitX=0;exitY=0.5;exitDx=0;exitDy=0;exitPerimeter=0;" edge="1" parent="1" source="-IPIXIhOzp1eECCD4319-307" target="-IPIXIhOzp1eECCD4319-387">
          <mxGeometry width="50" height="50" relative="1" as="geometry">
            <mxPoint x="1596.75" y="775" as="sourcePoint" />
            <mxPoint x="1510" y="775" as="targetPoint" />
          </mxGeometry>
        </mxCell>
        <mxCell id="-IPIXIhOzp1eECCD4319-389" value="&lt;font style=&quot;font-size: 14px&quot;&gt;&lt;b&gt;IMPOUT1&lt;/b&gt;&lt;/font&gt;" style="shape=mxgraph.arrows2.arrow;verticalLabelPosition=middle;shadow=0;dashed=0;align=center;html=1;verticalAlign=middle;strokeWidth=1;dy=0;dx=10;notch=0;fontSize=7;labelPosition=center;spacingLeft=-5;" vertex="1" parent="1">
          <mxGeometry x="2207" y="445" width="70.75" height="20" as="geometry" />
        </mxCell>
        <mxCell id="-IPIXIhOzp1eECCD4319-390" value="&lt;font style=&quot;font-size: 14px&quot;&gt;&lt;b&gt;IMPOUT2&lt;/b&gt;&lt;/font&gt;" style="shape=mxgraph.arrows2.arrow;verticalLabelPosition=middle;shadow=0;dashed=0;align=center;html=1;verticalAlign=middle;strokeWidth=1;dy=0;dx=10;notch=0;fontSize=7;labelPosition=center;spacingLeft=-5;" vertex="1" parent="1">
          <mxGeometry x="2207" y="705" width="70.75" height="20" as="geometry" />
        </mxCell>
        <mxCell id="-IPIXIhOzp1eECCD4319-391" value="" style="pointerEvents=1;verticalLabelPosition=bottom;shadow=0;dashed=0;align=center;html=1;verticalAlign=top;shape=mxgraph.electrical.signal_sources.signal_ground;" vertex="1" parent="1">
          <mxGeometry x="1892" y="875" width="20" height="20" as="geometry" />
        </mxCell>
        <mxCell id="-IPIXIhOzp1eECCD4319-392" value="" style="endArrow=none;html=1;rounded=0;exitX=0.5;exitY=0;exitDx=0;exitDy=0;exitPerimeter=0;" edge="1" parent="1" source="-IPIXIhOzp1eECCD4319-391">
          <mxGeometry width="50" height="50" relative="1" as="geometry">
            <mxPoint x="1824" y="814.9999999999999" as="sourcePoint" />
            <mxPoint x="1901.9999999999995" y="855" as="targetPoint" />
          </mxGeometry>
        </mxCell>
        <mxCell id="-IPIXIhOzp1eECCD4319-393" value="" style="endArrow=none;html=1;rounded=0;exitX=0;exitY=0.5;exitDx=0;exitDy=0;exitPerimeter=0;entryX=0;entryY=0.5;entryDx=0;entryDy=0;entryPerimeter=0;" edge="1" parent="1" source="-IPIXIhOzp1eECCD4319-55" target="-IPIXIhOzp1eECCD4319-229">
          <mxGeometry width="50" height="50" relative="1" as="geometry">
            <mxPoint x="1530" y="575" as="sourcePoint" />
            <mxPoint x="1580" y="525" as="targetPoint" />
          </mxGeometry>
        </mxCell>
      </root>
    </mxGraphModel>
  </diagram>
</mxfile>
